%TF.GenerationSoftware,KiCad,Pcbnew,9.0.6*%
%TF.CreationDate,2026-01-01T17:20:02-06:00*%
%TF.ProjectId,gatekeeper,67617465-6b65-4657-9065-722e6b696361,rev?*%
%TF.SameCoordinates,Original*%
%TF.FileFunction,Legend,Top*%
%TF.FilePolarity,Positive*%
%FSLAX46Y46*%
G04 Gerber Fmt 4.6, Leading zero omitted, Abs format (unit mm)*
G04 Created by KiCad (PCBNEW 9.0.6) date 2026-01-01 17:20:02*
%MOMM*%
%LPD*%
G01*
G04 APERTURE LIST*
%ADD10C,0.150000*%
%ADD11C,0.100000*%
%ADD12C,0.120000*%
G04 APERTURE END LIST*
D10*
X106880952Y-116494819D02*
X106404762Y-116494819D01*
X106404762Y-116494819D02*
X106404762Y-115494819D01*
X107214286Y-115971009D02*
X107547619Y-115971009D01*
X107690476Y-116494819D02*
X107214286Y-116494819D01*
X107214286Y-116494819D02*
X107214286Y-115494819D01*
X107214286Y-115494819D02*
X107690476Y-115494819D01*
X108119048Y-116494819D02*
X108119048Y-115494819D01*
X108119048Y-115494819D02*
X108357143Y-115494819D01*
X108357143Y-115494819D02*
X108500000Y-115542438D01*
X108500000Y-115542438D02*
X108595238Y-115637676D01*
X108595238Y-115637676D02*
X108642857Y-115732914D01*
X108642857Y-115732914D02*
X108690476Y-115923390D01*
X108690476Y-115923390D02*
X108690476Y-116066247D01*
X108690476Y-116066247D02*
X108642857Y-116256723D01*
X108642857Y-116256723D02*
X108595238Y-116351961D01*
X108595238Y-116351961D02*
X108500000Y-116447200D01*
X108500000Y-116447200D02*
X108357143Y-116494819D01*
X108357143Y-116494819D02*
X108119048Y-116494819D01*
X109642857Y-116494819D02*
X109071429Y-116494819D01*
X109357143Y-116494819D02*
X109357143Y-115494819D01*
X109357143Y-115494819D02*
X109261905Y-115637676D01*
X109261905Y-115637676D02*
X109166667Y-115732914D01*
X109166667Y-115732914D02*
X109071429Y-115780533D01*
D11*
X103866666Y-58157419D02*
X103866666Y-58871704D01*
X103866666Y-58871704D02*
X103819047Y-59014561D01*
X103819047Y-59014561D02*
X103723809Y-59109800D01*
X103723809Y-59109800D02*
X103580952Y-59157419D01*
X103580952Y-59157419D02*
X103485714Y-59157419D01*
X104866666Y-59157419D02*
X104295238Y-59157419D01*
X104580952Y-59157419D02*
X104580952Y-58157419D01*
X104580952Y-58157419D02*
X104485714Y-58300276D01*
X104485714Y-58300276D02*
X104390476Y-58395514D01*
X104390476Y-58395514D02*
X104295238Y-58443133D01*
D10*
X106666667Y-78157200D02*
X106809524Y-78204819D01*
X106809524Y-78204819D02*
X107047619Y-78204819D01*
X107047619Y-78204819D02*
X107142857Y-78157200D01*
X107142857Y-78157200D02*
X107190476Y-78109580D01*
X107190476Y-78109580D02*
X107238095Y-78014342D01*
X107238095Y-78014342D02*
X107238095Y-77919104D01*
X107238095Y-77919104D02*
X107190476Y-77823866D01*
X107190476Y-77823866D02*
X107142857Y-77776247D01*
X107142857Y-77776247D02*
X107047619Y-77728628D01*
X107047619Y-77728628D02*
X106857143Y-77681009D01*
X106857143Y-77681009D02*
X106761905Y-77633390D01*
X106761905Y-77633390D02*
X106714286Y-77585771D01*
X106714286Y-77585771D02*
X106666667Y-77490533D01*
X106666667Y-77490533D02*
X106666667Y-77395295D01*
X106666667Y-77395295D02*
X106714286Y-77300057D01*
X106714286Y-77300057D02*
X106761905Y-77252438D01*
X106761905Y-77252438D02*
X106857143Y-77204819D01*
X106857143Y-77204819D02*
X107095238Y-77204819D01*
X107095238Y-77204819D02*
X107238095Y-77252438D01*
X107571429Y-77204819D02*
X107809524Y-78204819D01*
X107809524Y-78204819D02*
X108000000Y-77490533D01*
X108000000Y-77490533D02*
X108190476Y-78204819D01*
X108190476Y-78204819D02*
X108428572Y-77204819D01*
X108761905Y-77300057D02*
X108809524Y-77252438D01*
X108809524Y-77252438D02*
X108904762Y-77204819D01*
X108904762Y-77204819D02*
X109142857Y-77204819D01*
X109142857Y-77204819D02*
X109238095Y-77252438D01*
X109238095Y-77252438D02*
X109285714Y-77300057D01*
X109285714Y-77300057D02*
X109333333Y-77395295D01*
X109333333Y-77395295D02*
X109333333Y-77490533D01*
X109333333Y-77490533D02*
X109285714Y-77633390D01*
X109285714Y-77633390D02*
X108714286Y-78204819D01*
X108714286Y-78204819D02*
X109333333Y-78204819D01*
X104157200Y-107333332D02*
X104204819Y-107190475D01*
X104204819Y-107190475D02*
X104204819Y-106952380D01*
X104204819Y-106952380D02*
X104157200Y-106857142D01*
X104157200Y-106857142D02*
X104109580Y-106809523D01*
X104109580Y-106809523D02*
X104014342Y-106761904D01*
X104014342Y-106761904D02*
X103919104Y-106761904D01*
X103919104Y-106761904D02*
X103823866Y-106809523D01*
X103823866Y-106809523D02*
X103776247Y-106857142D01*
X103776247Y-106857142D02*
X103728628Y-106952380D01*
X103728628Y-106952380D02*
X103681009Y-107142856D01*
X103681009Y-107142856D02*
X103633390Y-107238094D01*
X103633390Y-107238094D02*
X103585771Y-107285713D01*
X103585771Y-107285713D02*
X103490533Y-107333332D01*
X103490533Y-107333332D02*
X103395295Y-107333332D01*
X103395295Y-107333332D02*
X103300057Y-107285713D01*
X103300057Y-107285713D02*
X103252438Y-107238094D01*
X103252438Y-107238094D02*
X103204819Y-107142856D01*
X103204819Y-107142856D02*
X103204819Y-106904761D01*
X103204819Y-106904761D02*
X103252438Y-106761904D01*
X103204819Y-106428570D02*
X104204819Y-106190475D01*
X104204819Y-106190475D02*
X103490533Y-105999999D01*
X103490533Y-105999999D02*
X104204819Y-105809523D01*
X104204819Y-105809523D02*
X103204819Y-105571428D01*
X104204819Y-104666666D02*
X104204819Y-105238094D01*
X104204819Y-104952380D02*
X103204819Y-104952380D01*
X103204819Y-104952380D02*
X103347676Y-105047618D01*
X103347676Y-105047618D02*
X103442914Y-105142856D01*
X103442914Y-105142856D02*
X103490533Y-105238094D01*
D11*
X103866666Y-154757419D02*
X103866666Y-155471704D01*
X103866666Y-155471704D02*
X103819047Y-155614561D01*
X103819047Y-155614561D02*
X103723809Y-155709800D01*
X103723809Y-155709800D02*
X103580952Y-155757419D01*
X103580952Y-155757419D02*
X103485714Y-155757419D01*
X104295238Y-154852657D02*
X104342857Y-154805038D01*
X104342857Y-154805038D02*
X104438095Y-154757419D01*
X104438095Y-154757419D02*
X104676190Y-154757419D01*
X104676190Y-154757419D02*
X104771428Y-154805038D01*
X104771428Y-154805038D02*
X104819047Y-154852657D01*
X104819047Y-154852657D02*
X104866666Y-154947895D01*
X104866666Y-154947895D02*
X104866666Y-155043133D01*
X104866666Y-155043133D02*
X104819047Y-155185990D01*
X104819047Y-155185990D02*
X104247619Y-155757419D01*
X104247619Y-155757419D02*
X104866666Y-155757419D01*
D10*
X106880952Y-139414819D02*
X106404762Y-139414819D01*
X106404762Y-139414819D02*
X106404762Y-138414819D01*
X107214286Y-138891009D02*
X107547619Y-138891009D01*
X107690476Y-139414819D02*
X107214286Y-139414819D01*
X107214286Y-139414819D02*
X107214286Y-138414819D01*
X107214286Y-138414819D02*
X107690476Y-138414819D01*
X108119048Y-139414819D02*
X108119048Y-138414819D01*
X108119048Y-138414819D02*
X108357143Y-138414819D01*
X108357143Y-138414819D02*
X108500000Y-138462438D01*
X108500000Y-138462438D02*
X108595238Y-138557676D01*
X108595238Y-138557676D02*
X108642857Y-138652914D01*
X108642857Y-138652914D02*
X108690476Y-138843390D01*
X108690476Y-138843390D02*
X108690476Y-138986247D01*
X108690476Y-138986247D02*
X108642857Y-139176723D01*
X108642857Y-139176723D02*
X108595238Y-139271961D01*
X108595238Y-139271961D02*
X108500000Y-139367200D01*
X108500000Y-139367200D02*
X108357143Y-139414819D01*
X108357143Y-139414819D02*
X108119048Y-139414819D01*
X109071429Y-138510057D02*
X109119048Y-138462438D01*
X109119048Y-138462438D02*
X109214286Y-138414819D01*
X109214286Y-138414819D02*
X109452381Y-138414819D01*
X109452381Y-138414819D02*
X109547619Y-138462438D01*
X109547619Y-138462438D02*
X109595238Y-138510057D01*
X109595238Y-138510057D02*
X109642857Y-138605295D01*
X109642857Y-138605295D02*
X109642857Y-138700533D01*
X109642857Y-138700533D02*
X109595238Y-138843390D01*
X109595238Y-138843390D02*
X109023810Y-139414819D01*
X109023810Y-139414819D02*
X109642857Y-139414819D01*
D12*
%TO.C,LED1*%
X105440000Y-118455000D02*
X105440000Y-118920000D01*
X105440000Y-121080000D02*
X105440000Y-121545000D01*
X105440000Y-118455170D02*
G75*
G02*
X110788136Y-118920000I2560000J-1544830D01*
G01*
X105745316Y-118920000D02*
G75*
G02*
X110254684Y-118920000I2254684J-1080000D01*
G01*
X110254684Y-121080000D02*
G75*
G02*
X105745316Y-121080000I-2254684J1080000D01*
G01*
X110788136Y-121080000D02*
G75*
G02*
X105440000Y-121544830I-2788136J1080000D01*
G01*
%TO.C,J1*%
D11*
X112400000Y-69900000D02*
X103400000Y-69900000D01*
X103400000Y-59400000D01*
X112400000Y-59400000D01*
X112400000Y-69900000D01*
D12*
%TO.C,SW2*%
X104500000Y-81250000D02*
X104500000Y-82750000D01*
X105750000Y-85250000D02*
X110250000Y-85250000D01*
X110250000Y-78750000D02*
X105750000Y-78750000D01*
X111500000Y-82750000D02*
X111500000Y-81250000D01*
%TO.C,SW1*%
X104750000Y-103750000D02*
X104750000Y-108250000D01*
X107250000Y-109500000D02*
X108750000Y-109500000D01*
X108750000Y-102500000D02*
X107250000Y-102500000D01*
X111250000Y-108250000D02*
X111250000Y-103750000D01*
%TO.C,J2*%
D11*
X103500000Y-144000000D02*
X112500000Y-144000000D01*
X112500000Y-154500000D01*
X103500000Y-154500000D01*
X103500000Y-144000000D01*
D12*
%TO.C,LED2*%
X110560000Y-133920000D02*
X110560000Y-133455000D01*
X110560000Y-136545000D02*
X110560000Y-136080000D01*
X105211864Y-133920000D02*
G75*
G02*
X110560000Y-133455170I2788136J-1080000D01*
G01*
X105745316Y-133920000D02*
G75*
G02*
X110254684Y-133920000I2254684J-1080000D01*
G01*
X110254684Y-136080000D02*
G75*
G02*
X105745316Y-136080000I-2254684J1080000D01*
G01*
X110560000Y-136544830D02*
G75*
G02*
X105211864Y-136080000I-2560000J1544830D01*
G01*
%TD*%
M02*
