M48
; DRILL file {KiCad 9.0.6} date 2026-01-01T17:20:13-0600
; FORMAT={-:-/ absolute / inch / decimal}
; #@! TF.CreationDate,2026-01-01T17:20:13-06:00
; #@! TF.GenerationSoftware,Kicad,Pcbnew,9.0.6
; #@! TF.FileFunction,Plated,1,2,PTH
FMAT,2
INCH
; #@! TA.AperFunction,Plated,PTH,ViaDrill
T1C0.0118
; #@! TA.AperFunction,Plated,PTH,ViaDrill
T2C0.0160
; #@! TA.AperFunction,Plated,PTH,ViaDrill
T3C0.0200
; #@! TA.AperFunction,Plated,PTH,ComponentDrill
T4C0.0354
; #@! TA.AperFunction,Plated,PTH,ComponentDrill
T5C0.0394
; #@! TA.AperFunction,Plated,PTH,ComponentDrill
T6C0.0433
; #@! TA.AperFunction,Plated,PTH,ComponentDrill
T7C0.0591
%
G90
G05
T1
X3.9724Y-3.8307
X3.9724Y-4.3543
X4.0039Y-3.4213
X4.0118Y-2.8583
X4.0197Y-2.3228
X4.0197Y-2.4449
X4.0197Y-5.685
X4.0433Y-5.4213
X4.0512Y-3.2402
X4.0591Y-5.0472
X4.0787Y-6.1614
X4.1024Y-2.8189
X4.122Y-2.5472
X4.1299Y-3.9803
X4.1457Y-2.2638
X4.2283Y-4.378
X4.2795Y-2.8425
X4.2992Y-2.6102
X4.315Y-4.1811
X4.3268Y-2.9685
X4.3386Y-2.4213
X4.3465Y-5.8622
X4.3681Y-3.5925
X4.3701Y-3.4843
X4.4134Y-4.4764
X4.4134Y-5.2087
X4.4213Y-3.9016
X4.4449Y-5.0669
X4.4488Y-4.7323
X4.4528Y-3.9134
X4.4882Y-3.0551
X4.4882Y-5.7047
X4.5118Y-2.5551
X4.5315Y-3.2598
T2
X4.0079Y-3.748
X4.0591Y-3.7559
X4.3189Y-3.0551
X4.3898Y-3.685
X4.4843Y-3.6181
T3
X4.0157Y-2.5945
X4.0866Y-4.4055
X4.0906Y-4.6417
X4.252Y-3.6732
X4.2756Y-4.9213
X4.3346Y-3.3937
X4.4567Y-4.0236
X4.5157Y-2.2559
X4.5236Y-2.0984
T4
X4.177Y-4.7244
X4.177Y-5.315
X4.227Y-4.7244
X4.227Y-5.315
X4.277Y-4.7244
X4.277Y-5.315
X4.327Y-4.7244
X4.327Y-5.315
T5
X4.052Y-2.0457
X4.052Y-2.1457
X4.1211Y-3.8081
X4.1211Y-3.9081
X4.152Y-2.0457
X4.152Y-2.1457
X4.2211Y-3.8081
X4.2211Y-3.9081
X4.252Y-2.0457
X4.252Y-2.1457
X4.3211Y-3.8081
X4.3211Y-3.9081
X4.352Y-2.0457
X4.352Y-2.1457
X4.452Y-2.0457
X4.452Y-2.1457
T6
X4.124Y-3.1398
X4.124Y-3.3169
X4.1634Y-4.0453
X4.1634Y-4.3012
X4.3406Y-4.0453
X4.3406Y-4.3012
X4.3799Y-3.1398
X4.3799Y-3.3169
T7
X4.248Y-2.2606
X4.248Y-2.3827
X4.248Y-2.7094
X4.252Y-5.7118
X4.252Y-6.0386
X4.252Y-6.1606
M30
