%TF.GenerationSoftware,KiCad,Pcbnew,9.0.6*%
%TF.CreationDate,2026-01-01T17:20:02-06:00*%
%TF.ProjectId,gatekeeper,67617465-6b65-4657-9065-722e6b696361,rev?*%
%TF.SameCoordinates,Original*%
%TF.FileFunction,Soldermask,Top*%
%TF.FilePolarity,Negative*%
%FSLAX46Y46*%
G04 Gerber Fmt 4.6, Leading zero omitted, Abs format (unit mm)*
G04 Created by KiCad (PCBNEW 9.0.6) date 2026-01-01 17:20:02*
%MOMM*%
%LPD*%
G01*
G04 APERTURE LIST*
%ADD10R,1.070000X1.800000*%
%ADD11O,1.070000X1.800000*%
%ADD12C,1.000000*%
%ADD13C,2.540000*%
%ADD14C,2.000000*%
%ADD15R,1.700000X1.700000*%
%ADD16O,1.700000X1.700000*%
%ADD17C,1.700000*%
G04 APERTURE END LIST*
D10*
%TO.C,LED1*%
X106095000Y-120000000D03*
D11*
X107365000Y-120000000D03*
X108635000Y-120000000D03*
X109905000Y-120000000D03*
%TD*%
D12*
%TO.C,J1*%
X107900000Y-63900000D03*
D13*
X107900000Y-68820000D03*
X107900000Y-60520000D03*
X107900000Y-57420000D03*
%TD*%
D14*
%TO.C,SW2*%
X104750000Y-79750000D03*
X111250000Y-79750000D03*
X104750000Y-84250000D03*
X111250000Y-84250000D03*
%TD*%
%TO.C,SW1*%
X105750000Y-109250000D03*
X105750000Y-102750000D03*
X110250000Y-109250000D03*
X110250000Y-102750000D03*
%TD*%
D12*
%TO.C,J2*%
X108000000Y-150000000D03*
D13*
X108000000Y-145080000D03*
X108000000Y-153380000D03*
X108000000Y-156480000D03*
%TD*%
D10*
%TO.C,LED2*%
X109905000Y-135000000D03*
D11*
X108635000Y-135000000D03*
X107365000Y-135000000D03*
X106095000Y-135000000D03*
%TD*%
D15*
%TO.C,J4*%
X104675000Y-96725000D03*
D16*
X104675000Y-99265000D03*
X107215000Y-96725000D03*
X107215000Y-99265000D03*
X109755000Y-96725000D03*
X109755000Y-99265000D03*
%TD*%
D15*
%TO.C,J3*%
X102920000Y-51960000D03*
D17*
X102920000Y-54500000D03*
X105460000Y-51960000D03*
X105460000Y-54500000D03*
X108000000Y-51960000D03*
X108000000Y-54500000D03*
X110540000Y-51960000D03*
X110540000Y-54500000D03*
X113080000Y-51960000D03*
X113080000Y-54500000D03*
%TD*%
M02*
