%TF.GenerationSoftware,KiCad,Pcbnew,9.0.6*%
%TF.CreationDate,2026-01-01T17:20:02-06:00*%
%TF.ProjectId,gatekeeper,67617465-6b65-4657-9065-722e6b696361,rev?*%
%TF.SameCoordinates,Original*%
%TF.FileFunction,Paste,Bot*%
%TF.FilePolarity,Positive*%
%FSLAX46Y46*%
G04 Gerber Fmt 4.6, Leading zero omitted, Abs format (unit mm)*
G04 Created by KiCad (PCBNEW 9.0.6) date 2026-01-01 17:20:02*
%MOMM*%
%LPD*%
G01*
G04 APERTURE LIST*
G04 Aperture macros list*
%AMRoundRect*
0 Rectangle with rounded corners*
0 $1 Rounding radius*
0 $2 $3 $4 $5 $6 $7 $8 $9 X,Y pos of 4 corners*
0 Add a 4 corners polygon primitive as box body*
4,1,4,$2,$3,$4,$5,$6,$7,$8,$9,$2,$3,0*
0 Add four circle primitives for the rounded corners*
1,1,$1+$1,$2,$3*
1,1,$1+$1,$4,$5*
1,1,$1+$1,$6,$7*
1,1,$1+$1,$8,$9*
0 Add four rect primitives between the rounded corners*
20,1,$1+$1,$2,$3,$4,$5,0*
20,1,$1+$1,$4,$5,$6,$7,0*
20,1,$1+$1,$6,$7,$8,$9,0*
20,1,$1+$1,$8,$9,$2,$3,0*%
G04 Aperture macros list end*
%ADD10RoundRect,0.250000X0.350000X0.450000X-0.350000X0.450000X-0.350000X-0.450000X0.350000X-0.450000X0*%
%ADD11RoundRect,0.250000X0.450000X-0.350000X0.450000X0.350000X-0.450000X0.350000X-0.450000X-0.350000X0*%
%ADD12RoundRect,0.375000X0.625000X0.375000X-0.625000X0.375000X-0.625000X-0.375000X0.625000X-0.375000X0*%
%ADD13RoundRect,0.500000X0.500000X1.400000X-0.500000X1.400000X-0.500000X-1.400000X0.500000X-1.400000X0*%
%ADD14RoundRect,0.250000X0.475000X-0.337500X0.475000X0.337500X-0.475000X0.337500X-0.475000X-0.337500X0*%
%ADD15RoundRect,0.250000X-0.300000X0.300000X-0.300000X-0.300000X0.300000X-0.300000X0.300000X0.300000X0*%
%ADD16RoundRect,0.250000X-0.475000X0.337500X-0.475000X-0.337500X0.475000X-0.337500X0.475000X0.337500X0*%
%ADD17RoundRect,0.150000X0.587500X0.150000X-0.587500X0.150000X-0.587500X-0.150000X0.587500X-0.150000X0*%
%ADD18RoundRect,0.250000X-0.300000X-0.300000X0.300000X-0.300000X0.300000X0.300000X-0.300000X0.300000X0*%
%ADD19R,1.700000X0.650000*%
%ADD20RoundRect,0.250000X-0.350000X-0.450000X0.350000X-0.450000X0.350000X0.450000X-0.350000X0.450000X0*%
%ADD21RoundRect,0.218750X0.218750X0.381250X-0.218750X0.381250X-0.218750X-0.381250X0.218750X-0.381250X0*%
%ADD22RoundRect,0.250000X0.337500X0.475000X-0.337500X0.475000X-0.337500X-0.475000X0.337500X-0.475000X0*%
%ADD23RoundRect,0.250000X-0.337500X-0.475000X0.337500X-0.475000X0.337500X0.475000X-0.337500X0.475000X0*%
%ADD24RoundRect,0.250000X-0.450000X0.350000X-0.450000X-0.350000X0.450000X-0.350000X0.450000X0.350000X0*%
G04 APERTURE END LIST*
D10*
%TO.C,R7*%
X109000000Y-142200000D03*
X107000000Y-142200000D03*
%TD*%
D11*
%TO.C,R5*%
X113700000Y-85000000D03*
X113700000Y-83000000D03*
%TD*%
D12*
%TO.C,U1*%
X112150000Y-72000000D03*
X112150000Y-74300000D03*
D13*
X105850000Y-74300000D03*
D12*
X112150000Y-76600000D03*
%TD*%
D14*
%TO.C,C8*%
X113100000Y-97237500D03*
X113100000Y-95162500D03*
%TD*%
D15*
%TO.C,D3*%
X103100000Y-74700000D03*
X103100000Y-77500000D03*
%TD*%
D16*
%TO.C,C11*%
X112700000Y-107762500D03*
X112700000Y-109837500D03*
%TD*%
D10*
%TO.C,R3*%
X105100000Y-68800000D03*
X103100000Y-68800000D03*
%TD*%
D17*
%TO.C,Q1*%
X112900000Y-139700000D03*
X112900000Y-141600000D03*
X111025000Y-140650000D03*
%TD*%
D18*
%TO.C,D1*%
X111900000Y-62300000D03*
X114700000Y-62300000D03*
%TD*%
D19*
%TO.C,U2*%
X105350000Y-90905000D03*
X105350000Y-89635000D03*
X105350000Y-88365000D03*
X105350000Y-87095000D03*
X112650000Y-87095000D03*
X112650000Y-88365000D03*
X112650000Y-89635000D03*
X112650000Y-90905000D03*
%TD*%
D11*
%TO.C,R1*%
X101200000Y-93400000D03*
X101200000Y-91400000D03*
%TD*%
D14*
%TO.C,C12*%
X108000000Y-83137500D03*
X108000000Y-81062500D03*
%TD*%
%TO.C,C6*%
X114700000Y-75937500D03*
X114700000Y-73862500D03*
%TD*%
D16*
%TO.C,C7*%
X114700000Y-103862500D03*
X114700000Y-105937500D03*
%TD*%
D20*
%TO.C,R6*%
X107000000Y-139800000D03*
X109000000Y-139800000D03*
%TD*%
D11*
%TO.C,R8*%
X107400000Y-115900000D03*
X107400000Y-113900000D03*
%TD*%
D21*
%TO.C,FB1*%
X114862500Y-93100000D03*
X112737500Y-93100000D03*
%TD*%
D22*
%TO.C,C2*%
X103237500Y-88800000D03*
X101162500Y-88800000D03*
%TD*%
D23*
%TO.C,C1*%
X112662500Y-66700000D03*
X114737500Y-66700000D03*
%TD*%
D24*
%TO.C,R2*%
X103200000Y-91400000D03*
X103200000Y-93400000D03*
%TD*%
D22*
%TO.C,C4*%
X113000000Y-57500000D03*
X110925000Y-57500000D03*
%TD*%
D14*
%TO.C,C5*%
X114700000Y-71837500D03*
X114700000Y-69762500D03*
%TD*%
D16*
%TO.C,C9*%
X113700000Y-79062500D03*
X113700000Y-81137500D03*
%TD*%
D11*
%TO.C,R4*%
X112700000Y-105900000D03*
X112700000Y-103900000D03*
%TD*%
M02*
