%TF.GenerationSoftware,KiCad,Pcbnew,9.0.6*%
%TF.CreationDate,2026-01-01T17:20:02-06:00*%
%TF.ProjectId,gatekeeper,67617465-6b65-4657-9065-722e6b696361,rev?*%
%TF.SameCoordinates,Original*%
%TF.FileFunction,Copper,L2,Bot*%
%TF.FilePolarity,Positive*%
%FSLAX46Y46*%
G04 Gerber Fmt 4.6, Leading zero omitted, Abs format (unit mm)*
G04 Created by KiCad (PCBNEW 9.0.6) date 2026-01-01 17:20:02*
%MOMM*%
%LPD*%
G01*
G04 APERTURE LIST*
G04 Aperture macros list*
%AMRoundRect*
0 Rectangle with rounded corners*
0 $1 Rounding radius*
0 $2 $3 $4 $5 $6 $7 $8 $9 X,Y pos of 4 corners*
0 Add a 4 corners polygon primitive as box body*
4,1,4,$2,$3,$4,$5,$6,$7,$8,$9,$2,$3,0*
0 Add four circle primitives for the rounded corners*
1,1,$1+$1,$2,$3*
1,1,$1+$1,$4,$5*
1,1,$1+$1,$6,$7*
1,1,$1+$1,$8,$9*
0 Add four rect primitives between the rounded corners*
20,1,$1+$1,$2,$3,$4,$5,0*
20,1,$1+$1,$4,$5,$6,$7,0*
20,1,$1+$1,$6,$7,$8,$9,0*
20,1,$1+$1,$8,$9,$2,$3,0*%
G04 Aperture macros list end*
%TA.AperFunction,EtchedComponent*%
%ADD10C,0.000000*%
%TD*%
%TA.AperFunction,ComponentPad*%
%ADD11R,1.070000X1.800000*%
%TD*%
%TA.AperFunction,ComponentPad*%
%ADD12O,1.070000X1.800000*%
%TD*%
%TA.AperFunction,ComponentPad*%
%ADD13C,2.540000*%
%TD*%
%TA.AperFunction,ComponentPad*%
%ADD14C,2.000000*%
%TD*%
%TA.AperFunction,SMDPad,CuDef*%
%ADD15RoundRect,0.250000X0.350000X0.450000X-0.350000X0.450000X-0.350000X-0.450000X0.350000X-0.450000X0*%
%TD*%
%TA.AperFunction,SMDPad,CuDef*%
%ADD16RoundRect,0.250000X0.450000X-0.350000X0.450000X0.350000X-0.450000X0.350000X-0.450000X-0.350000X0*%
%TD*%
%TA.AperFunction,SMDPad,CuDef*%
%ADD17RoundRect,0.375000X0.625000X0.375000X-0.625000X0.375000X-0.625000X-0.375000X0.625000X-0.375000X0*%
%TD*%
%TA.AperFunction,SMDPad,CuDef*%
%ADD18RoundRect,0.500000X0.500000X1.400000X-0.500000X1.400000X-0.500000X-1.400000X0.500000X-1.400000X0*%
%TD*%
%TA.AperFunction,SMDPad,CuDef*%
%ADD19RoundRect,0.250000X0.475000X-0.337500X0.475000X0.337500X-0.475000X0.337500X-0.475000X-0.337500X0*%
%TD*%
%TA.AperFunction,SMDPad,CuDef*%
%ADD20RoundRect,0.250000X-0.300000X0.300000X-0.300000X-0.300000X0.300000X-0.300000X0.300000X0.300000X0*%
%TD*%
%TA.AperFunction,SMDPad,CuDef*%
%ADD21RoundRect,0.250000X-0.475000X0.337500X-0.475000X-0.337500X0.475000X-0.337500X0.475000X0.337500X0*%
%TD*%
%TA.AperFunction,SMDPad,CuDef*%
%ADD22RoundRect,0.150000X0.587500X0.150000X-0.587500X0.150000X-0.587500X-0.150000X0.587500X-0.150000X0*%
%TD*%
%TA.AperFunction,SMDPad,CuDef*%
%ADD23RoundRect,0.250000X-0.300000X-0.300000X0.300000X-0.300000X0.300000X0.300000X-0.300000X0.300000X0*%
%TD*%
%TA.AperFunction,SMDPad,CuDef*%
%ADD24R,1.700000X0.650000*%
%TD*%
%TA.AperFunction,SMDPad,CuDef*%
%ADD25RoundRect,0.250000X-0.350000X-0.450000X0.350000X-0.450000X0.350000X0.450000X-0.350000X0.450000X0*%
%TD*%
%TA.AperFunction,ComponentPad*%
%ADD26R,1.700000X1.700000*%
%TD*%
%TA.AperFunction,ComponentPad*%
%ADD27O,1.700000X1.700000*%
%TD*%
%TA.AperFunction,SMDPad,CuDef*%
%ADD28RoundRect,0.218750X0.218750X0.381250X-0.218750X0.381250X-0.218750X-0.381250X0.218750X-0.381250X0*%
%TD*%
%TA.AperFunction,ComponentPad*%
%ADD29C,1.700000*%
%TD*%
%TA.AperFunction,SMDPad,CuDef*%
%ADD30RoundRect,0.250000X0.337500X0.475000X-0.337500X0.475000X-0.337500X-0.475000X0.337500X-0.475000X0*%
%TD*%
%TA.AperFunction,SMDPad,CuDef*%
%ADD31RoundRect,0.250000X-0.337500X-0.475000X0.337500X-0.475000X0.337500X0.475000X-0.337500X0.475000X0*%
%TD*%
%TA.AperFunction,SMDPad,CuDef*%
%ADD32RoundRect,0.250000X-0.450000X0.350000X-0.450000X-0.350000X0.450000X-0.350000X0.450000X0.350000X0*%
%TD*%
%TA.AperFunction,ViaPad*%
%ADD33C,0.600000*%
%TD*%
%TA.AperFunction,ViaPad*%
%ADD34C,0.812800*%
%TD*%
%TA.AperFunction,ViaPad*%
%ADD35C,1.016000*%
%TD*%
%TA.AperFunction,Conductor*%
%ADD36C,0.406400*%
%TD*%
%TA.AperFunction,Conductor*%
%ADD37C,0.508000*%
%TD*%
G04 APERTURE END LIST*
D10*
%TA.AperFunction,EtchedComponent*%
%TO.C,REF\u002A\u002A*%
G36*
X115241667Y-155635834D02*
G01*
X115241667Y-155424167D01*
X115453333Y-155424167D01*
X115241667Y-155635834D01*
G37*
%TD.AperFunction*%
%TA.AperFunction,EtchedComponent*%
G36*
X113442500Y-155424167D02*
G01*
X113336667Y-155424167D01*
X113336667Y-155318333D01*
X113442500Y-155424167D01*
G37*
%TD.AperFunction*%
%TA.AperFunction,EtchedComponent*%
G36*
X115453333Y-155424167D02*
G01*
X115241667Y-155424167D01*
X115241667Y-155000833D01*
X115453333Y-155000833D01*
X115453333Y-155424167D01*
G37*
%TD.AperFunction*%
%TA.AperFunction,EtchedComponent*%
G36*
X114818333Y-155424167D02*
G01*
X114606667Y-155635834D01*
X114606667Y-155212500D01*
X114818333Y-155212500D01*
X114818333Y-155424167D01*
G37*
%TD.AperFunction*%
%TA.AperFunction,EtchedComponent*%
G36*
X114606667Y-155635834D02*
G01*
X114395000Y-155635834D01*
X114395000Y-155424167D01*
X114606667Y-155212500D01*
X114606667Y-155635834D01*
G37*
%TD.AperFunction*%
%TA.AperFunction,EtchedComponent*%
G36*
X114395000Y-155635834D02*
G01*
X113336667Y-155635834D01*
X113336667Y-155424167D01*
X114395000Y-155424167D01*
X114395000Y-155635834D01*
G37*
%TD.AperFunction*%
%TA.AperFunction,EtchedComponent*%
G36*
X112490000Y-153095834D02*
G01*
X112490000Y-153307500D01*
X112278334Y-153307500D01*
X112278334Y-152884167D01*
X112490000Y-153095834D01*
G37*
%TD.AperFunction*%
%TA.AperFunction,EtchedComponent*%
G36*
X112490000Y-153942500D02*
G01*
X112066667Y-153942500D01*
X112066667Y-153730833D01*
X112490000Y-153730833D01*
X112490000Y-153942500D01*
G37*
%TD.AperFunction*%
%TA.AperFunction,EtchedComponent*%
G36*
X112278334Y-153095834D02*
G01*
X111855000Y-153095834D01*
X111855000Y-152884167D01*
X112278334Y-152884167D01*
X112278334Y-153095834D01*
G37*
%TD.AperFunction*%
%TA.AperFunction,EtchedComponent*%
G36*
X112490000Y-153519167D02*
G01*
X111855000Y-153519167D01*
X111855000Y-153307500D01*
X112490000Y-153307500D01*
X112490000Y-153519167D01*
G37*
%TD.AperFunction*%
%TA.AperFunction,EtchedComponent*%
G36*
X112066667Y-153942500D02*
G01*
X111855000Y-153730833D01*
X111855000Y-153519167D01*
X112066667Y-153519167D01*
X112066667Y-153942500D01*
G37*
%TD.AperFunction*%
%TA.AperFunction,EtchedComponent*%
G36*
X111643333Y-153730833D02*
G01*
X111431667Y-153730833D01*
X111431667Y-152884167D01*
X111643333Y-152884167D01*
X111643333Y-153730833D01*
G37*
%TD.AperFunction*%
%TA.AperFunction,EtchedComponent*%
G36*
X111431667Y-153519167D02*
G01*
X111220000Y-153519167D01*
X111220000Y-153307500D01*
X111431667Y-153307500D01*
X111431667Y-153519167D01*
G37*
%TD.AperFunction*%
%TA.AperFunction,EtchedComponent*%
G36*
X111643333Y-153942500D02*
G01*
X111220000Y-153942500D01*
X111008334Y-153730833D01*
X111643333Y-153730833D01*
X111643333Y-153942500D01*
G37*
%TD.AperFunction*%
%TA.AperFunction,EtchedComponent*%
G36*
X111220000Y-153730833D02*
G01*
X111008334Y-153730833D01*
X111008334Y-153307500D01*
X111220000Y-153307500D01*
X111220000Y-153730833D01*
G37*
%TD.AperFunction*%
%TA.AperFunction,EtchedComponent*%
G36*
X110585000Y-153942500D02*
G01*
X110373334Y-153942500D01*
X110373334Y-153730833D01*
X110585000Y-153730833D01*
X110585000Y-153942500D01*
G37*
%TD.AperFunction*%
%TA.AperFunction,EtchedComponent*%
G36*
X115241667Y-155635834D02*
G01*
X115030000Y-155635834D01*
X115030000Y-155477083D01*
X115082917Y-155424167D01*
X115241667Y-155424167D01*
X115241667Y-155635834D01*
G37*
%TD.AperFunction*%
%TA.AperFunction,EtchedComponent*%
G36*
X115030000Y-155371250D02*
G01*
X115030000Y-155424167D01*
X114818333Y-155424167D01*
X114818333Y-155212500D01*
X115030000Y-155212500D01*
X115030000Y-155371250D01*
G37*
%TD.AperFunction*%
%TA.AperFunction,EtchedComponent*%
G36*
X110796667Y-153942500D02*
G01*
X110585000Y-153942500D01*
X110585000Y-153730833D01*
X110585000Y-153519167D01*
X110585000Y-152884167D01*
X110796667Y-152884167D01*
X110796667Y-153942500D01*
G37*
%TD.AperFunction*%
%TA.AperFunction,EtchedComponent*%
G36*
X115453333Y-153730833D02*
G01*
X115453333Y-153942500D01*
X115241667Y-153942500D01*
X115241667Y-153730833D01*
X115030000Y-153730833D01*
X115030000Y-153519167D01*
X115241667Y-153519167D01*
X115453333Y-153730833D01*
G37*
%TD.AperFunction*%
%TA.AperFunction,EtchedComponent*%
G36*
X114818333Y-153519167D02*
G01*
X114606667Y-153519167D01*
X114606667Y-153730833D01*
X113760000Y-153730833D01*
X113760000Y-153095834D01*
X113892292Y-153095834D01*
X113971667Y-153175208D01*
X113971667Y-153307500D01*
X114183333Y-153307500D01*
X114183333Y-153095834D01*
X114051042Y-153095834D01*
X113971667Y-153016459D01*
X113971667Y-152884167D01*
X114818333Y-152884167D01*
X114818333Y-153519167D01*
G37*
%TD.AperFunction*%
%TD*%
D11*
%TO.P,LED1,1,DIN*%
%TO.N,Net-(LED1-DIN)*%
X106095000Y-120000000D03*
D12*
%TO.P,LED1,2,VDD*%
%TO.N,+5V*%
X107365000Y-120000000D03*
%TO.P,LED1,3,VSS*%
%TO.N,GND*%
X108635000Y-120000000D03*
%TO.P,LED1,4,DOUT*%
%TO.N,/NEOPXLD_LED2*%
X109905000Y-120000000D03*
%TD*%
D13*
%TO.P,J1,1,TIP*%
%TO.N,Net-(J1-TIP)*%
X107900000Y-68820000D03*
%TO.P,J1,2,NC*%
%TO.N,GND*%
X107900000Y-60520000D03*
%TO.P,J1,3,SLV*%
X107900000Y-57420000D03*
%TD*%
D14*
%TO.P,SW2,1,1*%
%TO.N,GND*%
X104750000Y-79750000D03*
X111250000Y-79750000D03*
%TO.P,SW2,2,2*%
%TO.N,/PB4_BTNB*%
X104750000Y-84250000D03*
X111250000Y-84250000D03*
%TD*%
%TO.P,SW1,1,1*%
%TO.N,GND*%
X105750000Y-109250000D03*
X105750000Y-102750000D03*
%TO.P,SW1,2,2*%
%TO.N,/PB2_SPI_SCK_BTNA*%
X110250000Y-109250000D03*
X110250000Y-102750000D03*
%TD*%
D13*
%TO.P,J2,1,TIP*%
%TO.N,Net-(J2-TIP)*%
X108000000Y-145080000D03*
%TO.P,J2,2,NC*%
%TO.N,GND*%
X108000000Y-153380000D03*
%TO.P,J2,3,SLV*%
X108000000Y-156480000D03*
%TD*%
D11*
%TO.P,LED2,1,DIN*%
%TO.N,/NEOPXLD_LED2*%
X109905000Y-135000000D03*
D12*
%TO.P,LED2,2,VDD*%
%TO.N,+5V*%
X108635000Y-135000000D03*
%TO.P,LED2,3,VSS*%
%TO.N,GND*%
X107365000Y-135000000D03*
%TO.P,LED2,4,DOUT*%
%TO.N,unconnected-(LED2-DOUT-Pad4)*%
X106095000Y-135000000D03*
%TD*%
D15*
%TO.P,R7,1*%
%TO.N,Net-(Q1-E)*%
X109000000Y-142200000D03*
%TO.P,R7,2*%
%TO.N,Net-(J2-TIP)*%
X107000000Y-142200000D03*
%TD*%
D16*
%TO.P,R5,1*%
%TO.N,/PB4_BTNB*%
X113700000Y-85000000D03*
%TO.P,R5,2*%
%TO.N,+5V*%
X113700000Y-83000000D03*
%TD*%
D17*
%TO.P,U1,1,VI*%
%TO.N,+12V*%
X112150000Y-72000000D03*
%TO.P,U1,2,GND*%
%TO.N,GND*%
X112150000Y-74300000D03*
D18*
X105850000Y-74300000D03*
D17*
%TO.P,U1,3,VO*%
%TO.N,+5V*%
X112150000Y-76600000D03*
%TD*%
D19*
%TO.P,C8,1*%
%TO.N,GND*%
X113100000Y-97237500D03*
%TO.P,C8,2*%
%TO.N,Net-(U2-VCC)*%
X113100000Y-95162500D03*
%TD*%
D20*
%TO.P,D3,1,K*%
%TO.N,/PB3_CV_IN*%
X103100000Y-74700000D03*
%TO.P,D3,2,A*%
%TO.N,+5V*%
X103100000Y-77500000D03*
%TD*%
D21*
%TO.P,C11,1*%
%TO.N,/PB2_SPI_SCK_BTNA*%
X112700000Y-107762500D03*
%TO.P,C11,2*%
%TO.N,GND*%
X112700000Y-109837500D03*
%TD*%
D15*
%TO.P,R3,1*%
%TO.N,Net-(J1-TIP)*%
X105100000Y-68800000D03*
%TO.P,R3,2*%
%TO.N,/PB3_CV_IN*%
X103100000Y-68800000D03*
%TD*%
D22*
%TO.P,Q1,1,B*%
%TO.N,/PB1_SPI_MISO_GATEOUT*%
X112900000Y-139700000D03*
%TO.P,Q1,2,E*%
%TO.N,Net-(Q1-E)*%
X112900000Y-141600000D03*
%TO.P,Q1,3,C*%
%TO.N,Net-(Q1-C)*%
X111025000Y-140650000D03*
%TD*%
D23*
%TO.P,D1,1,K*%
%TO.N,+12V*%
X111900000Y-62300000D03*
%TO.P,D1,2,A*%
%TO.N,/+12V_RAW*%
X114700000Y-62300000D03*
%TD*%
D24*
%TO.P,U2,1,~{RESET}/PB5*%
%TO.N,/ATTINY_RESET*%
X105350000Y-90905000D03*
%TO.P,U2,2,XTAL1/PB3*%
%TO.N,/PB3_CV_IN*%
X105350000Y-89635000D03*
%TO.P,U2,3,XTAL2/PB4*%
%TO.N,/PB4_BTNB*%
X105350000Y-88365000D03*
%TO.P,U2,4,GND*%
%TO.N,GND*%
X105350000Y-87095000D03*
%TO.P,U2,5,AREF/PB0*%
%TO.N,/PB0_SPI_MOSI_NEOPXLD*%
X112650000Y-87095000D03*
%TO.P,U2,6,PB1*%
%TO.N,/PB1_SPI_MISO_GATEOUT*%
X112650000Y-88365000D03*
%TO.P,U2,7,PB2*%
%TO.N,/PB2_SPI_SCK_BTNA*%
X112650000Y-89635000D03*
%TO.P,U2,8,VCC*%
%TO.N,Net-(U2-VCC)*%
X112650000Y-90905000D03*
%TD*%
D16*
%TO.P,R1,1*%
%TO.N,+5V*%
X101200000Y-93400000D03*
%TO.P,R1,2*%
%TO.N,/ATTINY_RESET*%
X101200000Y-91400000D03*
%TD*%
D19*
%TO.P,C12,1*%
%TO.N,/PB4_BTNB*%
X108000000Y-83137500D03*
%TO.P,C12,2*%
%TO.N,GND*%
X108000000Y-81062500D03*
%TD*%
%TO.P,C6,1*%
%TO.N,+5V*%
X114700000Y-75937500D03*
%TO.P,C6,2*%
%TO.N,GND*%
X114700000Y-73862500D03*
%TD*%
D21*
%TO.P,C7,1*%
%TO.N,+5V*%
X114700000Y-103862500D03*
%TO.P,C7,2*%
%TO.N,GND*%
X114700000Y-105937500D03*
%TD*%
D25*
%TO.P,R6,1*%
%TO.N,+5V*%
X107000000Y-139800000D03*
%TO.P,R6,2*%
%TO.N,Net-(Q1-C)*%
X109000000Y-139800000D03*
%TD*%
D26*
%TO.P,J4,1,Pin_1*%
%TO.N,/PB1_SPI_MISO_GATEOUT*%
X104675000Y-96725000D03*
D27*
%TO.P,J4,2,Pin_2*%
%TO.N,+5V*%
X104675000Y-99265000D03*
%TO.P,J4,3,Pin_3*%
%TO.N,/PB2_SPI_SCK_BTNA*%
X107215000Y-96725000D03*
%TO.P,J4,4,Pin_4*%
%TO.N,/PB0_SPI_MOSI_NEOPXLD*%
X107215000Y-99265000D03*
%TO.P,J4,5,Pin_5*%
%TO.N,Net-(J4-Pin_5)*%
X109755000Y-96725000D03*
%TO.P,J4,6,Pin_6*%
%TO.N,GND*%
X109755000Y-99265000D03*
%TD*%
D16*
%TO.P,R8,1*%
%TO.N,Net-(LED1-DIN)*%
X107400000Y-115900000D03*
%TO.P,R8,2*%
%TO.N,/PB0_SPI_MOSI_NEOPXLD*%
X107400000Y-113900000D03*
%TD*%
D28*
%TO.P,FB1,1*%
%TO.N,+5V*%
X114862500Y-93100000D03*
%TO.P,FB1,2*%
%TO.N,Net-(U2-VCC)*%
X112737500Y-93100000D03*
%TD*%
D26*
%TO.P,J3,1,Pin_1*%
%TO.N,unconnected-(J3-Pin_1-Pad1)*%
X102920000Y-51960000D03*
D29*
%TO.P,J3,2,Pin_2*%
%TO.N,unconnected-(J3-Pin_2-Pad2)*%
X102920000Y-54500000D03*
%TO.P,J3,3,Pin_3*%
%TO.N,GND*%
X105460000Y-51960000D03*
%TO.P,J3,4,Pin_4*%
X105460000Y-54500000D03*
%TO.P,J3,5,Pin_5*%
X108000000Y-51960000D03*
%TO.P,J3,6,Pin_6*%
X108000000Y-54500000D03*
%TO.P,J3,7,Pin_7*%
X110540000Y-51960000D03*
%TO.P,J3,8,Pin_8*%
X110540000Y-54500000D03*
%TO.P,J3,9,Pin_9*%
%TO.N,/+12V_RAW*%
X113080000Y-51960000D03*
%TO.P,J3,10,Pin_10*%
X113080000Y-54500000D03*
%TD*%
D30*
%TO.P,C2,1*%
%TO.N,/PB3_CV_IN*%
X103237500Y-88800000D03*
%TO.P,C2,2*%
%TO.N,GND*%
X101162500Y-88800000D03*
%TD*%
D31*
%TO.P,C1,1*%
%TO.N,+12V*%
X112662500Y-66700000D03*
%TO.P,C1,2*%
%TO.N,GND*%
X114737500Y-66700000D03*
%TD*%
D32*
%TO.P,R2,1*%
%TO.N,/ATTINY_RESET*%
X103200000Y-91400000D03*
%TO.P,R2,2*%
%TO.N,Net-(J4-Pin_5)*%
X103200000Y-93400000D03*
%TD*%
D30*
%TO.P,C4,1*%
%TO.N,/+12V_RAW*%
X113000000Y-57500000D03*
%TO.P,C4,2*%
%TO.N,GND*%
X110925000Y-57500000D03*
%TD*%
D19*
%TO.P,C5,1*%
%TO.N,+12V*%
X114700000Y-71837500D03*
%TO.P,C5,2*%
%TO.N,GND*%
X114700000Y-69762500D03*
%TD*%
D21*
%TO.P,C9,1*%
%TO.N,GND*%
X113700000Y-79062500D03*
%TO.P,C9,2*%
%TO.N,+5V*%
X113700000Y-81137500D03*
%TD*%
D16*
%TO.P,R4,1*%
%TO.N,/PB2_SPI_SCK_BTNA*%
X112700000Y-105900000D03*
%TO.P,R4,2*%
%TO.N,+5V*%
X112700000Y-103900000D03*
%TD*%
D33*
%TO.N,GND*%
X100900000Y-110600000D03*
X100900000Y-97300000D03*
X109900000Y-75400000D03*
D34*
X111500000Y-93600000D03*
D35*
X114900000Y-53300000D03*
D33*
X109200000Y-66300000D03*
X112300000Y-99100000D03*
D34*
X113900000Y-91900000D03*
D33*
X114600000Y-64900000D03*
X102100000Y-62100000D03*
X110200000Y-61500000D03*
X108700000Y-72200000D03*
X102100000Y-59000000D03*
D35*
X108000000Y-93300000D03*
X103800000Y-111900000D03*
D33*
X105300000Y-57500000D03*
X101900000Y-72600000D03*
X115100000Y-82800000D03*
X110400000Y-148900000D03*
X112100000Y-113700000D03*
D35*
X102000000Y-65900000D03*
X110100000Y-86200000D03*
X103900000Y-117900000D03*
X108600000Y-125000000D03*
D33*
X109600000Y-106200000D03*
X103100000Y-128200000D03*
X101700000Y-86900000D03*
D35*
X114700000Y-57300000D03*
D33*
X112900000Y-128700000D03*
D35*
X113200000Y-102200000D03*
D33*
X102900000Y-82300000D03*
X114000000Y-144900000D03*
X104900000Y-101100000D03*
X114000000Y-77600000D03*
X104200000Y-71600000D03*
D34*
X103100000Y-95400000D03*
D33*
X102700000Y-137700000D03*
X102100000Y-144400000D03*
X104700000Y-64700000D03*
X113000000Y-120200000D03*
X103600000Y-156500000D03*
D34*
%TO.N,+5V*%
X109700000Y-77600000D03*
X101800000Y-95200000D03*
D33*
%TO.N,/PB2_SPI_SCK_BTNA*%
X113100000Y-99400000D03*
X110950000Y-91250000D03*
%TO.N,/PB0_SPI_MOSI_NEOPXLD*%
X107400000Y-111200000D03*
%TO.N,/PB1_SPI_MISO_GATEOUT*%
X111000000Y-88500000D03*
X112100000Y-132300000D03*
%TD*%
D36*
%TO.N,+5V*%
X104610000Y-99200000D02*
X104675000Y-99265000D01*
X101800000Y-97600000D02*
X103400000Y-99200000D01*
X103400000Y-99200000D02*
X104610000Y-99200000D01*
X101800000Y-95200000D02*
X101800000Y-97600000D01*
X101100000Y-94700000D02*
X101100000Y-93400000D01*
X101600000Y-95200000D02*
X101100000Y-94700000D01*
X101800000Y-95200000D02*
X101600000Y-95200000D01*
X115295800Y-76533300D02*
X115295800Y-80595800D01*
X114037500Y-76600000D02*
X114700000Y-75937500D01*
X107365000Y-130065000D02*
X108635000Y-131335000D01*
X115295800Y-80595800D02*
X114754100Y-81137500D01*
X108100000Y-109900000D02*
X108100000Y-108300000D01*
X114900000Y-93600000D02*
X114862500Y-93562500D01*
X115200000Y-84500000D02*
X115200000Y-87200000D01*
X108635000Y-136565000D02*
X107000000Y-138200000D01*
X112700000Y-103900000D02*
X114662500Y-103900000D01*
X108100000Y-108300000D02*
X103500000Y-103700000D01*
X113700000Y-83000000D02*
X115200000Y-84500000D01*
X103500000Y-103700000D02*
X103500000Y-100440000D01*
X114700000Y-103562500D02*
X114900000Y-103362500D01*
X114900000Y-93062500D02*
X114862500Y-93100000D01*
X112150000Y-76600000D02*
X114037500Y-76600000D01*
X109700000Y-77600000D02*
X110700000Y-76600000D01*
X107365000Y-120000000D02*
X107365000Y-130065000D01*
X107365000Y-118935000D02*
X109600000Y-116700000D01*
X108100000Y-76600000D02*
X112150000Y-76600000D01*
X108635000Y-131335000D02*
X108635000Y-135000000D01*
X114700000Y-103862500D02*
X114700000Y-103562500D01*
X103100000Y-77500000D02*
X107200000Y-77500000D01*
X107365000Y-120000000D02*
X107365000Y-118935000D01*
X110700000Y-76600000D02*
X112150000Y-76600000D01*
X114900000Y-103362500D02*
X114900000Y-93600000D01*
X113700000Y-81137500D02*
X113700000Y-83000000D01*
X109600000Y-116700000D02*
X109600000Y-111400000D01*
X108635000Y-135000000D02*
X108635000Y-136565000D01*
X114754100Y-81137500D02*
X113700000Y-81137500D01*
X114700000Y-75937500D02*
X115295800Y-76533300D01*
X114662500Y-103900000D02*
X114700000Y-103862500D01*
X103500000Y-100440000D02*
X104675000Y-99265000D01*
X114862500Y-93562500D02*
X114862500Y-93100000D01*
X107200000Y-77500000D02*
X108100000Y-76600000D01*
X114900000Y-87500000D02*
X114900000Y-93062500D01*
X109600000Y-111400000D02*
X108100000Y-109900000D01*
X115200000Y-87200000D02*
X114900000Y-87500000D01*
X107000000Y-138200000D02*
X107000000Y-139800000D01*
%TO.N,/ATTINY_RESET*%
X103695000Y-90905000D02*
X103200000Y-91400000D01*
X105350000Y-90905000D02*
X103695000Y-90905000D01*
X101100000Y-91400000D02*
X103200000Y-91400000D01*
D37*
%TO.N,+12V*%
X112150000Y-69250000D02*
X112150000Y-72000000D01*
X112150000Y-72000000D02*
X114537500Y-72000000D01*
X111900000Y-65937500D02*
X112662500Y-66700000D01*
X112662500Y-66700000D02*
X112662500Y-68737500D01*
X112662500Y-68737500D02*
X112150000Y-69250000D01*
X114537500Y-72000000D02*
X114700000Y-71837500D01*
X111900000Y-62300000D02*
X111900000Y-65937500D01*
D36*
%TO.N,/PB3_CV_IN*%
X103100000Y-68800000D02*
X103100000Y-74700000D01*
X101500000Y-84900000D02*
X103237500Y-86637500D01*
X101500000Y-76300000D02*
X101500000Y-84900000D01*
X105350000Y-89635000D02*
X104072500Y-89635000D01*
X104072500Y-89635000D02*
X103237500Y-88800000D01*
X103100000Y-74700000D02*
X101500000Y-76300000D01*
X103237500Y-86637500D02*
X103237500Y-88800000D01*
%TO.N,Net-(U2-VCC)*%
X112737500Y-93100000D02*
X112737500Y-90992500D01*
X112737500Y-90992500D02*
X112650000Y-90905000D01*
X112737500Y-94800000D02*
X113100000Y-95162500D01*
X112737500Y-93100000D02*
X112737500Y-94800000D01*
%TO.N,/PB2_SPI_SCK_BTNA*%
X110950000Y-91250000D02*
X110900000Y-91200000D01*
X110250000Y-104150000D02*
X112000000Y-105900000D01*
X110900000Y-90200000D02*
X111465000Y-89635000D01*
X112700000Y-105900000D02*
X112700000Y-107462500D01*
X113100000Y-100400000D02*
X110750000Y-102750000D01*
X112700000Y-107462500D02*
X110912500Y-109250000D01*
X110250000Y-102750000D02*
X110250000Y-104150000D01*
X110900000Y-91200000D02*
X110900000Y-90200000D01*
X113100000Y-99400000D02*
X113100000Y-100400000D01*
X110750000Y-102750000D02*
X110250000Y-102750000D01*
X112000000Y-105900000D02*
X112700000Y-105900000D01*
X110912500Y-109250000D02*
X110250000Y-109250000D01*
X111465000Y-89635000D02*
X112650000Y-89635000D01*
D37*
%TO.N,/+12V_RAW*%
X113080000Y-57420000D02*
X113000000Y-57500000D01*
X114700000Y-59200000D02*
X114700000Y-62300000D01*
X113080000Y-54500000D02*
X113080000Y-57420000D01*
X113080000Y-51960000D02*
X113080000Y-54500000D01*
X113000000Y-57500000D02*
X114700000Y-59200000D01*
D36*
%TO.N,Net-(J4-Pin_5)*%
X109755000Y-96555000D02*
X107800000Y-94600000D01*
X107800000Y-94600000D02*
X104700000Y-94600000D01*
X103500000Y-93400000D02*
X103200000Y-93400000D01*
X109755000Y-96725000D02*
X109755000Y-96555000D01*
X104700000Y-94600000D02*
X103500000Y-93400000D01*
%TO.N,/PB4_BTNB*%
X105862500Y-83137500D02*
X104750000Y-84250000D01*
X108000000Y-83137500D02*
X105862500Y-83137500D01*
X108000000Y-87300000D02*
X108000000Y-83137500D01*
X110137500Y-83137500D02*
X111250000Y-84250000D01*
X108000000Y-83137500D02*
X110137500Y-83137500D01*
X113700000Y-85000000D02*
X112000000Y-85000000D01*
X105350000Y-88365000D02*
X106935000Y-88365000D01*
X112000000Y-85000000D02*
X111250000Y-84250000D01*
X106935000Y-88365000D02*
X108000000Y-87300000D01*
%TO.N,Net-(J1-TIP)*%
X105120000Y-68820000D02*
X105100000Y-68800000D01*
X107900000Y-68820000D02*
X105120000Y-68820000D01*
%TO.N,Net-(J2-TIP)*%
X107980000Y-145080000D02*
X107000000Y-144100000D01*
X107000000Y-144100000D02*
X107000000Y-142200000D01*
X108000000Y-145080000D02*
X107980000Y-145080000D01*
%TO.N,/PB0_SPI_MOSI_NEOPXLD*%
X110700000Y-100800000D02*
X111400000Y-100100000D01*
X109700000Y-93200000D02*
X109700000Y-88100000D01*
X111400000Y-94900000D02*
X109700000Y-93200000D01*
X108750000Y-100800000D02*
X110700000Y-100800000D01*
X110705000Y-87095000D02*
X112650000Y-87095000D01*
X107400000Y-113900000D02*
X107400000Y-111200000D01*
X109700000Y-88100000D02*
X110705000Y-87095000D01*
X107215000Y-99265000D02*
X108750000Y-100800000D01*
X111400000Y-100100000D02*
X111400000Y-94900000D01*
%TO.N,/PB1_SPI_MISO_GATEOUT*%
X111235000Y-88365000D02*
X111200000Y-88400000D01*
X112900000Y-139700000D02*
X112900000Y-133100000D01*
X111100000Y-88400000D02*
X111000000Y-88500000D01*
X112650000Y-88365000D02*
X111235000Y-88365000D01*
X111200000Y-88400000D02*
X111100000Y-88400000D01*
X112900000Y-133100000D02*
X112100000Y-132300000D01*
%TO.N,Net-(Q1-C)*%
X111025000Y-140650000D02*
X110175000Y-139800000D01*
X110175000Y-139800000D02*
X109000000Y-139800000D01*
%TO.N,Net-(Q1-E)*%
X112300000Y-142200000D02*
X112900000Y-141600000D01*
X109000000Y-142200000D02*
X112300000Y-142200000D01*
%TO.N,/NEOPXLD_LED2*%
X109905000Y-120000000D02*
X109905000Y-135000000D01*
%TO.N,Net-(LED1-DIN)*%
X106095000Y-117205000D02*
X107400000Y-115900000D01*
X106095000Y-120000000D02*
X106095000Y-117205000D01*
%TD*%
%TA.AperFunction,Conductor*%
%TO.N,GND*%
G36*
X115442539Y-156019685D02*
G01*
X115488294Y-156072489D01*
X115499500Y-156124000D01*
X115499500Y-159375500D01*
X115479815Y-159442539D01*
X115427011Y-159488294D01*
X115375500Y-159499500D01*
X109700000Y-159499500D01*
X109700000Y-156000000D01*
X110000000Y-156000000D01*
X115375500Y-156000000D01*
X115442539Y-156019685D01*
G37*
%TD.AperFunction*%
%TD*%
%TA.AperFunction,Conductor*%
%TO.N,GND*%
G36*
X106657214Y-152557142D02*
G01*
X106545025Y-152777326D01*
X106468657Y-153012360D01*
X106430000Y-153256432D01*
X106430000Y-153503567D01*
X106468657Y-153747639D01*
X106545025Y-153982673D01*
X106657217Y-154202863D01*
X106727224Y-154299219D01*
X106727225Y-154299220D01*
X107322421Y-153704024D01*
X107335359Y-153735258D01*
X107417437Y-153858097D01*
X107521903Y-153962563D01*
X107644742Y-154044641D01*
X107675974Y-154057577D01*
X107080778Y-154652773D01*
X107080779Y-154652775D01*
X107177137Y-154722782D01*
X107366984Y-154819515D01*
X107417780Y-154867490D01*
X107434575Y-154935311D01*
X107412038Y-155001446D01*
X107366984Y-155040485D01*
X107177142Y-155137214D01*
X107080779Y-155207225D01*
X107675975Y-155802421D01*
X107644742Y-155815359D01*
X107521903Y-155897437D01*
X107417437Y-156001903D01*
X107335359Y-156124742D01*
X107322421Y-156155975D01*
X106727225Y-155560779D01*
X106657214Y-155657142D01*
X106545025Y-155877326D01*
X106468657Y-156112360D01*
X106430000Y-156356432D01*
X106430000Y-156603567D01*
X106468657Y-156847639D01*
X106545025Y-157082673D01*
X106657217Y-157302863D01*
X106727224Y-157399219D01*
X106727225Y-157399220D01*
X107322421Y-156804024D01*
X107335359Y-156835258D01*
X107417437Y-156958097D01*
X107521903Y-157062563D01*
X107644742Y-157144641D01*
X107675974Y-157157577D01*
X107080778Y-157752773D01*
X107080779Y-157752775D01*
X107177137Y-157822782D01*
X107397326Y-157934974D01*
X107632360Y-158011342D01*
X107876433Y-158050000D01*
X108123567Y-158050000D01*
X108367639Y-158011342D01*
X108602673Y-157934974D01*
X108822859Y-157822784D01*
X108919219Y-157752773D01*
X108919220Y-157752772D01*
X108324025Y-157157577D01*
X108355258Y-157144641D01*
X108478097Y-157062563D01*
X108582563Y-156958097D01*
X108664641Y-156835258D01*
X108677578Y-156804025D01*
X109272772Y-157399220D01*
X109272773Y-157399219D01*
X109342784Y-157302859D01*
X109454974Y-157082673D01*
X109531342Y-156847639D01*
X109570000Y-156603567D01*
X109570000Y-156356432D01*
X109531342Y-156112360D01*
X109454974Y-155877326D01*
X109342782Y-155657137D01*
X109272775Y-155560779D01*
X109272773Y-155560778D01*
X108677577Y-156155973D01*
X108664641Y-156124742D01*
X108582563Y-156001903D01*
X108478097Y-155897437D01*
X108355258Y-155815359D01*
X108324024Y-155802421D01*
X108919220Y-155207225D01*
X108919219Y-155207224D01*
X108822863Y-155137217D01*
X108633015Y-155040485D01*
X108582219Y-154992511D01*
X108565424Y-154924690D01*
X108587961Y-154858555D01*
X108633015Y-154819515D01*
X108822859Y-154722784D01*
X108919219Y-154652773D01*
X108919220Y-154652772D01*
X108324025Y-154057577D01*
X108355258Y-154044641D01*
X108478097Y-153962563D01*
X108582563Y-153858097D01*
X108664641Y-153735258D01*
X108677578Y-153704025D01*
X109272772Y-154299220D01*
X109272773Y-154299219D01*
X109342784Y-154202859D01*
X109454974Y-153982673D01*
X109531342Y-153747639D01*
X109570000Y-153503567D01*
X109570000Y-153256432D01*
X109531342Y-153012360D01*
X109454974Y-152777326D01*
X109342782Y-152557137D01*
X109301270Y-152500000D01*
X110000000Y-152500000D01*
X110000000Y-156000000D01*
X109700000Y-156000000D01*
X109700000Y-159499500D01*
X100624500Y-159499500D01*
X100557461Y-159479815D01*
X100511706Y-159427011D01*
X100500500Y-159375500D01*
X100500500Y-152500000D01*
X106698730Y-152500000D01*
X106657214Y-152557142D01*
G37*
%TD.AperFunction*%
%TA.AperFunction,Conductor*%
G36*
X107675975Y-152702421D02*
G01*
X107644742Y-152715359D01*
X107521903Y-152797437D01*
X107417437Y-152901903D01*
X107335359Y-153024742D01*
X107322421Y-153055975D01*
X106766446Y-152500000D01*
X107473554Y-152500000D01*
X107675975Y-152702421D01*
G37*
%TD.AperFunction*%
%TA.AperFunction,Conductor*%
G36*
X108677577Y-153055973D02*
G01*
X108664641Y-153024742D01*
X108582563Y-152901903D01*
X108478097Y-152797437D01*
X108355258Y-152715359D01*
X108324024Y-152702421D01*
X108526445Y-152500000D01*
X109233551Y-152500000D01*
X108677577Y-153055973D01*
G37*
%TD.AperFunction*%
%TD*%
%TA.AperFunction,Conductor*%
%TO.N,GND*%
G36*
X109965248Y-83610885D02*
G01*
X109985890Y-83627519D01*
X110046514Y-83688143D01*
X110079999Y-83749466D01*
X110076764Y-83814142D01*
X110030291Y-83957169D01*
X110030291Y-83957172D01*
X109999500Y-84151577D01*
X109999500Y-84348422D01*
X110030290Y-84542826D01*
X110091117Y-84730029D01*
X110180476Y-84905405D01*
X110296172Y-85064646D01*
X110435354Y-85203828D01*
X110594595Y-85319524D01*
X110677455Y-85361743D01*
X110769970Y-85408882D01*
X110769972Y-85408882D01*
X110769975Y-85408884D01*
X110870317Y-85441487D01*
X110957173Y-85469709D01*
X111151578Y-85500500D01*
X111151583Y-85500500D01*
X111348422Y-85500500D01*
X111542826Y-85469709D01*
X111722814Y-85411226D01*
X111792651Y-85409231D01*
X111823130Y-85421771D01*
X111824878Y-85422781D01*
X111940269Y-85453700D01*
X112668403Y-85453700D01*
X112735442Y-85473385D01*
X112781197Y-85526189D01*
X112784585Y-85534368D01*
X112806201Y-85592326D01*
X112806206Y-85592335D01*
X112892452Y-85707544D01*
X112892455Y-85707547D01*
X113007664Y-85793793D01*
X113007671Y-85793797D01*
X113142517Y-85844091D01*
X113142516Y-85844091D01*
X113149444Y-85844835D01*
X113202127Y-85850500D01*
X114197872Y-85850499D01*
X114257483Y-85844091D01*
X114392331Y-85793796D01*
X114507546Y-85707546D01*
X114523034Y-85686855D01*
X114578967Y-85644986D01*
X114648659Y-85640002D01*
X114709982Y-85673487D01*
X114743466Y-85734810D01*
X114746300Y-85761168D01*
X114746300Y-86960709D01*
X114726615Y-87027748D01*
X114709981Y-87048390D01*
X114536951Y-87221419D01*
X114536944Y-87221428D01*
X114499080Y-87287008D01*
X114499081Y-87287009D01*
X114477221Y-87324872D01*
X114477219Y-87324876D01*
X114477219Y-87324878D01*
X114446300Y-87440269D01*
X114446300Y-87440271D01*
X114446300Y-92218323D01*
X114426615Y-92285362D01*
X114396611Y-92317590D01*
X114308528Y-92383528D01*
X114227664Y-92491549D01*
X114227662Y-92491552D01*
X114180509Y-92617975D01*
X114174500Y-92673855D01*
X114174500Y-93526144D01*
X114180509Y-93582024D01*
X114227662Y-93708447D01*
X114227664Y-93708450D01*
X114308528Y-93816472D01*
X114371299Y-93863462D01*
X114396610Y-93882409D01*
X114438482Y-93938342D01*
X114446300Y-93981676D01*
X114446300Y-102900500D01*
X114426615Y-102967539D01*
X114373811Y-103013294D01*
X114322301Y-103024500D01*
X114177130Y-103024500D01*
X114177123Y-103024501D01*
X114117516Y-103030908D01*
X113982671Y-103081202D01*
X113982664Y-103081206D01*
X113867455Y-103167452D01*
X113777408Y-103287738D01*
X113721474Y-103329608D01*
X113651782Y-103334592D01*
X113590459Y-103301106D01*
X113578876Y-103287738D01*
X113549334Y-103248276D01*
X113507546Y-103192454D01*
X113507544Y-103192453D01*
X113507544Y-103192452D01*
X113392335Y-103106206D01*
X113392328Y-103106202D01*
X113257482Y-103055908D01*
X113257483Y-103055908D01*
X113197883Y-103049501D01*
X113197881Y-103049500D01*
X113197873Y-103049500D01*
X113197864Y-103049500D01*
X112202129Y-103049500D01*
X112202123Y-103049501D01*
X112142516Y-103055908D01*
X112007671Y-103106202D01*
X112007664Y-103106206D01*
X111892455Y-103192452D01*
X111892452Y-103192455D01*
X111806206Y-103307664D01*
X111806202Y-103307671D01*
X111755908Y-103442517D01*
X111749501Y-103502116D01*
X111749500Y-103502135D01*
X111749500Y-104297870D01*
X111749501Y-104297876D01*
X111755908Y-104357483D01*
X111806202Y-104492328D01*
X111806206Y-104492335D01*
X111892452Y-104607544D01*
X111892455Y-104607547D01*
X112007664Y-104693793D01*
X112007671Y-104693797D01*
X112142517Y-104744091D01*
X112142516Y-104744091D01*
X112149444Y-104744835D01*
X112202127Y-104750500D01*
X113197872Y-104750499D01*
X113257483Y-104744091D01*
X113392331Y-104693796D01*
X113507546Y-104607546D01*
X113550671Y-104549938D01*
X113593795Y-104492333D01*
X113596157Y-104488008D01*
X113645563Y-104438603D01*
X113713836Y-104423751D01*
X113779300Y-104448168D01*
X113804255Y-104473124D01*
X113867452Y-104557544D01*
X113867455Y-104557547D01*
X113982664Y-104643793D01*
X113982671Y-104643797D01*
X114117517Y-104694091D01*
X114117516Y-104694091D01*
X114124444Y-104694835D01*
X114177127Y-104700500D01*
X115222872Y-104700499D01*
X115282483Y-104694091D01*
X115332167Y-104675559D01*
X115362776Y-104673370D01*
X115393147Y-104669004D01*
X115397302Y-104670901D01*
X115401858Y-104670576D01*
X115428784Y-104685279D01*
X115456703Y-104698029D01*
X115459173Y-104701872D01*
X115463181Y-104704061D01*
X115477884Y-104730988D01*
X115494477Y-104756807D01*
X115495368Y-104763007D01*
X115496666Y-104765384D01*
X115499500Y-104791742D01*
X115499500Y-104954552D01*
X115479815Y-105021591D01*
X115427011Y-105067346D01*
X115357853Y-105077290D01*
X115330011Y-105069907D01*
X115306444Y-105060614D01*
X115218054Y-105050000D01*
X114950000Y-105050000D01*
X114950000Y-106825000D01*
X115218054Y-106825000D01*
X115306443Y-106814386D01*
X115330008Y-106805093D01*
X115399595Y-106798811D01*
X115461532Y-106831147D01*
X115496154Y-106891835D01*
X115499500Y-106920447D01*
X115499500Y-152376000D01*
X115479815Y-152443039D01*
X115427011Y-152488794D01*
X115375500Y-152500000D01*
X109301270Y-152500000D01*
X109272775Y-152460779D01*
X109272773Y-152460778D01*
X109233551Y-152500000D01*
X108526446Y-152500000D01*
X108919220Y-152107225D01*
X108919219Y-152107224D01*
X108822863Y-152037217D01*
X108602675Y-151925025D01*
X108538202Y-151904077D01*
X108480527Y-151864639D01*
X108453329Y-151800280D01*
X108465244Y-151731434D01*
X108512488Y-151679958D01*
X108544423Y-151666373D01*
X108563887Y-151661158D01*
X108775888Y-151573344D01*
X108974612Y-151458611D01*
X109156661Y-151318919D01*
X109156665Y-151318914D01*
X109156670Y-151318911D01*
X109318911Y-151156670D01*
X109318914Y-151156665D01*
X109318919Y-151156661D01*
X109458611Y-150974612D01*
X109573344Y-150775888D01*
X109661158Y-150563887D01*
X109720548Y-150342238D01*
X109750500Y-150114734D01*
X109750500Y-149885266D01*
X109720548Y-149657762D01*
X109661158Y-149436113D01*
X109573344Y-149224112D01*
X109458611Y-149025388D01*
X109458608Y-149025385D01*
X109458607Y-149025382D01*
X109318918Y-148843338D01*
X109318911Y-148843330D01*
X109156670Y-148681089D01*
X109156661Y-148681081D01*
X108974617Y-148541392D01*
X108775890Y-148426657D01*
X108775876Y-148426650D01*
X108563887Y-148338842D01*
X108342238Y-148279452D01*
X108304215Y-148274446D01*
X108114741Y-148249500D01*
X108114734Y-148249500D01*
X107885266Y-148249500D01*
X107885258Y-148249500D01*
X107668715Y-148278009D01*
X107657762Y-148279452D01*
X107564076Y-148304554D01*
X107436112Y-148338842D01*
X107224123Y-148426650D01*
X107224109Y-148426657D01*
X107025382Y-148541392D01*
X106843338Y-148681081D01*
X106681081Y-148843338D01*
X106541392Y-149025382D01*
X106426657Y-149224109D01*
X106426650Y-149224123D01*
X106338842Y-149436112D01*
X106279453Y-149657759D01*
X106279451Y-149657770D01*
X106249500Y-149885258D01*
X106249500Y-150114741D01*
X106274446Y-150304215D01*
X106279452Y-150342238D01*
X106279453Y-150342240D01*
X106338842Y-150563887D01*
X106426650Y-150775876D01*
X106426657Y-150775890D01*
X106541392Y-150974617D01*
X106681081Y-151156661D01*
X106681089Y-151156670D01*
X106843330Y-151318911D01*
X106843338Y-151318918D01*
X107025382Y-151458607D01*
X107025385Y-151458608D01*
X107025388Y-151458611D01*
X107224112Y-151573344D01*
X107224117Y-151573346D01*
X107224123Y-151573349D01*
X107315480Y-151611190D01*
X107436113Y-151661158D01*
X107455571Y-151666371D01*
X107515231Y-151702735D01*
X107545761Y-151765581D01*
X107537467Y-151834957D01*
X107492983Y-151888835D01*
X107461797Y-151904077D01*
X107397324Y-151925025D01*
X107177142Y-152037214D01*
X107080779Y-152107225D01*
X107473554Y-152500000D01*
X106766446Y-152500000D01*
X106727225Y-152460779D01*
X106698730Y-152500000D01*
X100500500Y-152500000D01*
X100500500Y-141702135D01*
X106149500Y-141702135D01*
X106149500Y-142697870D01*
X106149501Y-142697876D01*
X106155908Y-142757483D01*
X106206202Y-142892328D01*
X106206206Y-142892335D01*
X106292452Y-143007544D01*
X106292455Y-143007547D01*
X106407664Y-143093793D01*
X106407673Y-143093798D01*
X106465632Y-143115415D01*
X106521566Y-143157285D01*
X106545984Y-143222749D01*
X106546300Y-143231597D01*
X106546300Y-144159731D01*
X106577219Y-144275122D01*
X106581816Y-144283084D01*
X106610695Y-144333104D01*
X106623169Y-144384534D01*
X106627165Y-144401004D01*
X106613792Y-144451395D01*
X106590894Y-144496335D01*
X106516939Y-144723944D01*
X106516939Y-144723947D01*
X106479500Y-144960328D01*
X106479500Y-145199671D01*
X106516939Y-145436051D01*
X106590898Y-145663674D01*
X106699554Y-145876919D01*
X106840221Y-146070532D01*
X106840225Y-146070537D01*
X107009462Y-146239774D01*
X107009467Y-146239778D01*
X107178347Y-146362476D01*
X107203084Y-146380448D01*
X107338961Y-146449681D01*
X107416325Y-146489101D01*
X107416327Y-146489101D01*
X107416330Y-146489103D01*
X107643949Y-146563061D01*
X107765735Y-146582349D01*
X107880329Y-146600500D01*
X107880334Y-146600500D01*
X108119671Y-146600500D01*
X108224135Y-146583953D01*
X108356051Y-146563061D01*
X108583670Y-146489103D01*
X108796916Y-146380448D01*
X108990539Y-146239773D01*
X109159773Y-146070539D01*
X109300448Y-145876916D01*
X109409103Y-145663670D01*
X109483061Y-145436051D01*
X109503953Y-145304135D01*
X109520500Y-145199671D01*
X109520500Y-144960328D01*
X109500644Y-144834970D01*
X109483061Y-144723949D01*
X109409103Y-144496330D01*
X109409101Y-144496327D01*
X109409101Y-144496325D01*
X109353812Y-144387816D01*
X109300448Y-144283084D01*
X109210825Y-144159728D01*
X109159778Y-144089467D01*
X109159774Y-144089462D01*
X108990537Y-143920225D01*
X108990532Y-143920221D01*
X108796919Y-143779554D01*
X108796918Y-143779553D01*
X108796916Y-143779552D01*
X108730324Y-143745621D01*
X108583674Y-143670898D01*
X108356051Y-143596939D01*
X108119671Y-143559500D01*
X108119666Y-143559500D01*
X107880334Y-143559500D01*
X107880329Y-143559500D01*
X107643947Y-143596939D01*
X107616015Y-143606014D01*
X107546174Y-143608007D01*
X107486342Y-143571925D01*
X107455516Y-143509223D01*
X107453700Y-143488082D01*
X107453700Y-143231597D01*
X107473385Y-143164558D01*
X107526189Y-143118803D01*
X107534368Y-143115415D01*
X107592326Y-143093798D01*
X107592326Y-143093797D01*
X107592331Y-143093796D01*
X107707546Y-143007546D01*
X107793796Y-142892331D01*
X107844091Y-142757483D01*
X107850500Y-142697873D01*
X107850499Y-141702128D01*
X107844091Y-141642517D01*
X107836550Y-141622299D01*
X107793797Y-141507671D01*
X107793793Y-141507664D01*
X107707547Y-141392455D01*
X107707544Y-141392452D01*
X107592335Y-141306206D01*
X107592328Y-141306202D01*
X107457482Y-141255908D01*
X107457483Y-141255908D01*
X107397883Y-141249501D01*
X107397881Y-141249500D01*
X107397873Y-141249500D01*
X107397864Y-141249500D01*
X106602129Y-141249500D01*
X106602123Y-141249501D01*
X106542516Y-141255908D01*
X106407671Y-141306202D01*
X106407664Y-141306206D01*
X106292455Y-141392452D01*
X106292452Y-141392455D01*
X106206206Y-141507664D01*
X106206202Y-141507671D01*
X106155908Y-141642517D01*
X106152544Y-141673811D01*
X106149501Y-141702123D01*
X106149500Y-141702135D01*
X100500500Y-141702135D01*
X100500500Y-113502135D01*
X106449500Y-113502135D01*
X106449500Y-114297870D01*
X106449501Y-114297876D01*
X106455908Y-114357483D01*
X106506202Y-114492328D01*
X106506206Y-114492335D01*
X106592452Y-114607544D01*
X106592455Y-114607547D01*
X106707664Y-114693793D01*
X106707671Y-114693797D01*
X106842517Y-114744091D01*
X106842516Y-114744091D01*
X106849444Y-114744835D01*
X106902127Y-114750500D01*
X107897872Y-114750499D01*
X107957483Y-114744091D01*
X108092331Y-114693796D01*
X108207546Y-114607546D01*
X108293796Y-114492331D01*
X108344091Y-114357483D01*
X108350500Y-114297873D01*
X108350499Y-113502128D01*
X108344091Y-113442517D01*
X108293796Y-113307669D01*
X108293795Y-113307668D01*
X108293793Y-113307664D01*
X108207547Y-113192455D01*
X108207544Y-113192452D01*
X108092335Y-113106206D01*
X108092328Y-113106202D01*
X107957482Y-113055908D01*
X107949938Y-113054126D01*
X107950684Y-113050965D01*
X107899861Y-113029893D01*
X107860032Y-112972487D01*
X107853700Y-112933368D01*
X107853700Y-111548392D01*
X107870314Y-111486391D01*
X107912981Y-111412490D01*
X107912982Y-111412489D01*
X107912982Y-111412487D01*
X107912984Y-111412485D01*
X107950500Y-111272475D01*
X107950500Y-111127525D01*
X107912984Y-110987515D01*
X107840509Y-110861985D01*
X107738015Y-110759491D01*
X107738013Y-110759490D01*
X107738011Y-110759488D01*
X107612488Y-110687017D01*
X107612489Y-110687017D01*
X107601006Y-110683940D01*
X107472475Y-110649500D01*
X107327525Y-110649500D01*
X107198993Y-110683940D01*
X107187511Y-110687017D01*
X107061988Y-110759488D01*
X107061982Y-110759493D01*
X106959493Y-110861982D01*
X106959488Y-110861988D01*
X106887017Y-110987511D01*
X106887016Y-110987515D01*
X106849500Y-111127525D01*
X106849500Y-111272475D01*
X106867666Y-111340269D01*
X106887017Y-111412489D01*
X106887018Y-111412490D01*
X106929686Y-111486391D01*
X106946300Y-111548392D01*
X106946300Y-112933367D01*
X106926615Y-113000406D01*
X106873811Y-113046161D01*
X106849748Y-113052770D01*
X106850068Y-113054124D01*
X106842520Y-113055907D01*
X106707671Y-113106202D01*
X106707664Y-113106206D01*
X106592455Y-113192452D01*
X106592452Y-113192455D01*
X106506206Y-113307664D01*
X106506202Y-113307671D01*
X106455908Y-113442517D01*
X106449501Y-113502116D01*
X106449501Y-113502123D01*
X106449500Y-113502135D01*
X100500500Y-113502135D01*
X100500500Y-109147682D01*
X104450000Y-109147682D01*
X104450000Y-109352317D01*
X104482009Y-109554417D01*
X104545244Y-109749031D01*
X104638141Y-109931350D01*
X104638147Y-109931359D01*
X104670523Y-109975921D01*
X104670524Y-109975922D01*
X105226212Y-109420234D01*
X105237482Y-109462292D01*
X105309890Y-109587708D01*
X105412292Y-109690110D01*
X105537708Y-109762518D01*
X105579765Y-109773787D01*
X105024076Y-110329474D01*
X105068650Y-110361859D01*
X105250968Y-110454755D01*
X105445582Y-110517990D01*
X105647683Y-110550000D01*
X105852317Y-110550000D01*
X106054417Y-110517990D01*
X106249031Y-110454755D01*
X106431349Y-110361859D01*
X106475921Y-110329474D01*
X105920234Y-109773787D01*
X105962292Y-109762518D01*
X106087708Y-109690110D01*
X106190110Y-109587708D01*
X106262518Y-109462292D01*
X106273787Y-109420234D01*
X106829474Y-109975921D01*
X106861859Y-109931349D01*
X106954755Y-109749031D01*
X107017990Y-109554417D01*
X107050000Y-109352317D01*
X107050000Y-109147682D01*
X107017990Y-108945582D01*
X106954755Y-108750968D01*
X106861859Y-108568650D01*
X106829474Y-108524077D01*
X106829474Y-108524076D01*
X106273787Y-109079764D01*
X106262518Y-109037708D01*
X106190110Y-108912292D01*
X106087708Y-108809890D01*
X105962292Y-108737482D01*
X105920233Y-108726212D01*
X106475922Y-108170524D01*
X106475921Y-108170523D01*
X106431359Y-108138147D01*
X106431350Y-108138141D01*
X106249031Y-108045244D01*
X106054417Y-107982009D01*
X105852317Y-107950000D01*
X105647683Y-107950000D01*
X105445582Y-107982009D01*
X105250968Y-108045244D01*
X105068644Y-108138143D01*
X105024077Y-108170523D01*
X105024077Y-108170524D01*
X105579766Y-108726212D01*
X105537708Y-108737482D01*
X105412292Y-108809890D01*
X105309890Y-108912292D01*
X105237482Y-109037708D01*
X105226212Y-109079765D01*
X104670524Y-108524077D01*
X104670523Y-108524077D01*
X104638143Y-108568644D01*
X104545244Y-108750968D01*
X104482009Y-108945582D01*
X104450000Y-109147682D01*
X100500500Y-109147682D01*
X100500500Y-95031810D01*
X100520185Y-94964771D01*
X100572989Y-94919016D01*
X100642147Y-94909072D01*
X100705703Y-94938097D01*
X100731889Y-94969813D01*
X100736948Y-94978577D01*
X101163887Y-95405516D01*
X101190767Y-95445744D01*
X101217861Y-95511156D01*
X101289752Y-95618748D01*
X101289754Y-95618751D01*
X101309979Y-95638975D01*
X101343466Y-95700297D01*
X101346300Y-95726658D01*
X101346300Y-97659731D01*
X101377219Y-97775122D01*
X101377220Y-97775123D01*
X101377219Y-97775123D01*
X101390660Y-97798403D01*
X101436946Y-97878574D01*
X101436948Y-97878577D01*
X101436949Y-97878578D01*
X103121422Y-99563051D01*
X103187010Y-99600918D01*
X103224878Y-99622781D01*
X103340269Y-99653700D01*
X103364377Y-99653700D01*
X103382564Y-99659429D01*
X103396384Y-99668697D01*
X103412347Y-99673385D01*
X103424796Y-99687752D01*
X103440592Y-99698346D01*
X103447207Y-99713616D01*
X103458102Y-99726189D01*
X103460807Y-99745007D01*
X103468368Y-99762458D01*
X103465678Y-99778878D01*
X103468046Y-99795347D01*
X103460146Y-99812643D01*
X103457073Y-99831408D01*
X103445933Y-99843766D01*
X103439021Y-99858903D01*
X103432989Y-99865381D01*
X103136948Y-100161422D01*
X103100313Y-100224879D01*
X103100312Y-100224880D01*
X103077219Y-100264877D01*
X103077219Y-100264878D01*
X103046300Y-100380269D01*
X103046300Y-103759731D01*
X103077219Y-103875122D01*
X103096712Y-103908884D01*
X103136948Y-103978576D01*
X103136950Y-103978579D01*
X107609981Y-108451609D01*
X107643466Y-108512932D01*
X107646300Y-108539290D01*
X107646300Y-109959731D01*
X107677219Y-110075122D01*
X107699081Y-110112989D01*
X107736949Y-110178578D01*
X107736950Y-110178579D01*
X107736951Y-110178580D01*
X109109981Y-111551609D01*
X109143466Y-111612932D01*
X109146300Y-111639290D01*
X109146300Y-116460709D01*
X109126615Y-116527748D01*
X109109981Y-116548390D01*
X107001951Y-118656419D01*
X107001944Y-118656428D01*
X106964080Y-118722008D01*
X106964081Y-118722009D01*
X106942220Y-118759874D01*
X106930765Y-118802623D01*
X106894399Y-118862282D01*
X106831552Y-118892810D01*
X106773510Y-118888727D01*
X106756735Y-118883407D01*
X106727740Y-118864034D01*
X106654674Y-118849500D01*
X106649804Y-118849500D01*
X106635219Y-118844875D01*
X106616537Y-118832294D01*
X106595664Y-118823842D01*
X106588117Y-118813155D01*
X106577265Y-118805847D01*
X106568350Y-118785163D01*
X106555361Y-118766768D01*
X106552185Y-118747654D01*
X106549612Y-118741683D01*
X106550401Y-118736918D01*
X106548700Y-118726675D01*
X106548700Y-117444290D01*
X106568385Y-117377251D01*
X106585015Y-117356613D01*
X107154810Y-116786817D01*
X107216133Y-116753333D01*
X107242491Y-116750499D01*
X107897871Y-116750499D01*
X107897872Y-116750499D01*
X107957483Y-116744091D01*
X108092331Y-116693796D01*
X108207546Y-116607546D01*
X108293796Y-116492331D01*
X108344091Y-116357483D01*
X108350500Y-116297873D01*
X108350499Y-115502128D01*
X108344091Y-115442517D01*
X108293796Y-115307669D01*
X108293795Y-115307668D01*
X108293793Y-115307664D01*
X108207547Y-115192455D01*
X108207544Y-115192452D01*
X108092335Y-115106206D01*
X108092328Y-115106202D01*
X107957482Y-115055908D01*
X107957483Y-115055908D01*
X107897883Y-115049501D01*
X107897881Y-115049500D01*
X107897873Y-115049500D01*
X107897864Y-115049500D01*
X106902129Y-115049500D01*
X106902123Y-115049501D01*
X106842516Y-115055908D01*
X106707671Y-115106202D01*
X106707664Y-115106206D01*
X106592455Y-115192452D01*
X106592452Y-115192455D01*
X106506206Y-115307664D01*
X106506202Y-115307671D01*
X106455908Y-115442517D01*
X106449501Y-115502116D01*
X106449501Y-115502123D01*
X106449500Y-115502135D01*
X106449500Y-116157508D01*
X106429815Y-116224547D01*
X106413181Y-116245189D01*
X105731950Y-116926420D01*
X105731948Y-116926423D01*
X105701838Y-116978577D01*
X105701837Y-116978578D01*
X105672220Y-117029875D01*
X105672220Y-117029876D01*
X105672219Y-117029878D01*
X105641300Y-117145269D01*
X105641300Y-117145271D01*
X105641300Y-118726675D01*
X105621615Y-118793714D01*
X105568811Y-118839469D01*
X105541033Y-118846971D01*
X105541300Y-118848311D01*
X105462264Y-118864032D01*
X105462260Y-118864033D01*
X105379399Y-118919399D01*
X105324033Y-119002260D01*
X105324032Y-119002264D01*
X105309500Y-119075321D01*
X105309500Y-120924678D01*
X105324032Y-120997735D01*
X105324033Y-120997739D01*
X105324034Y-120997740D01*
X105379399Y-121080601D01*
X105440345Y-121121323D01*
X105462260Y-121135966D01*
X105462264Y-121135967D01*
X105535321Y-121150499D01*
X105535324Y-121150500D01*
X105535326Y-121150500D01*
X106654676Y-121150500D01*
X106654677Y-121150499D01*
X106727740Y-121135966D01*
X106727744Y-121135963D01*
X106739021Y-121131293D01*
X106740656Y-121135241D01*
X106785009Y-121121323D01*
X106852400Y-121139766D01*
X106899123Y-121191715D01*
X106911300Y-121245302D01*
X106911300Y-130124731D01*
X106942219Y-130240122D01*
X106964081Y-130277989D01*
X107001949Y-130343578D01*
X107001950Y-130343579D01*
X107001951Y-130343580D01*
X108144981Y-131486609D01*
X108178466Y-131547932D01*
X108181300Y-131574290D01*
X108181300Y-133927620D01*
X108172213Y-133958566D01*
X108164523Y-133989903D01*
X108162214Y-133992616D01*
X108161615Y-133994659D01*
X108142633Y-134017589D01*
X108136614Y-134023297D01*
X108134273Y-134024862D01*
X108121537Y-134037597D01*
X108120334Y-134038739D01*
X108090615Y-134053960D01*
X108061355Y-134069937D01*
X108059660Y-134069815D01*
X108058147Y-134070591D01*
X108024920Y-134067329D01*
X107991664Y-134064950D01*
X107990039Y-134063906D01*
X107988611Y-134063766D01*
X107983354Y-134059609D01*
X107947320Y-134036451D01*
X107897284Y-133986415D01*
X107897280Y-133986412D01*
X107760527Y-133895036D01*
X107760518Y-133895031D01*
X107615000Y-133834756D01*
X107615000Y-134624722D01*
X107538694Y-134580667D01*
X107424244Y-134550000D01*
X107305756Y-134550000D01*
X107191306Y-134580667D01*
X107115000Y-134624722D01*
X107115000Y-133834756D01*
X107114999Y-133834756D01*
X106969481Y-133895031D01*
X106969472Y-133895036D01*
X106832719Y-133986412D01*
X106832714Y-133986416D01*
X106782678Y-134036452D01*
X106721355Y-134069936D01*
X106651663Y-134064951D01*
X106607317Y-134036451D01*
X106595730Y-134024864D01*
X106595726Y-134024861D01*
X106467080Y-133938902D01*
X106467071Y-133938897D01*
X106324122Y-133879686D01*
X106324114Y-133879684D01*
X106172369Y-133849500D01*
X106172365Y-133849500D01*
X106017635Y-133849500D01*
X106017630Y-133849500D01*
X105865885Y-133879684D01*
X105865877Y-133879686D01*
X105722928Y-133938897D01*
X105722919Y-133938902D01*
X105594273Y-134024861D01*
X105594269Y-134024864D01*
X105484864Y-134134269D01*
X105484861Y-134134273D01*
X105398902Y-134262919D01*
X105398897Y-134262928D01*
X105339686Y-134405877D01*
X105339684Y-134405885D01*
X105309500Y-134557630D01*
X105309500Y-135442369D01*
X105339684Y-135594114D01*
X105339686Y-135594122D01*
X105398897Y-135737071D01*
X105398902Y-135737080D01*
X105484861Y-135865726D01*
X105484864Y-135865730D01*
X105594269Y-135975135D01*
X105594273Y-135975138D01*
X105722919Y-136061097D01*
X105722925Y-136061100D01*
X105722926Y-136061101D01*
X105865878Y-136120314D01*
X106017630Y-136150499D01*
X106017634Y-136150500D01*
X106017635Y-136150500D01*
X106172366Y-136150500D01*
X106172367Y-136150499D01*
X106324122Y-136120314D01*
X106467074Y-136061101D01*
X106595727Y-135975138D01*
X106607316Y-135963548D01*
X106668636Y-135930063D01*
X106738328Y-135935045D01*
X106782680Y-135963548D01*
X106832715Y-136013584D01*
X106832718Y-136013587D01*
X106969473Y-136104963D01*
X106969486Y-136104970D01*
X107114999Y-136165243D01*
X107115000Y-136165243D01*
X107115000Y-135375277D01*
X107191306Y-135419333D01*
X107305756Y-135450000D01*
X107424244Y-135450000D01*
X107538694Y-135419333D01*
X107615000Y-135375277D01*
X107615000Y-136165243D01*
X107760513Y-136104970D01*
X107760526Y-136104963D01*
X107897281Y-136013587D01*
X107947319Y-135963549D01*
X107953813Y-135960002D01*
X107958092Y-135953961D01*
X107984065Y-135943483D01*
X108008642Y-135930063D01*
X108016024Y-135930590D01*
X108022888Y-135927822D01*
X108050400Y-135933049D01*
X108078333Y-135935047D01*
X108085956Y-135939805D01*
X108091530Y-135940864D01*
X108114777Y-135957792D01*
X108120334Y-135961260D01*
X108121517Y-135962382D01*
X108134273Y-135975138D01*
X108136617Y-135976704D01*
X108142633Y-135982410D01*
X108158035Y-136008927D01*
X108175295Y-136034259D01*
X108176241Y-136040270D01*
X108177727Y-136042827D01*
X108177486Y-136048171D01*
X108181300Y-136072379D01*
X108181300Y-136325709D01*
X108161615Y-136392748D01*
X108144981Y-136413390D01*
X106636951Y-137921419D01*
X106636944Y-137921428D01*
X106599080Y-137987008D01*
X106599081Y-137987009D01*
X106577221Y-138024872D01*
X106577219Y-138024876D01*
X106577219Y-138024878D01*
X106546300Y-138140269D01*
X106546300Y-138140271D01*
X106546300Y-138768402D01*
X106526615Y-138835441D01*
X106473811Y-138881196D01*
X106465634Y-138884584D01*
X106407669Y-138906203D01*
X106407664Y-138906206D01*
X106292455Y-138992452D01*
X106292452Y-138992455D01*
X106206206Y-139107664D01*
X106206202Y-139107671D01*
X106155908Y-139242517D01*
X106149501Y-139302116D01*
X106149500Y-139302135D01*
X106149500Y-140297870D01*
X106149501Y-140297876D01*
X106155908Y-140357483D01*
X106206202Y-140492328D01*
X106206206Y-140492335D01*
X106292452Y-140607544D01*
X106292455Y-140607547D01*
X106407664Y-140693793D01*
X106407671Y-140693797D01*
X106542517Y-140744091D01*
X106542516Y-140744091D01*
X106549444Y-140744835D01*
X106602127Y-140750500D01*
X107397872Y-140750499D01*
X107457483Y-140744091D01*
X107592331Y-140693796D01*
X107707546Y-140607546D01*
X107793796Y-140492331D01*
X107844091Y-140357483D01*
X107850500Y-140297873D01*
X107850499Y-139302135D01*
X108149500Y-139302135D01*
X108149500Y-140297870D01*
X108149501Y-140297876D01*
X108155908Y-140357483D01*
X108206202Y-140492328D01*
X108206206Y-140492335D01*
X108292452Y-140607544D01*
X108292455Y-140607547D01*
X108407664Y-140693793D01*
X108407671Y-140693797D01*
X108542517Y-140744091D01*
X108542516Y-140744091D01*
X108549444Y-140744835D01*
X108602127Y-140750500D01*
X109397872Y-140750499D01*
X109457483Y-140744091D01*
X109592331Y-140693796D01*
X109707546Y-140607546D01*
X109793796Y-140492331D01*
X109796817Y-140484230D01*
X109838688Y-140428296D01*
X109904152Y-140403878D01*
X109972425Y-140418729D01*
X110021831Y-140468133D01*
X110037000Y-140527562D01*
X110037000Y-140831517D01*
X110047792Y-140899657D01*
X110051854Y-140925304D01*
X110109450Y-141038342D01*
X110109452Y-141038344D01*
X110109454Y-141038347D01*
X110199152Y-141128045D01*
X110199154Y-141128046D01*
X110199158Y-141128050D01*
X110312194Y-141185645D01*
X110312198Y-141185647D01*
X110405975Y-141200499D01*
X110405981Y-141200500D01*
X111644018Y-141200499D01*
X111737804Y-141185646D01*
X111751773Y-141178528D01*
X111820438Y-141165632D01*
X111885179Y-141191907D01*
X111925437Y-141249012D01*
X111928268Y-141315039D01*
X111928380Y-141315057D01*
X111928293Y-141315605D01*
X111928431Y-141318818D01*
X111926981Y-141323888D01*
X111912000Y-141418475D01*
X111912001Y-141622299D01*
X111892317Y-141689339D01*
X111839513Y-141735094D01*
X111788001Y-141746300D01*
X109966633Y-141746300D01*
X109899594Y-141726615D01*
X109853839Y-141673811D01*
X109847229Y-141649748D01*
X109845876Y-141650068D01*
X109844092Y-141642520D01*
X109793797Y-141507671D01*
X109793793Y-141507664D01*
X109707547Y-141392455D01*
X109707544Y-141392452D01*
X109592335Y-141306206D01*
X109592328Y-141306202D01*
X109457482Y-141255908D01*
X109457483Y-141255908D01*
X109397883Y-141249501D01*
X109397881Y-141249500D01*
X109397873Y-141249500D01*
X109397864Y-141249500D01*
X108602129Y-141249500D01*
X108602123Y-141249501D01*
X108542516Y-141255908D01*
X108407671Y-141306202D01*
X108407664Y-141306206D01*
X108292455Y-141392452D01*
X108292452Y-141392455D01*
X108206206Y-141507664D01*
X108206202Y-141507671D01*
X108155908Y-141642517D01*
X108152544Y-141673811D01*
X108149501Y-141702123D01*
X108149500Y-141702135D01*
X108149500Y-142697870D01*
X108149501Y-142697876D01*
X108155908Y-142757483D01*
X108206202Y-142892328D01*
X108206206Y-142892335D01*
X108292452Y-143007544D01*
X108292455Y-143007547D01*
X108407664Y-143093793D01*
X108407671Y-143093797D01*
X108542517Y-143144091D01*
X108542516Y-143144091D01*
X108546293Y-143144497D01*
X108602127Y-143150500D01*
X109397872Y-143150499D01*
X109457483Y-143144091D01*
X109592331Y-143093796D01*
X109707546Y-143007546D01*
X109793796Y-142892331D01*
X109844091Y-142757483D01*
X109844091Y-142757481D01*
X109845874Y-142749938D01*
X109849034Y-142750684D01*
X109870107Y-142699861D01*
X109927513Y-142660032D01*
X109966632Y-142653700D01*
X112359728Y-142653700D01*
X112359731Y-142653700D01*
X112475122Y-142622781D01*
X112512989Y-142600918D01*
X112578578Y-142563051D01*
X112954809Y-142186817D01*
X113016132Y-142153333D01*
X113042490Y-142150499D01*
X113519017Y-142150499D01*
X113519018Y-142150499D01*
X113612804Y-142135646D01*
X113725842Y-142078050D01*
X113815550Y-141988342D01*
X113873146Y-141875304D01*
X113873146Y-141875302D01*
X113873147Y-141875301D01*
X113887999Y-141781524D01*
X113888000Y-141781519D01*
X113887999Y-141418482D01*
X113873146Y-141324696D01*
X113815550Y-141211658D01*
X113815546Y-141211654D01*
X113815545Y-141211652D01*
X113725847Y-141121954D01*
X113725844Y-141121952D01*
X113725842Y-141121950D01*
X113626776Y-141071473D01*
X113612801Y-141064352D01*
X113519024Y-141049500D01*
X112280982Y-141049500D01*
X112187196Y-141064354D01*
X112173224Y-141071473D01*
X112104555Y-141084367D01*
X112039815Y-141058088D01*
X111999560Y-141000981D01*
X111996732Y-140934960D01*
X111996620Y-140934943D01*
X111996707Y-140934389D01*
X111996570Y-140931175D01*
X111998019Y-140926105D01*
X112012999Y-140831524D01*
X112013000Y-140831519D01*
X112012999Y-140468482D01*
X111998146Y-140374696D01*
X111998145Y-140374694D01*
X111996619Y-140365057D01*
X111998642Y-140364736D01*
X111997006Y-140307494D01*
X112033084Y-140247660D01*
X112095784Y-140216830D01*
X112165198Y-140224792D01*
X112173208Y-140228519D01*
X112187196Y-140235646D01*
X112187198Y-140235646D01*
X112187200Y-140235647D01*
X112187198Y-140235647D01*
X112280975Y-140250499D01*
X112280981Y-140250500D01*
X113519018Y-140250499D01*
X113612804Y-140235646D01*
X113725842Y-140178050D01*
X113815550Y-140088342D01*
X113873146Y-139975304D01*
X113873146Y-139975302D01*
X113873147Y-139975301D01*
X113887999Y-139881524D01*
X113888000Y-139881519D01*
X113887999Y-139518482D01*
X113873146Y-139424696D01*
X113815550Y-139311658D01*
X113815546Y-139311654D01*
X113815545Y-139311652D01*
X113725847Y-139221954D01*
X113725844Y-139221952D01*
X113725842Y-139221950D01*
X113649017Y-139182805D01*
X113612801Y-139164352D01*
X113519024Y-139149500D01*
X113519019Y-139149500D01*
X113477700Y-139149500D01*
X113410661Y-139129815D01*
X113364906Y-139077011D01*
X113353700Y-139025500D01*
X113353700Y-133040271D01*
X113353700Y-133040269D01*
X113322781Y-132924878D01*
X113300918Y-132887010D01*
X113263051Y-132821422D01*
X112667166Y-132225537D01*
X112635073Y-132169951D01*
X112612984Y-132087515D01*
X112540509Y-131961985D01*
X112438015Y-131859491D01*
X112438013Y-131859490D01*
X112438011Y-131859488D01*
X112312488Y-131787017D01*
X112312489Y-131787017D01*
X112301006Y-131783940D01*
X112172475Y-131749500D01*
X112027525Y-131749500D01*
X111898993Y-131783940D01*
X111887511Y-131787017D01*
X111761988Y-131859488D01*
X111761982Y-131859493D01*
X111659493Y-131961982D01*
X111659488Y-131961988D01*
X111587017Y-132087511D01*
X111587016Y-132087515D01*
X111549500Y-132227525D01*
X111549500Y-132372475D01*
X111587016Y-132512485D01*
X111587017Y-132512488D01*
X111659488Y-132638011D01*
X111659490Y-132638013D01*
X111659491Y-132638015D01*
X111761985Y-132740509D01*
X111761986Y-132740510D01*
X111761988Y-132740511D01*
X111887511Y-132812982D01*
X111887512Y-132812982D01*
X111887515Y-132812984D01*
X111969951Y-132835073D01*
X112025537Y-132867166D01*
X112409981Y-133251610D01*
X112443466Y-133312933D01*
X112446300Y-133339291D01*
X112446300Y-139025500D01*
X112426615Y-139092539D01*
X112373811Y-139138294D01*
X112322303Y-139149500D01*
X112280983Y-139149500D01*
X112202050Y-139162001D01*
X112187196Y-139164354D01*
X112074158Y-139221950D01*
X112074157Y-139221951D01*
X112074152Y-139221954D01*
X111984454Y-139311652D01*
X111984451Y-139311657D01*
X111926852Y-139424698D01*
X111912000Y-139518475D01*
X111912000Y-139881517D01*
X111928381Y-139984943D01*
X111926357Y-139985263D01*
X111927990Y-140042516D01*
X111891907Y-140102347D01*
X111829204Y-140133171D01*
X111759790Y-140125203D01*
X111751780Y-140121475D01*
X111737804Y-140114354D01*
X111737803Y-140114353D01*
X111737800Y-140114352D01*
X111737801Y-140114352D01*
X111644024Y-140099500D01*
X111644019Y-140099500D01*
X111167491Y-140099500D01*
X111100452Y-140079815D01*
X111079810Y-140063181D01*
X110453580Y-139436951D01*
X110453578Y-139436949D01*
X110430690Y-139423734D01*
X110387990Y-139399081D01*
X110387989Y-139399081D01*
X110350122Y-139377219D01*
X110234731Y-139346300D01*
X110234729Y-139346300D01*
X109966633Y-139346300D01*
X109899594Y-139326615D01*
X109853839Y-139273811D01*
X109847229Y-139249748D01*
X109845876Y-139250068D01*
X109844092Y-139242520D01*
X109836421Y-139221954D01*
X109809398Y-139149500D01*
X109793797Y-139107671D01*
X109793793Y-139107664D01*
X109707547Y-138992455D01*
X109707544Y-138992452D01*
X109592335Y-138906206D01*
X109592328Y-138906202D01*
X109457482Y-138855908D01*
X109457483Y-138855908D01*
X109397883Y-138849501D01*
X109397881Y-138849500D01*
X109397873Y-138849500D01*
X109397864Y-138849500D01*
X108602129Y-138849500D01*
X108602123Y-138849501D01*
X108542516Y-138855908D01*
X108407671Y-138906202D01*
X108407664Y-138906206D01*
X108292455Y-138992452D01*
X108292452Y-138992455D01*
X108206206Y-139107664D01*
X108206202Y-139107671D01*
X108155908Y-139242517D01*
X108149501Y-139302116D01*
X108149500Y-139302135D01*
X107850499Y-139302135D01*
X107850499Y-139302128D01*
X107844091Y-139242517D01*
X107836420Y-139221951D01*
X107793797Y-139107671D01*
X107793793Y-139107664D01*
X107707547Y-138992455D01*
X107707544Y-138992452D01*
X107592335Y-138906206D01*
X107592330Y-138906203D01*
X107534366Y-138884584D01*
X107478433Y-138842712D01*
X107454016Y-138777248D01*
X107453700Y-138768402D01*
X107453700Y-138439290D01*
X107473385Y-138372251D01*
X107490019Y-138351609D01*
X107920209Y-137921419D01*
X108998050Y-136843578D01*
X109057781Y-136740122D01*
X109088700Y-136624731D01*
X109088700Y-136245302D01*
X109108385Y-136178263D01*
X109161189Y-136132508D01*
X109230347Y-136122564D01*
X109259899Y-136133898D01*
X109260979Y-136131293D01*
X109272257Y-136135964D01*
X109272260Y-136135966D01*
X109272263Y-136135966D01*
X109272264Y-136135967D01*
X109345321Y-136150499D01*
X109345324Y-136150500D01*
X109345326Y-136150500D01*
X110464676Y-136150500D01*
X110464677Y-136150499D01*
X110537740Y-136135966D01*
X110620601Y-136080601D01*
X110675966Y-135997740D01*
X110690500Y-135924674D01*
X110690500Y-134075326D01*
X110690500Y-134075323D01*
X110690499Y-134075321D01*
X110675967Y-134002264D01*
X110675966Y-134002260D01*
X110667709Y-133989903D01*
X110620601Y-133919399D01*
X110544734Y-133868707D01*
X110537739Y-133864033D01*
X110537735Y-133864032D01*
X110458700Y-133848311D01*
X110459251Y-133845540D01*
X110405664Y-133823842D01*
X110365361Y-133766768D01*
X110358700Y-133726675D01*
X110358700Y-121072379D01*
X110378385Y-121005340D01*
X110401429Y-120979455D01*
X110401420Y-120979446D01*
X110401587Y-120979278D01*
X110404046Y-120976517D01*
X110405719Y-120975142D01*
X110405727Y-120975138D01*
X110515138Y-120865727D01*
X110601101Y-120737074D01*
X110660314Y-120594122D01*
X110690500Y-120442365D01*
X110690500Y-119557635D01*
X110660314Y-119405878D01*
X110601101Y-119262926D01*
X110601100Y-119262925D01*
X110601097Y-119262919D01*
X110515138Y-119134273D01*
X110515135Y-119134269D01*
X110405730Y-119024864D01*
X110405726Y-119024861D01*
X110277080Y-118938902D01*
X110277071Y-118938897D01*
X110134122Y-118879686D01*
X110134114Y-118879684D01*
X109982369Y-118849500D01*
X109982365Y-118849500D01*
X109827635Y-118849500D01*
X109827630Y-118849500D01*
X109675885Y-118879684D01*
X109675877Y-118879686D01*
X109532928Y-118938897D01*
X109532919Y-118938902D01*
X109404276Y-119024859D01*
X109404270Y-119024864D01*
X109392679Y-119036455D01*
X109331355Y-119069938D01*
X109261664Y-119064951D01*
X109217319Y-119036451D01*
X109167284Y-118986415D01*
X109167280Y-118986412D01*
X109030527Y-118895036D01*
X109030518Y-118895031D01*
X108885000Y-118834756D01*
X108885000Y-119624722D01*
X108808694Y-119580667D01*
X108694244Y-119550000D01*
X108575756Y-119550000D01*
X108461306Y-119580667D01*
X108385000Y-119624722D01*
X108385000Y-118834756D01*
X108343903Y-118807296D01*
X108299098Y-118753684D01*
X108290391Y-118684359D01*
X108320545Y-118621331D01*
X108325090Y-118616536D01*
X109963050Y-116978578D01*
X110022781Y-116875122D01*
X110047674Y-116782219D01*
X110053700Y-116759731D01*
X110053700Y-111340269D01*
X110022781Y-111224878D01*
X109963050Y-111121422D01*
X109878578Y-111036950D01*
X108590019Y-109748390D01*
X108556534Y-109687067D01*
X108553700Y-109660709D01*
X108553700Y-108240271D01*
X108553700Y-108240269D01*
X108522781Y-108124878D01*
X108463050Y-108021422D01*
X108378578Y-107936950D01*
X103990019Y-103548390D01*
X103956534Y-103487067D01*
X103953700Y-103460709D01*
X103953700Y-102647682D01*
X104450000Y-102647682D01*
X104450000Y-102852317D01*
X104482009Y-103054417D01*
X104545244Y-103249031D01*
X104638141Y-103431350D01*
X104638147Y-103431359D01*
X104670523Y-103475921D01*
X104670524Y-103475922D01*
X105226212Y-102920234D01*
X105237482Y-102962292D01*
X105309890Y-103087708D01*
X105412292Y-103190110D01*
X105537708Y-103262518D01*
X105579765Y-103273787D01*
X105024076Y-103829474D01*
X105068650Y-103861859D01*
X105250968Y-103954755D01*
X105445582Y-104017990D01*
X105647683Y-104050000D01*
X105852317Y-104050000D01*
X106054417Y-104017990D01*
X106249031Y-103954755D01*
X106431349Y-103861859D01*
X106475921Y-103829474D01*
X105920234Y-103273787D01*
X105962292Y-103262518D01*
X106087708Y-103190110D01*
X106190110Y-103087708D01*
X106262518Y-102962292D01*
X106273787Y-102920234D01*
X106829474Y-103475921D01*
X106861859Y-103431349D01*
X106954755Y-103249031D01*
X107017990Y-103054417D01*
X107050000Y-102852317D01*
X107050000Y-102651577D01*
X108999500Y-102651577D01*
X108999500Y-102848422D01*
X109030290Y-103042826D01*
X109091117Y-103230029D01*
X109144395Y-103334592D01*
X109180476Y-103405405D01*
X109296172Y-103564646D01*
X109435354Y-103703828D01*
X109554784Y-103790600D01*
X109594596Y-103819525D01*
X109663550Y-103854658D01*
X109728595Y-103887800D01*
X109779390Y-103935773D01*
X109796300Y-103998284D01*
X109796300Y-104209731D01*
X109827219Y-104325122D01*
X109827220Y-104325123D01*
X109843717Y-104353696D01*
X109843718Y-104353700D01*
X109843719Y-104353700D01*
X109886948Y-104428576D01*
X109886950Y-104428579D01*
X111717755Y-106259384D01*
X111751240Y-106320707D01*
X111753364Y-106333811D01*
X111755908Y-106357483D01*
X111806202Y-106492328D01*
X111806206Y-106492335D01*
X111892452Y-106607544D01*
X111892455Y-106607547D01*
X112007664Y-106693793D01*
X112007673Y-106693798D01*
X112068957Y-106716655D01*
X112124891Y-106758525D01*
X112149309Y-106823989D01*
X112134458Y-106892262D01*
X112085053Y-106941668D01*
X112068959Y-106949019D01*
X111982670Y-106981203D01*
X111982664Y-106981206D01*
X111867455Y-107067452D01*
X111867452Y-107067455D01*
X111781206Y-107182664D01*
X111781202Y-107182671D01*
X111730908Y-107317517D01*
X111724501Y-107377116D01*
X111724501Y-107377123D01*
X111724500Y-107377135D01*
X111724500Y-107745008D01*
X111704815Y-107812047D01*
X111688181Y-107832689D01*
X111232021Y-108288848D01*
X111170698Y-108322333D01*
X111101006Y-108317349D01*
X111068977Y-108298498D01*
X111068587Y-108299036D01*
X111064648Y-108296174D01*
X111064646Y-108296172D01*
X110905405Y-108180476D01*
X110841418Y-108147873D01*
X110730029Y-108091117D01*
X110542826Y-108030290D01*
X110348422Y-107999500D01*
X110348417Y-107999500D01*
X110151583Y-107999500D01*
X110151578Y-107999500D01*
X109957173Y-108030290D01*
X109769970Y-108091117D01*
X109594594Y-108180476D01*
X109557423Y-108207483D01*
X109435354Y-108296172D01*
X109435352Y-108296174D01*
X109435351Y-108296174D01*
X109296174Y-108435351D01*
X109296174Y-108435352D01*
X109296172Y-108435354D01*
X109280048Y-108457547D01*
X109180476Y-108594594D01*
X109091117Y-108769970D01*
X109030290Y-108957173D01*
X108999500Y-109151577D01*
X108999500Y-109348422D01*
X109030290Y-109542826D01*
X109091117Y-109730029D01*
X109180476Y-109905405D01*
X109296172Y-110064646D01*
X109435354Y-110203828D01*
X109594595Y-110319524D01*
X109677455Y-110361743D01*
X109769970Y-110408882D01*
X109769972Y-110408882D01*
X109769975Y-110408884D01*
X109870317Y-110441487D01*
X109957173Y-110469709D01*
X110151578Y-110500500D01*
X110151583Y-110500500D01*
X110348422Y-110500500D01*
X110542826Y-110469709D01*
X110612424Y-110447095D01*
X110730025Y-110408884D01*
X110905405Y-110319524D01*
X111045067Y-110218053D01*
X111675000Y-110218053D01*
X111685613Y-110306443D01*
X111741079Y-110447095D01*
X111832435Y-110567564D01*
X111952904Y-110658920D01*
X112093556Y-110714386D01*
X112181946Y-110725000D01*
X112450000Y-110725000D01*
X112950000Y-110725000D01*
X113218054Y-110725000D01*
X113306443Y-110714386D01*
X113447095Y-110658920D01*
X113567564Y-110567564D01*
X113658920Y-110447095D01*
X113714386Y-110306443D01*
X113725000Y-110218053D01*
X113725000Y-110087500D01*
X112950000Y-110087500D01*
X112950000Y-110725000D01*
X112450000Y-110725000D01*
X112450000Y-110087500D01*
X111675000Y-110087500D01*
X111675000Y-110218053D01*
X111045067Y-110218053D01*
X111064646Y-110203828D01*
X111203828Y-110064646D01*
X111319524Y-109905405D01*
X111408884Y-109730025D01*
X111446569Y-109614042D01*
X111486007Y-109556368D01*
X111550366Y-109529170D01*
X111619212Y-109541085D01*
X111652181Y-109564681D01*
X111675000Y-109587500D01*
X112450000Y-109587500D01*
X112950000Y-109587500D01*
X113725000Y-109587500D01*
X113725000Y-109456946D01*
X113714386Y-109368556D01*
X113658920Y-109227904D01*
X113567564Y-109107435D01*
X113447095Y-109016079D01*
X113306443Y-108960613D01*
X113218054Y-108950000D01*
X112950000Y-108950000D01*
X112950000Y-109587500D01*
X112450000Y-109587500D01*
X112450000Y-108950000D01*
X112181942Y-108950000D01*
X112165399Y-108951986D01*
X112096492Y-108940433D01*
X112044769Y-108893459D01*
X112026653Y-108825979D01*
X112047895Y-108759417D01*
X112062927Y-108741200D01*
X112167312Y-108636815D01*
X112228633Y-108603333D01*
X112254991Y-108600499D01*
X113222871Y-108600499D01*
X113222872Y-108600499D01*
X113282483Y-108594091D01*
X113417331Y-108543796D01*
X113532546Y-108457546D01*
X113618796Y-108342331D01*
X113669091Y-108207483D01*
X113675500Y-108147873D01*
X113675499Y-107377128D01*
X113669091Y-107317517D01*
X113618796Y-107182669D01*
X113618795Y-107182668D01*
X113618793Y-107182664D01*
X113532547Y-107067455D01*
X113532544Y-107067452D01*
X113417335Y-106981206D01*
X113417330Y-106981203D01*
X113331040Y-106949019D01*
X113275107Y-106907147D01*
X113250690Y-106841683D01*
X113265542Y-106773410D01*
X113314947Y-106724005D01*
X113331031Y-106716659D01*
X113392331Y-106693796D01*
X113507546Y-106607546D01*
X113547705Y-106553900D01*
X113603636Y-106512030D01*
X113673328Y-106507046D01*
X113734651Y-106540530D01*
X113745774Y-106553286D01*
X113832435Y-106667564D01*
X113952904Y-106758920D01*
X114093556Y-106814386D01*
X114181946Y-106825000D01*
X114450000Y-106825000D01*
X114450000Y-105050000D01*
X114181946Y-105050000D01*
X114093556Y-105060613D01*
X113952904Y-105116079D01*
X113832432Y-105207437D01*
X113774027Y-105284455D01*
X113717834Y-105325978D01*
X113648113Y-105330529D01*
X113586999Y-105296663D01*
X113575961Y-105283845D01*
X113507546Y-105192454D01*
X113430341Y-105134658D01*
X113392335Y-105106206D01*
X113392328Y-105106202D01*
X113257482Y-105055908D01*
X113257483Y-105055908D01*
X113197883Y-105049501D01*
X113197881Y-105049500D01*
X113197873Y-105049500D01*
X113197864Y-105049500D01*
X112202129Y-105049500D01*
X112202123Y-105049501D01*
X112142516Y-105055908D01*
X112007671Y-105106202D01*
X112007669Y-105106203D01*
X112002275Y-105110242D01*
X111936810Y-105134658D01*
X111868537Y-105119806D01*
X111840284Y-105098655D01*
X110798034Y-104056405D01*
X110764549Y-103995082D01*
X110769533Y-103925390D01*
X110811405Y-103869457D01*
X110829416Y-103858241D01*
X110905405Y-103819524D01*
X111064646Y-103703828D01*
X111203828Y-103564646D01*
X111319524Y-103405405D01*
X111408884Y-103230025D01*
X111469709Y-103042826D01*
X111481633Y-102967539D01*
X111500500Y-102848422D01*
X111500500Y-102692490D01*
X111520185Y-102625451D01*
X111536819Y-102604809D01*
X112471105Y-101670523D01*
X113463051Y-100678578D01*
X113500918Y-100612989D01*
X113522781Y-100575122D01*
X113553700Y-100459731D01*
X113553700Y-99748392D01*
X113570314Y-99686391D01*
X113593350Y-99646491D01*
X113612984Y-99612485D01*
X113650500Y-99472475D01*
X113650500Y-99327525D01*
X113612984Y-99187515D01*
X113586128Y-99141000D01*
X113540511Y-99061988D01*
X113540506Y-99061982D01*
X113438017Y-98959493D01*
X113438011Y-98959488D01*
X113312488Y-98887017D01*
X113312489Y-98887017D01*
X113301006Y-98883940D01*
X113172475Y-98849500D01*
X113027525Y-98849500D01*
X112898993Y-98883940D01*
X112887511Y-98887017D01*
X112761988Y-98959488D01*
X112761982Y-98959493D01*
X112659493Y-99061982D01*
X112659488Y-99061988D01*
X112587017Y-99187511D01*
X112587016Y-99187515D01*
X112549500Y-99327525D01*
X112549500Y-99472475D01*
X112566065Y-99534295D01*
X112587017Y-99612489D01*
X112587018Y-99612490D01*
X112629686Y-99686391D01*
X112646300Y-99748392D01*
X112646300Y-100160708D01*
X112626615Y-100227747D01*
X112609981Y-100248389D01*
X111138115Y-101720254D01*
X111076792Y-101753739D01*
X111007100Y-101748755D01*
X110977549Y-101732891D01*
X110905408Y-101680478D01*
X110905407Y-101680477D01*
X110905405Y-101680476D01*
X110850636Y-101652569D01*
X110730029Y-101591117D01*
X110542826Y-101530290D01*
X110362312Y-101501700D01*
X110362307Y-101501700D01*
X110348417Y-101499500D01*
X110151583Y-101499500D01*
X110137693Y-101501700D01*
X110137688Y-101501700D01*
X109957173Y-101530290D01*
X109769970Y-101591117D01*
X109594594Y-101680476D01*
X109522452Y-101732891D01*
X109435354Y-101796172D01*
X109435352Y-101796174D01*
X109435351Y-101796174D01*
X109296174Y-101935351D01*
X109296174Y-101935352D01*
X109296172Y-101935354D01*
X109246485Y-102003741D01*
X109180476Y-102094594D01*
X109091117Y-102269970D01*
X109030290Y-102457173D01*
X108999500Y-102651577D01*
X107050000Y-102651577D01*
X107050000Y-102647682D01*
X107017990Y-102445582D01*
X106954755Y-102250968D01*
X106861859Y-102068650D01*
X106829474Y-102024077D01*
X106829474Y-102024076D01*
X106273787Y-102579764D01*
X106262518Y-102537708D01*
X106190110Y-102412292D01*
X106087708Y-102309890D01*
X105962292Y-102237482D01*
X105920233Y-102226212D01*
X106475922Y-101670524D01*
X106475921Y-101670523D01*
X106431359Y-101638147D01*
X106431350Y-101638141D01*
X106249031Y-101545244D01*
X106054417Y-101482009D01*
X105852317Y-101450000D01*
X105647683Y-101450000D01*
X105445582Y-101482009D01*
X105250968Y-101545244D01*
X105068644Y-101638143D01*
X105024077Y-101670523D01*
X105024077Y-101670524D01*
X105579766Y-102226212D01*
X105537708Y-102237482D01*
X105412292Y-102309890D01*
X105309890Y-102412292D01*
X105237482Y-102537708D01*
X105226212Y-102579765D01*
X104670524Y-102024077D01*
X104670523Y-102024077D01*
X104638143Y-102068644D01*
X104545244Y-102250968D01*
X104482009Y-102445582D01*
X104450000Y-102647682D01*
X103953700Y-102647682D01*
X103953700Y-100679290D01*
X103973385Y-100612251D01*
X103990015Y-100591613D01*
X104232186Y-100349441D01*
X104293507Y-100315958D01*
X104358180Y-100319192D01*
X104417299Y-100338402D01*
X104588389Y-100365500D01*
X104588390Y-100365500D01*
X104761610Y-100365500D01*
X104761611Y-100365500D01*
X104932701Y-100338402D01*
X105097445Y-100284873D01*
X105251788Y-100206232D01*
X105391928Y-100104414D01*
X105514414Y-99981928D01*
X105616232Y-99841788D01*
X105694873Y-99687445D01*
X105748402Y-99522701D01*
X105775500Y-99351611D01*
X105775500Y-99178389D01*
X105748402Y-99007299D01*
X105694873Y-98842555D01*
X105616232Y-98688212D01*
X105514414Y-98548072D01*
X105391928Y-98425586D01*
X105251788Y-98323768D01*
X105097445Y-98245127D01*
X104932701Y-98191598D01*
X104932699Y-98191597D01*
X104932698Y-98191597D01*
X104801271Y-98170781D01*
X104761611Y-98164500D01*
X104588389Y-98164500D01*
X104548728Y-98170781D01*
X104417302Y-98191597D01*
X104252552Y-98245128D01*
X104098211Y-98323768D01*
X104018256Y-98381859D01*
X103958072Y-98425586D01*
X103958070Y-98425588D01*
X103958069Y-98425588D01*
X103835587Y-98548070D01*
X103733291Y-98688868D01*
X103677960Y-98731533D01*
X103608347Y-98737512D01*
X103546552Y-98704906D01*
X103545292Y-98703663D01*
X102290019Y-97448390D01*
X102256534Y-97387067D01*
X102253700Y-97360709D01*
X102253700Y-95850321D01*
X103574500Y-95850321D01*
X103574500Y-97599678D01*
X103589032Y-97672735D01*
X103589033Y-97672739D01*
X103589034Y-97672740D01*
X103644399Y-97755601D01*
X103708458Y-97798403D01*
X103727260Y-97810966D01*
X103727264Y-97810967D01*
X103800321Y-97825499D01*
X103800324Y-97825500D01*
X103800326Y-97825500D01*
X105549676Y-97825500D01*
X105549677Y-97825499D01*
X105622740Y-97810966D01*
X105705601Y-97755601D01*
X105760966Y-97672740D01*
X105775500Y-97599674D01*
X105775500Y-96638389D01*
X106114500Y-96638389D01*
X106114500Y-96811611D01*
X106141598Y-96982701D01*
X106195127Y-97147445D01*
X106273768Y-97301788D01*
X106375586Y-97441928D01*
X106498072Y-97564414D01*
X106638212Y-97666232D01*
X106792555Y-97744873D01*
X106957299Y-97798402D01*
X107128389Y-97825500D01*
X107128390Y-97825500D01*
X107301610Y-97825500D01*
X107301611Y-97825500D01*
X107472701Y-97798402D01*
X107637445Y-97744873D01*
X107791788Y-97666232D01*
X107931928Y-97564414D01*
X108054414Y-97441928D01*
X108156232Y-97301788D01*
X108234873Y-97147445D01*
X108288402Y-96982701D01*
X108315500Y-96811611D01*
X108315500Y-96638389D01*
X108288402Y-96467299D01*
X108234873Y-96302555D01*
X108156232Y-96148212D01*
X108054414Y-96008072D01*
X107931928Y-95885586D01*
X107791788Y-95783768D01*
X107637445Y-95705127D01*
X107472701Y-95651598D01*
X107472699Y-95651597D01*
X107472698Y-95651597D01*
X107341271Y-95630781D01*
X107301611Y-95624500D01*
X107128389Y-95624500D01*
X107088728Y-95630781D01*
X106957302Y-95651597D01*
X106792552Y-95705128D01*
X106638211Y-95783768D01*
X106558256Y-95841859D01*
X106498072Y-95885586D01*
X106498070Y-95885588D01*
X106498069Y-95885588D01*
X106375588Y-96008069D01*
X106375588Y-96008070D01*
X106375586Y-96008072D01*
X106331859Y-96068256D01*
X106273768Y-96148211D01*
X106195128Y-96302552D01*
X106141597Y-96467302D01*
X106135241Y-96507435D01*
X106114500Y-96638389D01*
X105775500Y-96638389D01*
X105775500Y-95850326D01*
X105775500Y-95850323D01*
X105775499Y-95850321D01*
X105760967Y-95777264D01*
X105760966Y-95777260D01*
X105737630Y-95742335D01*
X105705601Y-95694399D01*
X105622740Y-95639034D01*
X105622739Y-95639033D01*
X105622735Y-95639032D01*
X105549677Y-95624500D01*
X105549674Y-95624500D01*
X103800326Y-95624500D01*
X103800323Y-95624500D01*
X103727264Y-95639032D01*
X103727260Y-95639033D01*
X103644399Y-95694399D01*
X103589033Y-95777260D01*
X103589032Y-95777264D01*
X103574500Y-95850321D01*
X102253700Y-95850321D01*
X102253700Y-95726658D01*
X102273385Y-95659619D01*
X102290021Y-95638975D01*
X102310245Y-95618751D01*
X102310247Y-95618749D01*
X102382137Y-95511159D01*
X102431655Y-95391611D01*
X102456900Y-95264699D01*
X102456900Y-95135301D01*
X102456900Y-95135298D01*
X102431656Y-95008394D01*
X102431655Y-95008393D01*
X102431655Y-95008389D01*
X102419307Y-94978577D01*
X102382139Y-94888845D01*
X102382138Y-94888843D01*
X102310247Y-94781251D01*
X102310244Y-94781247D01*
X102218752Y-94689755D01*
X102218748Y-94689752D01*
X102111156Y-94617861D01*
X102111154Y-94617860D01*
X101991615Y-94568346D01*
X101991605Y-94568343D01*
X101864701Y-94543100D01*
X101864699Y-94543100D01*
X101735301Y-94543100D01*
X101735298Y-94543100D01*
X101701891Y-94549745D01*
X101680907Y-94547867D01*
X101660053Y-94550866D01*
X101646805Y-94544815D01*
X101632300Y-94543518D01*
X101615661Y-94530593D01*
X101596497Y-94521841D01*
X101588623Y-94509589D01*
X101577122Y-94500655D01*
X101570112Y-94480786D01*
X101558723Y-94463063D01*
X101555188Y-94438479D01*
X101553878Y-94434765D01*
X101553700Y-94428128D01*
X101553700Y-94374499D01*
X101573385Y-94307460D01*
X101626189Y-94261705D01*
X101677700Y-94250499D01*
X101697871Y-94250499D01*
X101697872Y-94250499D01*
X101757483Y-94244091D01*
X101892331Y-94193796D01*
X102007546Y-94107546D01*
X102039293Y-94065136D01*
X102099112Y-93985231D01*
X102101382Y-93986930D01*
X102140565Y-93947743D01*
X102208837Y-93932886D01*
X102274303Y-93957298D01*
X102299443Y-93986311D01*
X102300888Y-93985231D01*
X102392452Y-94107544D01*
X102392455Y-94107547D01*
X102507664Y-94193793D01*
X102507671Y-94193797D01*
X102642517Y-94244091D01*
X102642516Y-94244091D01*
X102646293Y-94244497D01*
X102702127Y-94250500D01*
X103657508Y-94250499D01*
X103724547Y-94270183D01*
X103745189Y-94286818D01*
X104076232Y-94617860D01*
X104336950Y-94878578D01*
X104421422Y-94963050D01*
X104524878Y-95022781D01*
X104640269Y-95053700D01*
X107560709Y-95053700D01*
X107627748Y-95073385D01*
X107648390Y-95090019D01*
X108713885Y-96155514D01*
X108747370Y-96216837D01*
X108742386Y-96286529D01*
X108736692Y-96299483D01*
X108735127Y-96302554D01*
X108735125Y-96302559D01*
X108681597Y-96467301D01*
X108675241Y-96507435D01*
X108654500Y-96638389D01*
X108654500Y-96811611D01*
X108681598Y-96982701D01*
X108735127Y-97147445D01*
X108813768Y-97301788D01*
X108915586Y-97441928D01*
X109038072Y-97564414D01*
X109178212Y-97666232D01*
X109332555Y-97744873D01*
X109497299Y-97798402D01*
X109668389Y-97825500D01*
X109668390Y-97825500D01*
X109841610Y-97825500D01*
X109841611Y-97825500D01*
X110012701Y-97798402D01*
X110177445Y-97744873D01*
X110331788Y-97666232D01*
X110471928Y-97564414D01*
X110594414Y-97441928D01*
X110696232Y-97301788D01*
X110711815Y-97271205D01*
X110759789Y-97220408D01*
X110827610Y-97203613D01*
X110893745Y-97226150D01*
X110937197Y-97280865D01*
X110946300Y-97327499D01*
X110946300Y-98566554D01*
X110926615Y-98633593D01*
X110873811Y-98679348D01*
X110804653Y-98689292D01*
X110741097Y-98660267D01*
X110721982Y-98639439D01*
X110632176Y-98515830D01*
X110504169Y-98387823D01*
X110357734Y-98281434D01*
X110196447Y-98199252D01*
X110196441Y-98199250D01*
X110024295Y-98143318D01*
X110024285Y-98143315D01*
X110005000Y-98140260D01*
X110005000Y-98831988D01*
X109947993Y-98799075D01*
X109820826Y-98765000D01*
X109689174Y-98765000D01*
X109562007Y-98799075D01*
X109505000Y-98831988D01*
X109505000Y-98140260D01*
X109485714Y-98143315D01*
X109485704Y-98143318D01*
X109313558Y-98199250D01*
X109313552Y-98199252D01*
X109152265Y-98281434D01*
X109005830Y-98387823D01*
X108877823Y-98515830D01*
X108771434Y-98662265D01*
X108689252Y-98823552D01*
X108689250Y-98823558D01*
X108633318Y-98995704D01*
X108633315Y-98995714D01*
X108630261Y-99015000D01*
X109321988Y-99015000D01*
X109289075Y-99072007D01*
X109255000Y-99199174D01*
X109255000Y-99330826D01*
X109289075Y-99457993D01*
X109321988Y-99515000D01*
X108630261Y-99515000D01*
X108633315Y-99534285D01*
X108633318Y-99534295D01*
X108689250Y-99706441D01*
X108689252Y-99706447D01*
X108740193Y-99806422D01*
X108753089Y-99875091D01*
X108726813Y-99939832D01*
X108669707Y-99980089D01*
X108599901Y-99983081D01*
X108542027Y-99950398D01*
X108299443Y-99707814D01*
X108265958Y-99646491D01*
X108269193Y-99581815D01*
X108288402Y-99522701D01*
X108315500Y-99351611D01*
X108315500Y-99178389D01*
X108288402Y-99007299D01*
X108234873Y-98842555D01*
X108156232Y-98688212D01*
X108054414Y-98548072D01*
X107931928Y-98425586D01*
X107791788Y-98323768D01*
X107637445Y-98245127D01*
X107472701Y-98191598D01*
X107472699Y-98191597D01*
X107472698Y-98191597D01*
X107341271Y-98170781D01*
X107301611Y-98164500D01*
X107128389Y-98164500D01*
X107088728Y-98170781D01*
X106957302Y-98191597D01*
X106792552Y-98245128D01*
X106638211Y-98323768D01*
X106558256Y-98381859D01*
X106498072Y-98425586D01*
X106498070Y-98425588D01*
X106498069Y-98425588D01*
X106375588Y-98548069D01*
X106375588Y-98548070D01*
X106375586Y-98548072D01*
X106362158Y-98566554D01*
X106273768Y-98688211D01*
X106195128Y-98842552D01*
X106141597Y-99007302D01*
X106114500Y-99178389D01*
X106114500Y-99351610D01*
X106141597Y-99522697D01*
X106141597Y-99522699D01*
X106141598Y-99522701D01*
X106195127Y-99687445D01*
X106273768Y-99841788D01*
X106375586Y-99981928D01*
X106498072Y-100104414D01*
X106638212Y-100206232D01*
X106792555Y-100284873D01*
X106957299Y-100338402D01*
X107128389Y-100365500D01*
X107128390Y-100365500D01*
X107301610Y-100365500D01*
X107301611Y-100365500D01*
X107472701Y-100338402D01*
X107531815Y-100319193D01*
X107601654Y-100317197D01*
X107657814Y-100349443D01*
X108471422Y-101163051D01*
X108537010Y-101200918D01*
X108574878Y-101222781D01*
X108690269Y-101253700D01*
X108690271Y-101253700D01*
X110759728Y-101253700D01*
X110759731Y-101253700D01*
X110875122Y-101222781D01*
X110912989Y-101200918D01*
X110978578Y-101163051D01*
X111763050Y-100378579D01*
X111822781Y-100275122D01*
X111825526Y-100264878D01*
X111825527Y-100264876D01*
X111836243Y-100224880D01*
X111853700Y-100159731D01*
X111853700Y-97770802D01*
X111873385Y-97703763D01*
X111926189Y-97658008D01*
X111995347Y-97648064D01*
X112058903Y-97677089D01*
X112093055Y-97725312D01*
X112141079Y-97847095D01*
X112232435Y-97967564D01*
X112352904Y-98058920D01*
X112493556Y-98114386D01*
X112581946Y-98125000D01*
X112850000Y-98125000D01*
X113350000Y-98125000D01*
X113618054Y-98125000D01*
X113706443Y-98114386D01*
X113847095Y-98058920D01*
X113967564Y-97967564D01*
X114058920Y-97847095D01*
X114114386Y-97706443D01*
X114125000Y-97618053D01*
X114125000Y-97487500D01*
X113350000Y-97487500D01*
X113350000Y-98125000D01*
X112850000Y-98125000D01*
X112850000Y-96987500D01*
X113350000Y-96987500D01*
X114125000Y-96987500D01*
X114125000Y-96856946D01*
X114114386Y-96768556D01*
X114058920Y-96627904D01*
X113967564Y-96507435D01*
X113847095Y-96416079D01*
X113706443Y-96360613D01*
X113618054Y-96350000D01*
X113350000Y-96350000D01*
X113350000Y-96987500D01*
X112850000Y-96987500D01*
X112850000Y-96350000D01*
X112581946Y-96350000D01*
X112493556Y-96360613D01*
X112352904Y-96416079D01*
X112232435Y-96507435D01*
X112141079Y-96627904D01*
X112093055Y-96749687D01*
X112050149Y-96804831D01*
X111984241Y-96828024D01*
X111916256Y-96811903D01*
X111867780Y-96761587D01*
X111853700Y-96704197D01*
X111853700Y-94840271D01*
X111853700Y-94840269D01*
X111822781Y-94724878D01*
X111785168Y-94659731D01*
X111763051Y-94621422D01*
X110190019Y-93048390D01*
X110156534Y-92987067D01*
X110153700Y-92960709D01*
X110153700Y-88339291D01*
X110173385Y-88272252D01*
X110190013Y-88251615D01*
X110281639Y-88159989D01*
X110342958Y-88126507D01*
X110412650Y-88131491D01*
X110468584Y-88173362D01*
X110493001Y-88238826D01*
X110489092Y-88279766D01*
X110449500Y-88427525D01*
X110449500Y-88572475D01*
X110487016Y-88712485D01*
X110487017Y-88712488D01*
X110559488Y-88838011D01*
X110559490Y-88838013D01*
X110559491Y-88838015D01*
X110661985Y-88940509D01*
X110661986Y-88940510D01*
X110661988Y-88940511D01*
X110787511Y-89012982D01*
X110787512Y-89012982D01*
X110787515Y-89012984D01*
X110927525Y-89050500D01*
X110927528Y-89050500D01*
X111072471Y-89050500D01*
X111072475Y-89050500D01*
X111091059Y-89045520D01*
X111160904Y-89047181D01*
X111218768Y-89086341D01*
X111246275Y-89150568D01*
X111234691Y-89219471D01*
X111192237Y-89266175D01*
X111192871Y-89267001D01*
X111188293Y-89270513D01*
X111187694Y-89271173D01*
X111186546Y-89271853D01*
X111186419Y-89271951D01*
X110536948Y-89921422D01*
X110500432Y-89984673D01*
X110500430Y-89984675D01*
X110477221Y-90024872D01*
X110477220Y-90024873D01*
X110477219Y-90024878D01*
X110446300Y-90140269D01*
X110446300Y-90140271D01*
X110446300Y-90990437D01*
X110438528Y-91029506D01*
X110439120Y-91029665D01*
X110437017Y-91037513D01*
X110437016Y-91037515D01*
X110399500Y-91177525D01*
X110399500Y-91322475D01*
X110423114Y-91410601D01*
X110437017Y-91462488D01*
X110509488Y-91588011D01*
X110509490Y-91588013D01*
X110509491Y-91588015D01*
X110611985Y-91690509D01*
X110611986Y-91690510D01*
X110611988Y-91690511D01*
X110737511Y-91762982D01*
X110737512Y-91762982D01*
X110737515Y-91762984D01*
X110877525Y-91800500D01*
X110877528Y-91800500D01*
X111022472Y-91800500D01*
X111022475Y-91800500D01*
X111162485Y-91762984D01*
X111288015Y-91690509D01*
X111390509Y-91588015D01*
X111461947Y-91464280D01*
X111512514Y-91416065D01*
X111581121Y-91402842D01*
X111638222Y-91423177D01*
X111702260Y-91465966D01*
X111702262Y-91465966D01*
X111702264Y-91465967D01*
X111775321Y-91480499D01*
X111775324Y-91480500D01*
X111775326Y-91480500D01*
X112159800Y-91480500D01*
X112226839Y-91500185D01*
X112272594Y-91552989D01*
X112283800Y-91604500D01*
X112283800Y-92246395D01*
X112264115Y-92313434D01*
X112234111Y-92345661D01*
X112183530Y-92383525D01*
X112102664Y-92491549D01*
X112102662Y-92491552D01*
X112055509Y-92617975D01*
X112049500Y-92673855D01*
X112049500Y-93526144D01*
X112055509Y-93582024D01*
X112102662Y-93708447D01*
X112102664Y-93708450D01*
X112183528Y-93816472D01*
X112183531Y-93816474D01*
X112183532Y-93816475D01*
X112234109Y-93854336D01*
X112275981Y-93910269D01*
X112283800Y-93953604D01*
X112283800Y-94404347D01*
X112264115Y-94471386D01*
X112259067Y-94478658D01*
X112181203Y-94582669D01*
X112181202Y-94582671D01*
X112130910Y-94717513D01*
X112130909Y-94717517D01*
X112124500Y-94777127D01*
X112124500Y-94777134D01*
X112124500Y-94777135D01*
X112124500Y-95547870D01*
X112124501Y-95547876D01*
X112130908Y-95607483D01*
X112181202Y-95742328D01*
X112181206Y-95742335D01*
X112267452Y-95857544D01*
X112267455Y-95857547D01*
X112382664Y-95943793D01*
X112382671Y-95943797D01*
X112517517Y-95994091D01*
X112517516Y-95994091D01*
X112524444Y-95994835D01*
X112577127Y-96000500D01*
X113622872Y-96000499D01*
X113682483Y-95994091D01*
X113817331Y-95943796D01*
X113932546Y-95857546D01*
X114018796Y-95742331D01*
X114069091Y-95607483D01*
X114075500Y-95547873D01*
X114075499Y-94777128D01*
X114069091Y-94717517D01*
X114058736Y-94689755D01*
X114018797Y-94582671D01*
X114018793Y-94582664D01*
X113932547Y-94467455D01*
X113932544Y-94467452D01*
X113817335Y-94381206D01*
X113817328Y-94381202D01*
X113682482Y-94330908D01*
X113682483Y-94330908D01*
X113622883Y-94324501D01*
X113622881Y-94324500D01*
X113622873Y-94324500D01*
X113622865Y-94324500D01*
X113315200Y-94324500D01*
X113306514Y-94321949D01*
X113297553Y-94323238D01*
X113273512Y-94312259D01*
X113248161Y-94304815D01*
X113242233Y-94297974D01*
X113233997Y-94294213D01*
X113219707Y-94271978D01*
X113202406Y-94252011D01*
X113200118Y-94241496D01*
X113196223Y-94235435D01*
X113191200Y-94200500D01*
X113191200Y-93953604D01*
X113210885Y-93886565D01*
X113240891Y-93854336D01*
X113291472Y-93816472D01*
X113372336Y-93708450D01*
X113419491Y-93582022D01*
X113423146Y-93548023D01*
X113425499Y-93526144D01*
X113425500Y-93526129D01*
X113425500Y-92673870D01*
X113425499Y-92673855D01*
X113422645Y-92647318D01*
X113419491Y-92617978D01*
X113372336Y-92491550D01*
X113291472Y-92383528D01*
X113291470Y-92383526D01*
X113291469Y-92383525D01*
X113240889Y-92345661D01*
X113199018Y-92289728D01*
X113191200Y-92246395D01*
X113191200Y-91604500D01*
X113210885Y-91537461D01*
X113263689Y-91491706D01*
X113315200Y-91480500D01*
X113524676Y-91480500D01*
X113524677Y-91480499D01*
X113597740Y-91465966D01*
X113680601Y-91410601D01*
X113735966Y-91327740D01*
X113750500Y-91254674D01*
X113750500Y-90555326D01*
X113750500Y-90555323D01*
X113750499Y-90555321D01*
X113735967Y-90482264D01*
X113735966Y-90482260D01*
X113735939Y-90482219D01*
X113680601Y-90399399D01*
X113641244Y-90373102D01*
X113596439Y-90319491D01*
X113587730Y-90250166D01*
X113617884Y-90187139D01*
X113641243Y-90166898D01*
X113680601Y-90140601D01*
X113735966Y-90057740D01*
X113747839Y-89998050D01*
X113750500Y-89984675D01*
X113750500Y-89285323D01*
X113750499Y-89285321D01*
X113735967Y-89212264D01*
X113735966Y-89212260D01*
X113735938Y-89212218D01*
X113680601Y-89129399D01*
X113641244Y-89103102D01*
X113596439Y-89049491D01*
X113587730Y-88980166D01*
X113617884Y-88917139D01*
X113641243Y-88896898D01*
X113680601Y-88870601D01*
X113735966Y-88787740D01*
X113750500Y-88714674D01*
X113750500Y-88015326D01*
X113750500Y-88015323D01*
X113750499Y-88015321D01*
X113735967Y-87942264D01*
X113735966Y-87942260D01*
X113724352Y-87924878D01*
X113680601Y-87859399D01*
X113641244Y-87833102D01*
X113596439Y-87779491D01*
X113587730Y-87710166D01*
X113617884Y-87647139D01*
X113641243Y-87626898D01*
X113680601Y-87600601D01*
X113735966Y-87517740D01*
X113750500Y-87444674D01*
X113750500Y-86745326D01*
X113750500Y-86745323D01*
X113750499Y-86745321D01*
X113735967Y-86672264D01*
X113735966Y-86672260D01*
X113735938Y-86672218D01*
X113680601Y-86589399D01*
X113597740Y-86534034D01*
X113597739Y-86534033D01*
X113597735Y-86534032D01*
X113524677Y-86519500D01*
X113524674Y-86519500D01*
X111775326Y-86519500D01*
X111775323Y-86519500D01*
X111702264Y-86534032D01*
X111702260Y-86534034D01*
X111619401Y-86589397D01*
X111610766Y-86598033D01*
X111609220Y-86596488D01*
X111567933Y-86630995D01*
X111518441Y-86641300D01*
X110645266Y-86641300D01*
X110614351Y-86649583D01*
X110614351Y-86649584D01*
X110586193Y-86657128D01*
X110529877Y-86672218D01*
X110529876Y-86672219D01*
X110426425Y-86731947D01*
X110426419Y-86731951D01*
X109336948Y-87821422D01*
X109325600Y-87841079D01*
X109312915Y-87863051D01*
X109277219Y-87924878D01*
X109246300Y-88040269D01*
X109246300Y-88040271D01*
X109246300Y-93259730D01*
X109277219Y-93375123D01*
X109284296Y-93387380D01*
X109284297Y-93387382D01*
X109336946Y-93478574D01*
X109336950Y-93478579D01*
X110909981Y-95051610D01*
X110943466Y-95112933D01*
X110946300Y-95139291D01*
X110946300Y-96122500D01*
X110926615Y-96189539D01*
X110873811Y-96235294D01*
X110804653Y-96245238D01*
X110741097Y-96216213D01*
X110711816Y-96178796D01*
X110696233Y-96148214D01*
X110696231Y-96148211D01*
X110594414Y-96008072D01*
X110471928Y-95885586D01*
X110331788Y-95783768D01*
X110177445Y-95705127D01*
X110012701Y-95651598D01*
X110012699Y-95651597D01*
X110012698Y-95651597D01*
X109881271Y-95630781D01*
X109841611Y-95624500D01*
X109668389Y-95624500D01*
X109612727Y-95633316D01*
X109576638Y-95639032D01*
X109556187Y-95642271D01*
X109486893Y-95633316D01*
X109449108Y-95607479D01*
X108078577Y-94236948D01*
X108056371Y-94224128D01*
X108003834Y-94193796D01*
X107975122Y-94177219D01*
X107859731Y-94146300D01*
X107859729Y-94146300D01*
X104939290Y-94146300D01*
X104872251Y-94126615D01*
X104851609Y-94109981D01*
X104186818Y-93445189D01*
X104153333Y-93383866D01*
X104150499Y-93357508D01*
X104150499Y-93002129D01*
X104150498Y-93002123D01*
X104144091Y-92942516D01*
X104093797Y-92807671D01*
X104093793Y-92807664D01*
X104007547Y-92692455D01*
X104007544Y-92692452D01*
X103892335Y-92606206D01*
X103892328Y-92606202D01*
X103757482Y-92555908D01*
X103757483Y-92555908D01*
X103697883Y-92549501D01*
X103697881Y-92549500D01*
X103697873Y-92549500D01*
X103697864Y-92549500D01*
X102702129Y-92549500D01*
X102702123Y-92549501D01*
X102642516Y-92555908D01*
X102507671Y-92606202D01*
X102507664Y-92606206D01*
X102392455Y-92692452D01*
X102392452Y-92692455D01*
X102300888Y-92814769D01*
X102298618Y-92813070D01*
X102259420Y-92852264D01*
X102191146Y-92867111D01*
X102125683Y-92842690D01*
X102100554Y-92813689D01*
X102099112Y-92814769D01*
X102007547Y-92692455D01*
X102007544Y-92692452D01*
X101892335Y-92606206D01*
X101892328Y-92606202D01*
X101757482Y-92555908D01*
X101757483Y-92555908D01*
X101697883Y-92549501D01*
X101697881Y-92549500D01*
X101697873Y-92549500D01*
X101697864Y-92549500D01*
X100702129Y-92549500D01*
X100702120Y-92549501D01*
X100637752Y-92556420D01*
X100622347Y-92553640D01*
X100606853Y-92555868D01*
X100588665Y-92547562D01*
X100568992Y-92544012D01*
X100557536Y-92533345D01*
X100543297Y-92526843D01*
X100532487Y-92510023D01*
X100517856Y-92496400D01*
X100513479Y-92480445D01*
X100505523Y-92468065D01*
X100500500Y-92433130D01*
X100500500Y-92366868D01*
X100520185Y-92299829D01*
X100572989Y-92254074D01*
X100637756Y-92243579D01*
X100642516Y-92244090D01*
X100642517Y-92244091D01*
X100702127Y-92250500D01*
X101697872Y-92250499D01*
X101757483Y-92244091D01*
X101892331Y-92193796D01*
X102007546Y-92107546D01*
X102039293Y-92065136D01*
X102099112Y-91985231D01*
X102101382Y-91986930D01*
X102140565Y-91947743D01*
X102208837Y-91932886D01*
X102274303Y-91957298D01*
X102299443Y-91986311D01*
X102300888Y-91985231D01*
X102392452Y-92107544D01*
X102392455Y-92107547D01*
X102507664Y-92193793D01*
X102507671Y-92193797D01*
X102642517Y-92244091D01*
X102642516Y-92244091D01*
X102649444Y-92244835D01*
X102702127Y-92250500D01*
X103697872Y-92250499D01*
X103757483Y-92244091D01*
X103892331Y-92193796D01*
X104007546Y-92107546D01*
X104093796Y-91992331D01*
X104144091Y-91857483D01*
X104150500Y-91797873D01*
X104150499Y-91529731D01*
X104170183Y-91462694D01*
X104222987Y-91416939D01*
X104292146Y-91406995D01*
X104343389Y-91426630D01*
X104402260Y-91465966D01*
X104402264Y-91465967D01*
X104475321Y-91480499D01*
X104475324Y-91480500D01*
X104475326Y-91480500D01*
X106224676Y-91480500D01*
X106224677Y-91480499D01*
X106297740Y-91465966D01*
X106380601Y-91410601D01*
X106435966Y-91327740D01*
X106450500Y-91254674D01*
X106450500Y-90555326D01*
X106450500Y-90555323D01*
X106450499Y-90555321D01*
X106435967Y-90482264D01*
X106435966Y-90482260D01*
X106435939Y-90482219D01*
X106380601Y-90399399D01*
X106341244Y-90373102D01*
X106296439Y-90319491D01*
X106287730Y-90250166D01*
X106317884Y-90187139D01*
X106341243Y-90166898D01*
X106380601Y-90140601D01*
X106435966Y-90057740D01*
X106447839Y-89998050D01*
X106450500Y-89984675D01*
X106450500Y-89285323D01*
X106450499Y-89285321D01*
X106435967Y-89212264D01*
X106435966Y-89212260D01*
X106435938Y-89212218D01*
X106380601Y-89129399D01*
X106380599Y-89129398D01*
X106380599Y-89129397D01*
X106341245Y-89103102D01*
X106323532Y-89081908D01*
X106303355Y-89063040D01*
X106301442Y-89055476D01*
X106296439Y-89049490D01*
X106292996Y-89022082D01*
X106286224Y-88995303D01*
X106288704Y-88987905D01*
X106287732Y-88980165D01*
X106299653Y-88955247D01*
X106308434Y-88929057D01*
X106315494Y-88922136D01*
X106317886Y-88917138D01*
X106332540Y-88903279D01*
X106336755Y-88899897D01*
X106380601Y-88870601D01*
X106389067Y-88857929D01*
X106403964Y-88845979D01*
X106419321Y-88839656D01*
X106432067Y-88829005D01*
X106458636Y-88823472D01*
X106468574Y-88819382D01*
X106473745Y-88820326D01*
X106481559Y-88818700D01*
X106994728Y-88818700D01*
X106994731Y-88818700D01*
X107110122Y-88787781D01*
X107152957Y-88763050D01*
X107213578Y-88728051D01*
X108363050Y-87578578D01*
X108422781Y-87475122D01*
X108424455Y-87468872D01*
X108427356Y-87458048D01*
X108427356Y-87458045D01*
X108430938Y-87444678D01*
X108453700Y-87359731D01*
X108453700Y-84094319D01*
X108473385Y-84027280D01*
X108526189Y-83981525D01*
X108564448Y-83971029D01*
X108582483Y-83969091D01*
X108717331Y-83918796D01*
X108832546Y-83832546D01*
X108918796Y-83717331D01*
X108922446Y-83707546D01*
X108935753Y-83671868D01*
X108977623Y-83615934D01*
X109043088Y-83591516D01*
X109051935Y-83591200D01*
X109898209Y-83591200D01*
X109965248Y-83610885D01*
G37*
%TD.AperFunction*%
%TA.AperFunction,Conductor*%
G36*
X108885000Y-121165243D02*
G01*
X109030513Y-121104970D01*
X109030526Y-121104963D01*
X109167281Y-121013587D01*
X109217319Y-120963549D01*
X109223813Y-120960002D01*
X109228092Y-120953961D01*
X109254065Y-120943483D01*
X109278642Y-120930063D01*
X109286024Y-120930590D01*
X109292888Y-120927822D01*
X109320400Y-120933049D01*
X109348333Y-120935047D01*
X109355956Y-120939805D01*
X109361530Y-120940864D01*
X109384777Y-120957792D01*
X109390334Y-120961260D01*
X109391517Y-120962382D01*
X109404273Y-120975138D01*
X109406617Y-120976704D01*
X109412633Y-120982410D01*
X109428035Y-121008927D01*
X109445295Y-121034259D01*
X109446241Y-121040270D01*
X109447727Y-121042827D01*
X109447486Y-121048171D01*
X109451300Y-121072379D01*
X109451300Y-133726675D01*
X109431615Y-133793714D01*
X109378811Y-133839469D01*
X109351033Y-133846971D01*
X109351300Y-133848311D01*
X109272264Y-133864032D01*
X109260979Y-133868707D01*
X109259346Y-133864767D01*
X109214888Y-133878678D01*
X109147511Y-133860179D01*
X109100832Y-133808190D01*
X109088700Y-133754697D01*
X109088700Y-131275271D01*
X109088700Y-131275269D01*
X109057781Y-131159878D01*
X108998050Y-131056422D01*
X108913578Y-130971950D01*
X107855019Y-129913390D01*
X107821534Y-129852067D01*
X107818700Y-129825709D01*
X107818700Y-121072379D01*
X107827783Y-121041442D01*
X107835475Y-121010098D01*
X107837785Y-121007382D01*
X107838385Y-121005340D01*
X107857365Y-120982412D01*
X107863381Y-120976705D01*
X107865727Y-120975138D01*
X107878497Y-120962367D01*
X107879663Y-120961262D01*
X107909378Y-120946041D01*
X107938636Y-120930064D01*
X107940333Y-120930185D01*
X107941849Y-120929409D01*
X107975063Y-120932668D01*
X108008328Y-120935046D01*
X108009955Y-120936091D01*
X108011385Y-120936232D01*
X108016645Y-120940391D01*
X108052679Y-120963548D01*
X108102718Y-121013587D01*
X108239473Y-121104963D01*
X108239486Y-121104970D01*
X108384999Y-121165243D01*
X108385000Y-121165243D01*
X108385000Y-120375277D01*
X108461306Y-120419333D01*
X108575756Y-120450000D01*
X108694244Y-120450000D01*
X108808694Y-120419333D01*
X108885000Y-120375277D01*
X108885000Y-121165243D01*
G37*
%TD.AperFunction*%
%TA.AperFunction,Conductor*%
G36*
X106766630Y-51967052D02*
G01*
X106824863Y-52005662D01*
X106852473Y-52066120D01*
X106878317Y-52229293D01*
X106934251Y-52401444D01*
X106934252Y-52401447D01*
X107016431Y-52562730D01*
X107027913Y-52578532D01*
X107027913Y-52578533D01*
X107517037Y-52089408D01*
X107534075Y-52152993D01*
X107599901Y-52267007D01*
X107692993Y-52360099D01*
X107807007Y-52425925D01*
X107870590Y-52442962D01*
X107381466Y-52932085D01*
X107381466Y-52932086D01*
X107397267Y-52943566D01*
X107397275Y-52943571D01*
X107558552Y-53025747D01*
X107558555Y-53025748D01*
X107730706Y-53081682D01*
X107893879Y-53107527D01*
X107957014Y-53137456D01*
X107993945Y-53196768D01*
X107992947Y-53266630D01*
X107954337Y-53324863D01*
X107893879Y-53352473D01*
X107730706Y-53378317D01*
X107558555Y-53434251D01*
X107558547Y-53434254D01*
X107397269Y-53516432D01*
X107381466Y-53527912D01*
X107381466Y-53527913D01*
X107870591Y-54017037D01*
X107807007Y-54034075D01*
X107692993Y-54099901D01*
X107599901Y-54192993D01*
X107534075Y-54307007D01*
X107517037Y-54370590D01*
X107027912Y-53881466D01*
X107016432Y-53897269D01*
X106934254Y-54058547D01*
X106934251Y-54058555D01*
X106878317Y-54230706D01*
X106852473Y-54393879D01*
X106822544Y-54457014D01*
X106763232Y-54493945D01*
X106693370Y-54492947D01*
X106635137Y-54454337D01*
X106607527Y-54393879D01*
X106581682Y-54230706D01*
X106525748Y-54058555D01*
X106525747Y-54058552D01*
X106443571Y-53897275D01*
X106443566Y-53897267D01*
X106432085Y-53881466D01*
X105942962Y-54370589D01*
X105925925Y-54307007D01*
X105860099Y-54192993D01*
X105767007Y-54099901D01*
X105652993Y-54034075D01*
X105589409Y-54017037D01*
X106078533Y-53527913D01*
X106062730Y-53516431D01*
X105901447Y-53434252D01*
X105901444Y-53434251D01*
X105729293Y-53378317D01*
X105566120Y-53352473D01*
X105502985Y-53322544D01*
X105466054Y-53263232D01*
X105467052Y-53193370D01*
X105505662Y-53135137D01*
X105566120Y-53107527D01*
X105729293Y-53081682D01*
X105901444Y-53025748D01*
X105901452Y-53025745D01*
X106062730Y-52943568D01*
X106078532Y-52932085D01*
X106078533Y-52932085D01*
X105589410Y-52442962D01*
X105652993Y-52425925D01*
X105767007Y-52360099D01*
X105860099Y-52267007D01*
X105925925Y-52152993D01*
X105942962Y-52089410D01*
X106432085Y-52578533D01*
X106432085Y-52578532D01*
X106443568Y-52562730D01*
X106525745Y-52401452D01*
X106525748Y-52401444D01*
X106581682Y-52229293D01*
X106607527Y-52066120D01*
X106637456Y-52002985D01*
X106696768Y-51966054D01*
X106766630Y-51967052D01*
G37*
%TD.AperFunction*%
%TA.AperFunction,Conductor*%
G36*
X109306630Y-51967052D02*
G01*
X109364863Y-52005662D01*
X109392473Y-52066120D01*
X109418317Y-52229293D01*
X109474251Y-52401444D01*
X109474252Y-52401447D01*
X109556431Y-52562730D01*
X109567913Y-52578532D01*
X109567913Y-52578533D01*
X110057037Y-52089409D01*
X110074075Y-52152993D01*
X110139901Y-52267007D01*
X110232993Y-52360099D01*
X110347007Y-52425925D01*
X110410590Y-52442962D01*
X109921466Y-52932085D01*
X109921466Y-52932086D01*
X109937267Y-52943566D01*
X109937275Y-52943571D01*
X110098552Y-53025747D01*
X110098555Y-53025748D01*
X110270706Y-53081682D01*
X110433879Y-53107527D01*
X110497014Y-53137456D01*
X110533945Y-53196768D01*
X110532947Y-53266630D01*
X110494337Y-53324863D01*
X110433879Y-53352473D01*
X110270706Y-53378317D01*
X110098555Y-53434251D01*
X110098547Y-53434254D01*
X109937269Y-53516432D01*
X109921466Y-53527912D01*
X109921466Y-53527913D01*
X110410591Y-54017037D01*
X110347007Y-54034075D01*
X110232993Y-54099901D01*
X110139901Y-54192993D01*
X110074075Y-54307007D01*
X110057037Y-54370590D01*
X109567913Y-53881466D01*
X109567912Y-53881466D01*
X109556432Y-53897269D01*
X109474254Y-54058547D01*
X109474251Y-54058555D01*
X109418317Y-54230706D01*
X109392473Y-54393879D01*
X109362544Y-54457014D01*
X109303232Y-54493945D01*
X109233370Y-54492947D01*
X109175137Y-54454337D01*
X109147527Y-54393879D01*
X109121682Y-54230706D01*
X109065748Y-54058555D01*
X109065747Y-54058552D01*
X108983571Y-53897275D01*
X108983566Y-53897267D01*
X108972085Y-53881466D01*
X108482962Y-54370589D01*
X108465925Y-54307007D01*
X108400099Y-54192993D01*
X108307007Y-54099901D01*
X108192993Y-54034075D01*
X108129409Y-54017037D01*
X108618533Y-53527913D01*
X108602730Y-53516431D01*
X108441447Y-53434252D01*
X108441444Y-53434251D01*
X108269293Y-53378317D01*
X108106120Y-53352473D01*
X108042985Y-53322544D01*
X108006054Y-53263232D01*
X108007052Y-53193370D01*
X108045662Y-53135137D01*
X108106120Y-53107527D01*
X108269293Y-53081682D01*
X108441444Y-53025748D01*
X108441452Y-53025745D01*
X108602730Y-52943568D01*
X108618532Y-52932085D01*
X108618533Y-52932085D01*
X108129410Y-52442962D01*
X108192993Y-52425925D01*
X108307007Y-52360099D01*
X108400099Y-52267007D01*
X108465925Y-52152993D01*
X108482962Y-52089410D01*
X108972085Y-52578533D01*
X108972085Y-52578532D01*
X108983568Y-52562730D01*
X109065745Y-52401452D01*
X109065748Y-52401444D01*
X109121682Y-52229293D01*
X109147527Y-52066120D01*
X109177456Y-52002985D01*
X109236768Y-51966054D01*
X109306630Y-51967052D01*
G37*
%TD.AperFunction*%
%TA.AperFunction,Conductor*%
G36*
X115442539Y-50520185D02*
G01*
X115488294Y-50572989D01*
X115499500Y-50624500D01*
X115499500Y-61500998D01*
X115495705Y-61513921D01*
X115496666Y-61527356D01*
X115486053Y-61546792D01*
X115479815Y-61568037D01*
X115469637Y-61576856D01*
X115463181Y-61588680D01*
X115443742Y-61599293D01*
X115427011Y-61613792D01*
X115413680Y-61615708D01*
X115401858Y-61622164D01*
X115379771Y-61620584D01*
X115357853Y-61623736D01*
X115344082Y-61618032D01*
X115332166Y-61617180D01*
X115301189Y-61600265D01*
X115254189Y-61565081D01*
X115212318Y-61509147D01*
X115204500Y-61465814D01*
X115204500Y-59133583D01*
X115204500Y-59133581D01*
X115170119Y-59005270D01*
X115145808Y-58963162D01*
X115103701Y-58890230D01*
X113874318Y-57660847D01*
X113840833Y-57599524D01*
X113837999Y-57573166D01*
X113837999Y-56977129D01*
X113837998Y-56977123D01*
X113837997Y-56977116D01*
X113831591Y-56917517D01*
X113794221Y-56817324D01*
X113781297Y-56782671D01*
X113781293Y-56782664D01*
X113695048Y-56667457D01*
X113695046Y-56667454D01*
X113695042Y-56667451D01*
X113695039Y-56667448D01*
X113634189Y-56621895D01*
X113592318Y-56565961D01*
X113584500Y-56522629D01*
X113584500Y-55554051D01*
X113604185Y-55487012D01*
X113652208Y-55443565D01*
X113656788Y-55441232D01*
X113796928Y-55339414D01*
X113919414Y-55216928D01*
X114021232Y-55076788D01*
X114099873Y-54922445D01*
X114153402Y-54757701D01*
X114180500Y-54586611D01*
X114180500Y-54413389D01*
X114153402Y-54242299D01*
X114099873Y-54077555D01*
X114021232Y-53923212D01*
X113919414Y-53783072D01*
X113796928Y-53660586D01*
X113656788Y-53558768D01*
X113656668Y-53558706D01*
X113652195Y-53556427D01*
X113601404Y-53508448D01*
X113584500Y-53445947D01*
X113584500Y-53014051D01*
X113604185Y-52947012D01*
X113652208Y-52903565D01*
X113656788Y-52901232D01*
X113796928Y-52799414D01*
X113919414Y-52676928D01*
X114021232Y-52536788D01*
X114099873Y-52382445D01*
X114153402Y-52217701D01*
X114180500Y-52046611D01*
X114180500Y-51873389D01*
X114153402Y-51702299D01*
X114099873Y-51537555D01*
X114021232Y-51383212D01*
X113919414Y-51243072D01*
X113796928Y-51120586D01*
X113656788Y-51018768D01*
X113502445Y-50940127D01*
X113337701Y-50886598D01*
X113337699Y-50886597D01*
X113337698Y-50886597D01*
X113206271Y-50865781D01*
X113166611Y-50859500D01*
X112993389Y-50859500D01*
X112953728Y-50865781D01*
X112822302Y-50886597D01*
X112657552Y-50940128D01*
X112503211Y-51018768D01*
X112423256Y-51076859D01*
X112363072Y-51120586D01*
X112363070Y-51120588D01*
X112363069Y-51120588D01*
X112240588Y-51243069D01*
X112240588Y-51243070D01*
X112240586Y-51243072D01*
X112196859Y-51303256D01*
X112138768Y-51383211D01*
X112060128Y-51537552D01*
X112006597Y-51702302D01*
X111996349Y-51767007D01*
X111979500Y-51873389D01*
X111979500Y-52046611D01*
X112006598Y-52217701D01*
X112060127Y-52382445D01*
X112138768Y-52536788D01*
X112240586Y-52676928D01*
X112363072Y-52799414D01*
X112411606Y-52834676D01*
X112503207Y-52901229D01*
X112503209Y-52901230D01*
X112503212Y-52901232D01*
X112507791Y-52903565D01*
X112558588Y-52951536D01*
X112575500Y-53014051D01*
X112575500Y-53445947D01*
X112555815Y-53512986D01*
X112507805Y-53556427D01*
X112503213Y-53558767D01*
X112503212Y-53558768D01*
X112363072Y-53660586D01*
X112363070Y-53660588D01*
X112363069Y-53660588D01*
X112240588Y-53783069D01*
X112240588Y-53783070D01*
X112240586Y-53783072D01*
X112196859Y-53843256D01*
X112138768Y-53923211D01*
X112060128Y-54077552D01*
X112006597Y-54242302D01*
X111996349Y-54307007D01*
X111979500Y-54413389D01*
X111979500Y-54586611D01*
X112006598Y-54757701D01*
X112060127Y-54922445D01*
X112138768Y-55076788D01*
X112240586Y-55216928D01*
X112363072Y-55339414D01*
X112442186Y-55396894D01*
X112503207Y-55441229D01*
X112503209Y-55441230D01*
X112503212Y-55441232D01*
X112507791Y-55443565D01*
X112558588Y-55491536D01*
X112575500Y-55554051D01*
X112575500Y-56437173D01*
X112555815Y-56504212D01*
X112503011Y-56549967D01*
X112494834Y-56553355D01*
X112420169Y-56581203D01*
X112420164Y-56581206D01*
X112304955Y-56667452D01*
X112304952Y-56667455D01*
X112218706Y-56782664D01*
X112218702Y-56782671D01*
X112168408Y-56917517D01*
X112162001Y-56977116D01*
X112162001Y-56977123D01*
X112162000Y-56977135D01*
X112162000Y-58022870D01*
X112162001Y-58022876D01*
X112168408Y-58082483D01*
X112218702Y-58217328D01*
X112218706Y-58217335D01*
X112304952Y-58332544D01*
X112304955Y-58332547D01*
X112420164Y-58418793D01*
X112420171Y-58418797D01*
X112465118Y-58435561D01*
X112555017Y-58469091D01*
X112614627Y-58475500D01*
X113210666Y-58475499D01*
X113277705Y-58495183D01*
X113298347Y-58511818D01*
X114159181Y-59372652D01*
X114192666Y-59433975D01*
X114195500Y-59460333D01*
X114195500Y-61465814D01*
X114175815Y-61532853D01*
X114145811Y-61565080D01*
X114042455Y-61642452D01*
X114042452Y-61642455D01*
X113956206Y-61757664D01*
X113956202Y-61757671D01*
X113905910Y-61892513D01*
X113905909Y-61892517D01*
X113899500Y-61952127D01*
X113899500Y-61952134D01*
X113899500Y-61952135D01*
X113899500Y-62647870D01*
X113899501Y-62647876D01*
X113905908Y-62707483D01*
X113956202Y-62842328D01*
X113956206Y-62842335D01*
X114042452Y-62957544D01*
X114042455Y-62957547D01*
X114157664Y-63043793D01*
X114157671Y-63043797D01*
X114195500Y-63057906D01*
X114292517Y-63094091D01*
X114352127Y-63100500D01*
X115047872Y-63100499D01*
X115107483Y-63094091D01*
X115242331Y-63043796D01*
X115301189Y-62999734D01*
X115366652Y-62975317D01*
X115434925Y-62990168D01*
X115484331Y-63039573D01*
X115499500Y-63099001D01*
X115499500Y-65618987D01*
X115479815Y-65686026D01*
X115427011Y-65731781D01*
X115357853Y-65741725D01*
X115330010Y-65734342D01*
X115206443Y-65685613D01*
X115118054Y-65675000D01*
X114987500Y-65675000D01*
X114987500Y-67725000D01*
X115118054Y-67725000D01*
X115206446Y-67714385D01*
X115330010Y-67665658D01*
X115399596Y-67659376D01*
X115461533Y-67691713D01*
X115496154Y-67752401D01*
X115499500Y-67781012D01*
X115499500Y-68779552D01*
X115479815Y-68846591D01*
X115427011Y-68892346D01*
X115357853Y-68902290D01*
X115330011Y-68894907D01*
X115306444Y-68885614D01*
X115218054Y-68875000D01*
X114950000Y-68875000D01*
X114950000Y-70650000D01*
X115218054Y-70650000D01*
X115306443Y-70639386D01*
X115330008Y-70630093D01*
X115361675Y-70627234D01*
X115393147Y-70622709D01*
X115396226Y-70624115D01*
X115399595Y-70623811D01*
X115427772Y-70638522D01*
X115456703Y-70651734D01*
X115458532Y-70654581D01*
X115461532Y-70656147D01*
X115477287Y-70683764D01*
X115494477Y-70710512D01*
X115495127Y-70715035D01*
X115496154Y-70716835D01*
X115499500Y-70745447D01*
X115499500Y-70908257D01*
X115479815Y-70975296D01*
X115427011Y-71021051D01*
X115357853Y-71030995D01*
X115332168Y-71024439D01*
X115282485Y-71005909D01*
X115282483Y-71005908D01*
X115222883Y-70999501D01*
X115222881Y-70999500D01*
X115222873Y-70999500D01*
X115222864Y-70999500D01*
X114177129Y-70999500D01*
X114177123Y-70999501D01*
X114117516Y-71005908D01*
X113982671Y-71056202D01*
X113982664Y-71056206D01*
X113867455Y-71142452D01*
X113867452Y-71142455D01*
X113781206Y-71257664D01*
X113781202Y-71257671D01*
X113730909Y-71392515D01*
X113729139Y-71400009D01*
X113714481Y-71425752D01*
X113702174Y-71452703D01*
X113697385Y-71455780D01*
X113694569Y-71460727D01*
X113668319Y-71474459D01*
X113643396Y-71490477D01*
X113635545Y-71491605D01*
X113632659Y-71493116D01*
X113608461Y-71495500D01*
X113481842Y-71495500D01*
X113414803Y-71475815D01*
X113369048Y-71423011D01*
X113362766Y-71406095D01*
X113353620Y-71374614D01*
X113353618Y-71374611D01*
X113353618Y-71374610D01*
X113295400Y-71276169D01*
X113273172Y-71238583D01*
X113273165Y-71238574D01*
X113161425Y-71126834D01*
X113161416Y-71126827D01*
X113025390Y-71046382D01*
X113025385Y-71046380D01*
X112873633Y-71002292D01*
X112873620Y-71002290D01*
X112838170Y-70999500D01*
X112838163Y-70999500D01*
X112778500Y-70999500D01*
X112711461Y-70979815D01*
X112665706Y-70927011D01*
X112654500Y-70875500D01*
X112654500Y-70143053D01*
X113675000Y-70143053D01*
X113685613Y-70231443D01*
X113741079Y-70372095D01*
X113832435Y-70492564D01*
X113952904Y-70583920D01*
X114093556Y-70639386D01*
X114181946Y-70650000D01*
X114450000Y-70650000D01*
X114450000Y-70012500D01*
X113675000Y-70012500D01*
X113675000Y-70143053D01*
X112654500Y-70143053D01*
X112654500Y-69510332D01*
X112663144Y-69480891D01*
X112669668Y-69450905D01*
X112673422Y-69445889D01*
X112674185Y-69443293D01*
X112690819Y-69422651D01*
X112731524Y-69381946D01*
X113675000Y-69381946D01*
X113675000Y-69512500D01*
X114450000Y-69512500D01*
X114450000Y-68875000D01*
X114181946Y-68875000D01*
X114093556Y-68885613D01*
X113952904Y-68941079D01*
X113832435Y-69032435D01*
X113741079Y-69152904D01*
X113685613Y-69293556D01*
X113675000Y-69381946D01*
X112731524Y-69381946D01*
X112822917Y-69290553D01*
X112937419Y-69176051D01*
X113066200Y-69047270D01*
X113132619Y-68932230D01*
X113152045Y-68859731D01*
X113167000Y-68803919D01*
X113167000Y-67732987D01*
X113186685Y-67665948D01*
X113235077Y-67624015D01*
X113234548Y-67623046D01*
X113239005Y-67620612D01*
X113239489Y-67620193D01*
X113240665Y-67619705D01*
X113242325Y-67618797D01*
X113242331Y-67618796D01*
X113357546Y-67532546D01*
X113443796Y-67417331D01*
X113494091Y-67282483D01*
X113500500Y-67222873D01*
X113500500Y-67218053D01*
X113850000Y-67218053D01*
X113860613Y-67306443D01*
X113916079Y-67447095D01*
X114007435Y-67567564D01*
X114127904Y-67658920D01*
X114268556Y-67714386D01*
X114356946Y-67725000D01*
X114487500Y-67725000D01*
X114487500Y-66950000D01*
X113850000Y-66950000D01*
X113850000Y-67218053D01*
X113500500Y-67218053D01*
X113500499Y-66626833D01*
X113500499Y-66181946D01*
X113850000Y-66181946D01*
X113850000Y-66450000D01*
X114487500Y-66450000D01*
X114487500Y-65675000D01*
X114356946Y-65675000D01*
X114268556Y-65685613D01*
X114127904Y-65741079D01*
X114007435Y-65832435D01*
X113916079Y-65952904D01*
X113860613Y-66093556D01*
X113850000Y-66181946D01*
X113500499Y-66181946D01*
X113500499Y-66178234D01*
X113500499Y-66177129D01*
X113500498Y-66177123D01*
X113494091Y-66117516D01*
X113443797Y-65982671D01*
X113443793Y-65982664D01*
X113357547Y-65867455D01*
X113357544Y-65867452D01*
X113242335Y-65781206D01*
X113242328Y-65781202D01*
X113107482Y-65730908D01*
X113107483Y-65730908D01*
X113047883Y-65724501D01*
X113047881Y-65724500D01*
X113047873Y-65724500D01*
X113047865Y-65724500D01*
X112528500Y-65724500D01*
X112461461Y-65704815D01*
X112415706Y-65652011D01*
X112404500Y-65600500D01*
X112404500Y-63134185D01*
X112424185Y-63067146D01*
X112454185Y-63034921D01*
X112557546Y-62957546D01*
X112643796Y-62842331D01*
X112694091Y-62707483D01*
X112700500Y-62647873D01*
X112700499Y-61952128D01*
X112694091Y-61892517D01*
X112683001Y-61862784D01*
X112643797Y-61757671D01*
X112643793Y-61757664D01*
X112557547Y-61642455D01*
X112557544Y-61642452D01*
X112442335Y-61556206D01*
X112442328Y-61556202D01*
X112307486Y-61505910D01*
X112307485Y-61505909D01*
X112307483Y-61505909D01*
X112247873Y-61499500D01*
X112247863Y-61499500D01*
X111552129Y-61499500D01*
X111552123Y-61499501D01*
X111492516Y-61505908D01*
X111357671Y-61556202D01*
X111357664Y-61556206D01*
X111242455Y-61642452D01*
X111242452Y-61642455D01*
X111156206Y-61757664D01*
X111156202Y-61757671D01*
X111105910Y-61892513D01*
X111105909Y-61892517D01*
X111099500Y-61952127D01*
X111099500Y-61952134D01*
X111099500Y-61952135D01*
X111099500Y-62647870D01*
X111099501Y-62647876D01*
X111105908Y-62707483D01*
X111156202Y-62842328D01*
X111156206Y-62842335D01*
X111242451Y-62957543D01*
X111242452Y-62957544D01*
X111242454Y-62957546D01*
X111345812Y-63034920D01*
X111387682Y-63090852D01*
X111395500Y-63134185D01*
X111395500Y-66003919D01*
X111429881Y-66132230D01*
X111454191Y-66174337D01*
X111496299Y-66247270D01*
X111496301Y-66247272D01*
X111788181Y-66539152D01*
X111821666Y-66600475D01*
X111824500Y-66626833D01*
X111824500Y-67222870D01*
X111824501Y-67222876D01*
X111830908Y-67282483D01*
X111881202Y-67417328D01*
X111881206Y-67417335D01*
X111967452Y-67532544D01*
X111967454Y-67532546D01*
X112082669Y-67618796D01*
X112082671Y-67618796D01*
X112090452Y-67623046D01*
X112089062Y-67625591D01*
X112133248Y-67658651D01*
X112157682Y-67724109D01*
X112158000Y-67732987D01*
X112158000Y-68477167D01*
X112138315Y-68544206D01*
X112121681Y-68564848D01*
X111746300Y-68940228D01*
X111746298Y-68940230D01*
X111726156Y-68975120D01*
X111726155Y-68975121D01*
X111679882Y-69055267D01*
X111679881Y-69055268D01*
X111662690Y-69119425D01*
X111645500Y-69183581D01*
X111645500Y-69183583D01*
X111645500Y-70875500D01*
X111625815Y-70942539D01*
X111573011Y-70988294D01*
X111521502Y-70999500D01*
X111461849Y-70999500D01*
X111461823Y-70999501D01*
X111426372Y-71002291D01*
X111274614Y-71046380D01*
X111274609Y-71046382D01*
X111138583Y-71126827D01*
X111138574Y-71126834D01*
X111026834Y-71238574D01*
X111026827Y-71238583D01*
X110946382Y-71374609D01*
X110946380Y-71374614D01*
X110902292Y-71526366D01*
X110902290Y-71526379D01*
X110899500Y-71561829D01*
X110899500Y-72438150D01*
X110899501Y-72438175D01*
X110902291Y-72473627D01*
X110946380Y-72625385D01*
X110946382Y-72625390D01*
X111026827Y-72761416D01*
X111026834Y-72761425D01*
X111138574Y-72873165D01*
X111138578Y-72873168D01*
X111138580Y-72873170D01*
X111274610Y-72953618D01*
X111426373Y-72997709D01*
X111461837Y-73000500D01*
X112838162Y-73000499D01*
X112873627Y-72997709D01*
X113025390Y-72953618D01*
X113161420Y-72873170D01*
X113273170Y-72761420D01*
X113353618Y-72625390D01*
X113353619Y-72625386D01*
X113353620Y-72625385D01*
X113362766Y-72593905D01*
X113400372Y-72535019D01*
X113463845Y-72505813D01*
X113481842Y-72504500D01*
X113788717Y-72504500D01*
X113855756Y-72524185D01*
X113863028Y-72529233D01*
X113982668Y-72618795D01*
X113982671Y-72618797D01*
X114117517Y-72669091D01*
X114117516Y-72669091D01*
X114124444Y-72669835D01*
X114177127Y-72675500D01*
X115222872Y-72675499D01*
X115282483Y-72669091D01*
X115332167Y-72650559D01*
X115362776Y-72648370D01*
X115393147Y-72644004D01*
X115397302Y-72645901D01*
X115401858Y-72645576D01*
X115428784Y-72660279D01*
X115456703Y-72673029D01*
X115459173Y-72676872D01*
X115463181Y-72679061D01*
X115477884Y-72705988D01*
X115494477Y-72731807D01*
X115495368Y-72738007D01*
X115496666Y-72740384D01*
X115499500Y-72766742D01*
X115499500Y-72879552D01*
X115479815Y-72946591D01*
X115427011Y-72992346D01*
X115357853Y-73002290D01*
X115330011Y-72994907D01*
X115306444Y-72985614D01*
X115218054Y-72975000D01*
X114950000Y-72975000D01*
X114950000Y-74750000D01*
X115218054Y-74750000D01*
X115306443Y-74739386D01*
X115330008Y-74730093D01*
X115361675Y-74727234D01*
X115393147Y-74722709D01*
X115396226Y-74724115D01*
X115399595Y-74723811D01*
X115427772Y-74738522D01*
X115456703Y-74751734D01*
X115458532Y-74754581D01*
X115461532Y-74756147D01*
X115477287Y-74783764D01*
X115494477Y-74810512D01*
X115495127Y-74815035D01*
X115496154Y-74816835D01*
X115499500Y-74845447D01*
X115499500Y-75008257D01*
X115479815Y-75075296D01*
X115427011Y-75121051D01*
X115357853Y-75130995D01*
X115332168Y-75124439D01*
X115282485Y-75105909D01*
X115282483Y-75105908D01*
X115222883Y-75099501D01*
X115222881Y-75099500D01*
X115222873Y-75099500D01*
X115222864Y-75099500D01*
X114177129Y-75099500D01*
X114177123Y-75099501D01*
X114117516Y-75105908D01*
X113982671Y-75156202D01*
X113982664Y-75156206D01*
X113867455Y-75242452D01*
X113867452Y-75242455D01*
X113781206Y-75357664D01*
X113781202Y-75357671D01*
X113749080Y-75443797D01*
X113730909Y-75492517D01*
X113724500Y-75552127D01*
X113724500Y-75838583D01*
X113724501Y-76022300D01*
X113721950Y-76030986D01*
X113723239Y-76039947D01*
X113712261Y-76063983D01*
X113704817Y-76089339D01*
X113697974Y-76095267D01*
X113694214Y-76103503D01*
X113671982Y-76117789D01*
X113652013Y-76135094D01*
X113641497Y-76137381D01*
X113635436Y-76141277D01*
X113600501Y-76146300D01*
X113496600Y-76146300D01*
X113429561Y-76126615D01*
X113383806Y-76073811D01*
X113377525Y-76056901D01*
X113353618Y-75974610D01*
X113273170Y-75838580D01*
X113273168Y-75838578D01*
X113273165Y-75838574D01*
X113161425Y-75726834D01*
X113161416Y-75726827D01*
X113025390Y-75646382D01*
X113025385Y-75646380D01*
X112873633Y-75602292D01*
X112873620Y-75602290D01*
X112838163Y-75599500D01*
X111461849Y-75599500D01*
X111461824Y-75599501D01*
X111426372Y-75602291D01*
X111274614Y-75646380D01*
X111274609Y-75646382D01*
X111138583Y-75726827D01*
X111138574Y-75726834D01*
X111026834Y-75838574D01*
X111026827Y-75838583D01*
X110946382Y-75974609D01*
X110946382Y-75974610D01*
X110922475Y-76056895D01*
X110884870Y-76115780D01*
X110821398Y-76144987D01*
X110803400Y-76146300D01*
X108040269Y-76146300D01*
X107950886Y-76170250D01*
X107950885Y-76170249D01*
X107924879Y-76177218D01*
X107924878Y-76177218D01*
X107821422Y-76236950D01*
X107821419Y-76236952D01*
X107048390Y-77009981D01*
X106987067Y-77043466D01*
X106960709Y-77046300D01*
X103962949Y-77046300D01*
X103895910Y-77026615D01*
X103850155Y-76973811D01*
X103846767Y-76965634D01*
X103845526Y-76962308D01*
X103843796Y-76957669D01*
X103843794Y-76957666D01*
X103843793Y-76957664D01*
X103757547Y-76842455D01*
X103757544Y-76842452D01*
X103642335Y-76756206D01*
X103642328Y-76756202D01*
X103507486Y-76705910D01*
X103507485Y-76705909D01*
X103507483Y-76705909D01*
X103447873Y-76699500D01*
X103447863Y-76699500D01*
X102752129Y-76699500D01*
X102752123Y-76699501D01*
X102692516Y-76705908D01*
X102557671Y-76756202D01*
X102557664Y-76756206D01*
X102442455Y-76842452D01*
X102442452Y-76842455D01*
X102356206Y-76957664D01*
X102356202Y-76957671D01*
X102305910Y-77092513D01*
X102305909Y-77092517D01*
X102299500Y-77152127D01*
X102299500Y-77152134D01*
X102299500Y-77152135D01*
X102299500Y-77847870D01*
X102299501Y-77847876D01*
X102305908Y-77907483D01*
X102356202Y-78042328D01*
X102356206Y-78042335D01*
X102442452Y-78157544D01*
X102442455Y-78157547D01*
X102557664Y-78243793D01*
X102557671Y-78243797D01*
X102592803Y-78256900D01*
X102692517Y-78294091D01*
X102752127Y-78300500D01*
X103447872Y-78300499D01*
X103507483Y-78294091D01*
X103642331Y-78243796D01*
X103757546Y-78157546D01*
X103843796Y-78042331D01*
X103846767Y-78034366D01*
X103888639Y-77978432D01*
X103954104Y-77954016D01*
X103962949Y-77953700D01*
X107259728Y-77953700D01*
X107259731Y-77953700D01*
X107375122Y-77922781D01*
X107412989Y-77900918D01*
X107478578Y-77863051D01*
X108251609Y-77090018D01*
X108312932Y-77056534D01*
X108339290Y-77053700D01*
X109042992Y-77053700D01*
X109110031Y-77073385D01*
X109155786Y-77126189D01*
X109165730Y-77195347D01*
X109146094Y-77246591D01*
X109117861Y-77288843D01*
X109117860Y-77288845D01*
X109068346Y-77408384D01*
X109068343Y-77408394D01*
X109043100Y-77535298D01*
X109043100Y-77535301D01*
X109043100Y-77664699D01*
X109043100Y-77664701D01*
X109043099Y-77664701D01*
X109068343Y-77791605D01*
X109068346Y-77791615D01*
X109117860Y-77911154D01*
X109117861Y-77911156D01*
X109189752Y-78018748D01*
X109189755Y-78018752D01*
X109281247Y-78110244D01*
X109281251Y-78110247D01*
X109388841Y-78182137D01*
X109388842Y-78182137D01*
X109388843Y-78182138D01*
X109388845Y-78182139D01*
X109508384Y-78231653D01*
X109508389Y-78231655D01*
X109508393Y-78231655D01*
X109508394Y-78231656D01*
X109635298Y-78256900D01*
X109635301Y-78256900D01*
X109764701Y-78256900D01*
X109850078Y-78239916D01*
X109891611Y-78231655D01*
X110011159Y-78182137D01*
X110118749Y-78110247D01*
X110210247Y-78018749D01*
X110282137Y-77911159D01*
X110331655Y-77791611D01*
X110356900Y-77664699D01*
X110356900Y-77636091D01*
X110376585Y-77569052D01*
X110393219Y-77548410D01*
X110533245Y-77408384D01*
X110747853Y-77193775D01*
X110809174Y-77160292D01*
X110878865Y-77165276D01*
X110934799Y-77207147D01*
X110941731Y-77219076D01*
X110942411Y-77218675D01*
X111026827Y-77361416D01*
X111026834Y-77361425D01*
X111138574Y-77473165D01*
X111138578Y-77473168D01*
X111138580Y-77473170D01*
X111274610Y-77553618D01*
X111426373Y-77597709D01*
X111461837Y-77600500D01*
X112838162Y-77600499D01*
X112873627Y-77597709D01*
X113025390Y-77553618D01*
X113161420Y-77473170D01*
X113273170Y-77361420D01*
X113353618Y-77225390D01*
X113377524Y-77143104D01*
X113415130Y-77084220D01*
X113478602Y-77055013D01*
X113496600Y-77053700D01*
X114097228Y-77053700D01*
X114097231Y-77053700D01*
X114212622Y-77022781D01*
X114274598Y-76986999D01*
X114316078Y-76963051D01*
X114467311Y-76811816D01*
X114494240Y-76797112D01*
X114520056Y-76780522D01*
X114526256Y-76779630D01*
X114528633Y-76778333D01*
X114554991Y-76775499D01*
X114718100Y-76775499D01*
X114785139Y-76795184D01*
X114830894Y-76847988D01*
X114842100Y-76899499D01*
X114842100Y-78325726D01*
X114822415Y-78392765D01*
X114769611Y-78438520D01*
X114700453Y-78448464D01*
X114636897Y-78419439D01*
X114619297Y-78400652D01*
X114567567Y-78332436D01*
X114447095Y-78241079D01*
X114306443Y-78185613D01*
X114218054Y-78175000D01*
X113950000Y-78175000D01*
X113950000Y-79950000D01*
X114218054Y-79950000D01*
X114306443Y-79939386D01*
X114447095Y-79883920D01*
X114567566Y-79792563D01*
X114619296Y-79724348D01*
X114675489Y-79682824D01*
X114745210Y-79678273D01*
X114806324Y-79712138D01*
X114839428Y-79773668D01*
X114842100Y-79799273D01*
X114842100Y-80356509D01*
X114833455Y-80385946D01*
X114826932Y-80415937D01*
X114823177Y-80420952D01*
X114822415Y-80423548D01*
X114805780Y-80444191D01*
X114751452Y-80498518D01*
X114690129Y-80532002D01*
X114620437Y-80527017D01*
X114564507Y-80485148D01*
X114532546Y-80442454D01*
X114532544Y-80442452D01*
X114532543Y-80442451D01*
X114417335Y-80356206D01*
X114417328Y-80356202D01*
X114282482Y-80305908D01*
X114282483Y-80305908D01*
X114222883Y-80299501D01*
X114222881Y-80299500D01*
X114222873Y-80299500D01*
X114222864Y-80299500D01*
X113177129Y-80299500D01*
X113177123Y-80299501D01*
X113117516Y-80305908D01*
X112982671Y-80356202D01*
X112982664Y-80356206D01*
X112867455Y-80442452D01*
X112867452Y-80442455D01*
X112781206Y-80557664D01*
X112781202Y-80557671D01*
X112730910Y-80692513D01*
X112730909Y-80692517D01*
X112724500Y-80752127D01*
X112724500Y-80752134D01*
X112724500Y-80752135D01*
X112724500Y-81522870D01*
X112724501Y-81522876D01*
X112730908Y-81582483D01*
X112781202Y-81717328D01*
X112781206Y-81717335D01*
X112867452Y-81832544D01*
X112867455Y-81832547D01*
X112982664Y-81918793D01*
X112982671Y-81918797D01*
X113068958Y-81950980D01*
X113124892Y-81992851D01*
X113149309Y-82058315D01*
X113134458Y-82126588D01*
X113085052Y-82175994D01*
X113068958Y-82183344D01*
X113007671Y-82206202D01*
X113007664Y-82206206D01*
X112892455Y-82292452D01*
X112892452Y-82292455D01*
X112806206Y-82407664D01*
X112806202Y-82407671D01*
X112755908Y-82542517D01*
X112754279Y-82557673D01*
X112749501Y-82602123D01*
X112749500Y-82602135D01*
X112749500Y-83397870D01*
X112749501Y-83397876D01*
X112755908Y-83457483D01*
X112806202Y-83592328D01*
X112806206Y-83592335D01*
X112892452Y-83707544D01*
X112892455Y-83707547D01*
X113007664Y-83793793D01*
X113007671Y-83793797D01*
X113021431Y-83798929D01*
X113142517Y-83844091D01*
X113202127Y-83850500D01*
X113857508Y-83850499D01*
X113886954Y-83859145D01*
X113916935Y-83865667D01*
X113921948Y-83869419D01*
X113924547Y-83870183D01*
X113945189Y-83886818D01*
X113996190Y-83937819D01*
X114029675Y-83999142D01*
X114024691Y-84068834D01*
X113982819Y-84124767D01*
X113917355Y-84149184D01*
X113908509Y-84149500D01*
X113202129Y-84149500D01*
X113202123Y-84149501D01*
X113142516Y-84155908D01*
X113007671Y-84206202D01*
X113007664Y-84206206D01*
X112892455Y-84292452D01*
X112892452Y-84292455D01*
X112806206Y-84407664D01*
X112806201Y-84407673D01*
X112784585Y-84465632D01*
X112771315Y-84483358D01*
X112762116Y-84503503D01*
X112750785Y-84510784D01*
X112742715Y-84521566D01*
X112721966Y-84529304D01*
X112703338Y-84541277D01*
X112681422Y-84544428D01*
X112677251Y-84545984D01*
X112668403Y-84546300D01*
X112614344Y-84546300D01*
X112547305Y-84526615D01*
X112501550Y-84473811D01*
X112491606Y-84404653D01*
X112491871Y-84402902D01*
X112500500Y-84348422D01*
X112500500Y-84151577D01*
X112469709Y-83957173D01*
X112416623Y-83793793D01*
X112408884Y-83769975D01*
X112408882Y-83769972D01*
X112408882Y-83769970D01*
X112354729Y-83663689D01*
X112319524Y-83594595D01*
X112203828Y-83435354D01*
X112064646Y-83296172D01*
X111905405Y-83180476D01*
X111730029Y-83091117D01*
X111542826Y-83030290D01*
X111348422Y-82999500D01*
X111348417Y-82999500D01*
X111151583Y-82999500D01*
X111151578Y-82999500D01*
X110957172Y-83030291D01*
X110957169Y-83030291D01*
X110814142Y-83076764D01*
X110744301Y-83078759D01*
X110688143Y-83046514D01*
X110416080Y-82774451D01*
X110416078Y-82774449D01*
X110393190Y-82761234D01*
X110350490Y-82736581D01*
X110350489Y-82736581D01*
X110312622Y-82714719D01*
X110197231Y-82683800D01*
X110197229Y-82683800D01*
X109051935Y-82683800D01*
X108984896Y-82664115D01*
X108939141Y-82611311D01*
X108935753Y-82603132D01*
X108918798Y-82557673D01*
X108918793Y-82557664D01*
X108832547Y-82442455D01*
X108832544Y-82442452D01*
X108717335Y-82356206D01*
X108717328Y-82356202D01*
X108582482Y-82305908D01*
X108582483Y-82305908D01*
X108522883Y-82299501D01*
X108522881Y-82299500D01*
X108522873Y-82299500D01*
X108522864Y-82299500D01*
X107477129Y-82299500D01*
X107477123Y-82299501D01*
X107417516Y-82305908D01*
X107282671Y-82356202D01*
X107282664Y-82356206D01*
X107167455Y-82442452D01*
X107167452Y-82442455D01*
X107081206Y-82557664D01*
X107081201Y-82557673D01*
X107064247Y-82603132D01*
X107022377Y-82659066D01*
X106956912Y-82683484D01*
X106948065Y-82683800D01*
X105802766Y-82683800D01*
X105771851Y-82692083D01*
X105771851Y-82692084D01*
X105743693Y-82699628D01*
X105687377Y-82714718D01*
X105687376Y-82714719D01*
X105583925Y-82774447D01*
X105583923Y-82774448D01*
X105311855Y-83046515D01*
X105250532Y-83079999D01*
X105185856Y-83076764D01*
X105042828Y-83030291D01*
X104848422Y-82999500D01*
X104848417Y-82999500D01*
X104651583Y-82999500D01*
X104651578Y-82999500D01*
X104457173Y-83030290D01*
X104269970Y-83091117D01*
X104094594Y-83180476D01*
X104003741Y-83246485D01*
X103935354Y-83296172D01*
X103935352Y-83296174D01*
X103935351Y-83296174D01*
X103796174Y-83435351D01*
X103796174Y-83435352D01*
X103796172Y-83435354D01*
X103746485Y-83503741D01*
X103680476Y-83594594D01*
X103591117Y-83769970D01*
X103530290Y-83957173D01*
X103499500Y-84151577D01*
X103499500Y-84348422D01*
X103530290Y-84542826D01*
X103591117Y-84730029D01*
X103680476Y-84905405D01*
X103796172Y-85064646D01*
X103935354Y-85203828D01*
X104094595Y-85319524D01*
X104177455Y-85361743D01*
X104269970Y-85408882D01*
X104269972Y-85408882D01*
X104269975Y-85408884D01*
X104370317Y-85441487D01*
X104457173Y-85469709D01*
X104651578Y-85500500D01*
X104651583Y-85500500D01*
X104848422Y-85500500D01*
X105042826Y-85469709D01*
X105230025Y-85408884D01*
X105405405Y-85319524D01*
X105564646Y-85203828D01*
X105703828Y-85064646D01*
X105819524Y-84905405D01*
X105908884Y-84730025D01*
X105969709Y-84542826D01*
X105991116Y-84407669D01*
X106000500Y-84348422D01*
X106000500Y-84151577D01*
X105969709Y-83957173D01*
X105941444Y-83870183D01*
X105923234Y-83814142D01*
X105922800Y-83798929D01*
X105917482Y-83784670D01*
X105921823Y-83764714D01*
X105921240Y-83744303D01*
X105929327Y-83730217D01*
X105932334Y-83716397D01*
X105953485Y-83688143D01*
X105977940Y-83663689D01*
X106014111Y-83627518D01*
X106075435Y-83594034D01*
X106101792Y-83591200D01*
X106948065Y-83591200D01*
X107015104Y-83610885D01*
X107060859Y-83663689D01*
X107064247Y-83671868D01*
X107081201Y-83717326D01*
X107081206Y-83717335D01*
X107167452Y-83832544D01*
X107167455Y-83832547D01*
X107282664Y-83918793D01*
X107282671Y-83918797D01*
X107327618Y-83935561D01*
X107417517Y-83969091D01*
X107435556Y-83971030D01*
X107500104Y-83997766D01*
X107539954Y-84055158D01*
X107546300Y-84094319D01*
X107546300Y-87060709D01*
X107526615Y-87127748D01*
X107509981Y-87148390D01*
X106783390Y-87874981D01*
X106756462Y-87889684D01*
X106730644Y-87906277D01*
X106724443Y-87907168D01*
X106722067Y-87908466D01*
X106695709Y-87911300D01*
X106481559Y-87911300D01*
X106414520Y-87891615D01*
X106389867Y-87867399D01*
X106389234Y-87868033D01*
X106380602Y-87859400D01*
X106380601Y-87859399D01*
X106380599Y-87859397D01*
X106371962Y-87850760D01*
X106374731Y-87847990D01*
X106344094Y-87811335D01*
X106335383Y-87742011D01*
X106365534Y-87678981D01*
X106370106Y-87674157D01*
X106451788Y-87592475D01*
X106451788Y-87592474D01*
X106497089Y-87489877D01*
X106497089Y-87489875D01*
X106499999Y-87464794D01*
X106500000Y-87464791D01*
X106500000Y-87345000D01*
X104200001Y-87345000D01*
X104200001Y-87464785D01*
X104200002Y-87464808D01*
X104202908Y-87489869D01*
X104202909Y-87489873D01*
X104248211Y-87592474D01*
X104248214Y-87592479D01*
X104329893Y-87674158D01*
X104363378Y-87735481D01*
X104358394Y-87805173D01*
X104325878Y-87848606D01*
X104328035Y-87850763D01*
X104319401Y-87859396D01*
X104264033Y-87942260D01*
X104264032Y-87942264D01*
X104249500Y-88015321D01*
X104249500Y-88019344D01*
X104248904Y-88021372D01*
X104248903Y-88021386D01*
X104248900Y-88021385D01*
X104229815Y-88086383D01*
X104177011Y-88132138D01*
X104107853Y-88142082D01*
X104044297Y-88113057D01*
X104024996Y-88089106D01*
X104024112Y-88089769D01*
X103932547Y-87967455D01*
X103932544Y-87967452D01*
X103817335Y-87881206D01*
X103817329Y-87881203D01*
X103771866Y-87864246D01*
X103715932Y-87822374D01*
X103691516Y-87756909D01*
X103691200Y-87748064D01*
X103691200Y-86725205D01*
X104200000Y-86725205D01*
X104200000Y-86845000D01*
X105100000Y-86845000D01*
X105600000Y-86845000D01*
X106499999Y-86845000D01*
X106499999Y-86725214D01*
X106499997Y-86725191D01*
X106497091Y-86700130D01*
X106497090Y-86700126D01*
X106451788Y-86597525D01*
X106451785Y-86597520D01*
X106372479Y-86518214D01*
X106372474Y-86518211D01*
X106269876Y-86472910D01*
X106244794Y-86470000D01*
X105600000Y-86470000D01*
X105600000Y-86845000D01*
X105100000Y-86845000D01*
X105100000Y-86470000D01*
X104455214Y-86470000D01*
X104455191Y-86470002D01*
X104430130Y-86472908D01*
X104430126Y-86472909D01*
X104327525Y-86518211D01*
X104327520Y-86518214D01*
X104248214Y-86597520D01*
X104248211Y-86597525D01*
X104202910Y-86700122D01*
X104202910Y-86700124D01*
X104200000Y-86725205D01*
X103691200Y-86725205D01*
X103691200Y-86577771D01*
X103691200Y-86577769D01*
X103660281Y-86462378D01*
X103600550Y-86358922D01*
X103516078Y-86274450D01*
X102767817Y-85526189D01*
X101990019Y-84748390D01*
X101956534Y-84687067D01*
X101953700Y-84660709D01*
X101953700Y-81443053D01*
X106975000Y-81443053D01*
X106985613Y-81531443D01*
X107041079Y-81672095D01*
X107132435Y-81792564D01*
X107252904Y-81883920D01*
X107393556Y-81939386D01*
X107481946Y-81950000D01*
X107750000Y-81950000D01*
X108250000Y-81950000D01*
X108518054Y-81950000D01*
X108606443Y-81939386D01*
X108747095Y-81883920D01*
X108867564Y-81792564D01*
X108958920Y-81672095D01*
X109014386Y-81531443D01*
X109025000Y-81443053D01*
X109025000Y-81312500D01*
X108250000Y-81312500D01*
X108250000Y-81950000D01*
X107750000Y-81950000D01*
X107750000Y-81312500D01*
X106975000Y-81312500D01*
X106975000Y-81443053D01*
X101953700Y-81443053D01*
X101953700Y-79647682D01*
X103450000Y-79647682D01*
X103450000Y-79852317D01*
X103482009Y-80054417D01*
X103545244Y-80249031D01*
X103638141Y-80431350D01*
X103638147Y-80431359D01*
X103670523Y-80475921D01*
X103670524Y-80475922D01*
X104226212Y-79920234D01*
X104237482Y-79962292D01*
X104309890Y-80087708D01*
X104412292Y-80190110D01*
X104537708Y-80262518D01*
X104579765Y-80273787D01*
X104024076Y-80829474D01*
X104068650Y-80861859D01*
X104250968Y-80954755D01*
X104445582Y-81017990D01*
X104647683Y-81050000D01*
X104852317Y-81050000D01*
X105054417Y-81017990D01*
X105249031Y-80954755D01*
X105431349Y-80861859D01*
X105475921Y-80829474D01*
X105475922Y-80829474D01*
X105412363Y-80765915D01*
X105328394Y-80681946D01*
X106975000Y-80681946D01*
X106975000Y-80812500D01*
X107750000Y-80812500D01*
X108250000Y-80812500D01*
X109025000Y-80812500D01*
X109025000Y-80681946D01*
X109014386Y-80593556D01*
X108958920Y-80452904D01*
X108867564Y-80332435D01*
X108747095Y-80241079D01*
X108606443Y-80185613D01*
X108518054Y-80175000D01*
X108250000Y-80175000D01*
X108250000Y-80812500D01*
X107750000Y-80812500D01*
X107750000Y-80175000D01*
X107481946Y-80175000D01*
X107393556Y-80185613D01*
X107252904Y-80241079D01*
X107132435Y-80332435D01*
X107041079Y-80452904D01*
X106985613Y-80593556D01*
X106975000Y-80681946D01*
X105328394Y-80681946D01*
X104920234Y-80273787D01*
X104962292Y-80262518D01*
X105087708Y-80190110D01*
X105190110Y-80087708D01*
X105262518Y-79962292D01*
X105273787Y-79920235D01*
X105829474Y-80475922D01*
X105829474Y-80475921D01*
X105861859Y-80431349D01*
X105954755Y-80249031D01*
X106017990Y-80054417D01*
X106050000Y-79852317D01*
X106050000Y-79647682D01*
X109950000Y-79647682D01*
X109950000Y-79852317D01*
X109982009Y-80054417D01*
X110045244Y-80249031D01*
X110138141Y-80431350D01*
X110138147Y-80431359D01*
X110170523Y-80475921D01*
X110170524Y-80475922D01*
X110726212Y-79920234D01*
X110737482Y-79962292D01*
X110809890Y-80087708D01*
X110912292Y-80190110D01*
X111037708Y-80262518D01*
X111079765Y-80273787D01*
X110524076Y-80829474D01*
X110568650Y-80861859D01*
X110750968Y-80954755D01*
X110945582Y-81017990D01*
X111147683Y-81050000D01*
X111352317Y-81050000D01*
X111554417Y-81017990D01*
X111749031Y-80954755D01*
X111931349Y-80861859D01*
X111975921Y-80829474D01*
X111420234Y-80273787D01*
X111462292Y-80262518D01*
X111587708Y-80190110D01*
X111690110Y-80087708D01*
X111762518Y-79962292D01*
X111773787Y-79920235D01*
X112329474Y-80475922D01*
X112329474Y-80475921D01*
X112361859Y-80431349D01*
X112454755Y-80249031D01*
X112517990Y-80054417D01*
X112550000Y-79852317D01*
X112550000Y-79788855D01*
X112569685Y-79721816D01*
X112622489Y-79676061D01*
X112691647Y-79666117D01*
X112755203Y-79695142D01*
X112772804Y-79713930D01*
X112832433Y-79792563D01*
X112952904Y-79883920D01*
X113093556Y-79939386D01*
X113181946Y-79950000D01*
X113450000Y-79950000D01*
X113450000Y-79312500D01*
X112674999Y-79312500D01*
X112666939Y-79320560D01*
X112605616Y-79354045D01*
X112535924Y-79349059D01*
X112479991Y-79307187D01*
X112461329Y-79271198D01*
X112454757Y-79250972D01*
X112361859Y-79068650D01*
X112329474Y-79024077D01*
X112329474Y-79024076D01*
X111773787Y-79579764D01*
X111762518Y-79537708D01*
X111690110Y-79412292D01*
X111587708Y-79309890D01*
X111462292Y-79237482D01*
X111420233Y-79226212D01*
X111964500Y-78681946D01*
X112675000Y-78681946D01*
X112675000Y-78812500D01*
X113450000Y-78812500D01*
X113450000Y-78175000D01*
X113181946Y-78175000D01*
X113093556Y-78185613D01*
X112952904Y-78241079D01*
X112832435Y-78332435D01*
X112741079Y-78452904D01*
X112685613Y-78593556D01*
X112675000Y-78681946D01*
X111964500Y-78681946D01*
X111975921Y-78670525D01*
X111975921Y-78670522D01*
X111931359Y-78638147D01*
X111931350Y-78638141D01*
X111749031Y-78545244D01*
X111554417Y-78482009D01*
X111352317Y-78450000D01*
X111147683Y-78450000D01*
X110945582Y-78482009D01*
X110750968Y-78545244D01*
X110568644Y-78638143D01*
X110524077Y-78670523D01*
X110524077Y-78670524D01*
X111079766Y-79226212D01*
X111037708Y-79237482D01*
X110912292Y-79309890D01*
X110809890Y-79412292D01*
X110737482Y-79537708D01*
X110726212Y-79579765D01*
X110170524Y-79024077D01*
X110170523Y-79024077D01*
X110138143Y-79068644D01*
X110045244Y-79250968D01*
X109982009Y-79445582D01*
X109950000Y-79647682D01*
X106050000Y-79647682D01*
X106017990Y-79445582D01*
X105954755Y-79250968D01*
X105861859Y-79068650D01*
X105829474Y-79024077D01*
X105829474Y-79024076D01*
X105273787Y-79579764D01*
X105262518Y-79537708D01*
X105190110Y-79412292D01*
X105087708Y-79309890D01*
X104962292Y-79237482D01*
X104920233Y-79226212D01*
X105475922Y-78670524D01*
X105475921Y-78670523D01*
X105431359Y-78638147D01*
X105431350Y-78638141D01*
X105249031Y-78545244D01*
X105054417Y-78482009D01*
X104852317Y-78450000D01*
X104647683Y-78450000D01*
X104445582Y-78482009D01*
X104250968Y-78545244D01*
X104068644Y-78638143D01*
X104024077Y-78670523D01*
X104024077Y-78670524D01*
X104579766Y-79226212D01*
X104537708Y-79237482D01*
X104412292Y-79309890D01*
X104309890Y-79412292D01*
X104237482Y-79537708D01*
X104226212Y-79579765D01*
X103670524Y-79024077D01*
X103670523Y-79024077D01*
X103638143Y-79068644D01*
X103545244Y-79250968D01*
X103482009Y-79445582D01*
X103450000Y-79647682D01*
X101953700Y-79647682D01*
X101953700Y-76539290D01*
X101973385Y-76472251D01*
X101990015Y-76451613D01*
X102696697Y-75744930D01*
X104550000Y-75744930D01*
X104565122Y-75879141D01*
X104624663Y-76049301D01*
X104720577Y-76201948D01*
X104848051Y-76329422D01*
X105000698Y-76425336D01*
X105170858Y-76484877D01*
X105305069Y-76499999D01*
X105305070Y-76500000D01*
X105600000Y-76500000D01*
X106100000Y-76500000D01*
X106394930Y-76500000D01*
X106394930Y-76499999D01*
X106529141Y-76484877D01*
X106699301Y-76425336D01*
X106851948Y-76329422D01*
X106979422Y-76201948D01*
X107075336Y-76049301D01*
X107134877Y-75879141D01*
X107149999Y-75744930D01*
X107150000Y-75744930D01*
X107150000Y-74729566D01*
X110850001Y-74729566D01*
X110856178Y-74797561D01*
X110856181Y-74797572D01*
X110904944Y-74954060D01*
X110904946Y-74954064D01*
X110989743Y-75094337D01*
X110989747Y-75094342D01*
X111105657Y-75210252D01*
X111105662Y-75210256D01*
X111245934Y-75295052D01*
X111402437Y-75343820D01*
X111470443Y-75349999D01*
X111899999Y-75349999D01*
X112400000Y-75349999D01*
X112829565Y-75349999D01*
X112897561Y-75343821D01*
X112897572Y-75343818D01*
X113054060Y-75295055D01*
X113054064Y-75295053D01*
X113194337Y-75210256D01*
X113194342Y-75210252D01*
X113310252Y-75094342D01*
X113310256Y-75094337D01*
X113395052Y-74954065D01*
X113443820Y-74797562D01*
X113450000Y-74729556D01*
X113450000Y-74550000D01*
X112400000Y-74550000D01*
X112400000Y-75349999D01*
X111899999Y-75349999D01*
X111900000Y-75349998D01*
X111900000Y-74550000D01*
X110850001Y-74550000D01*
X110850001Y-74729566D01*
X107150000Y-74729566D01*
X107150000Y-74550000D01*
X106100000Y-74550000D01*
X106100000Y-76500000D01*
X105600000Y-76500000D01*
X105600000Y-74550000D01*
X104550000Y-74550000D01*
X104550000Y-75744930D01*
X102696697Y-75744930D01*
X102904810Y-75536817D01*
X102966133Y-75503333D01*
X102992491Y-75500499D01*
X103447871Y-75500499D01*
X103447872Y-75500499D01*
X103507483Y-75494091D01*
X103642331Y-75443796D01*
X103757546Y-75357546D01*
X103843796Y-75242331D01*
X103894091Y-75107483D01*
X103900500Y-75047873D01*
X103900499Y-74352128D01*
X103894091Y-74292517D01*
X103843796Y-74157669D01*
X103843795Y-74157668D01*
X103843793Y-74157664D01*
X103757547Y-74042455D01*
X103757544Y-74042452D01*
X103642336Y-73956207D01*
X103642327Y-73956202D01*
X103634362Y-73953231D01*
X103578430Y-73911357D01*
X103554016Y-73845892D01*
X103553700Y-73837051D01*
X103553700Y-72855069D01*
X104550000Y-72855069D01*
X104550000Y-74050000D01*
X105600000Y-74050000D01*
X106100000Y-74050000D01*
X107150000Y-74050000D01*
X107150000Y-73870443D01*
X110850000Y-73870443D01*
X110850000Y-74050000D01*
X111900000Y-74050000D01*
X111900000Y-73250000D01*
X112400000Y-73250000D01*
X112400000Y-74050000D01*
X113449999Y-74050000D01*
X113463319Y-74036680D01*
X113524642Y-74003195D01*
X113594334Y-74008179D01*
X113650267Y-74050051D01*
X113674684Y-74115515D01*
X113675000Y-74124361D01*
X113675000Y-74243053D01*
X113685613Y-74331443D01*
X113741079Y-74472095D01*
X113832435Y-74592564D01*
X113952904Y-74683920D01*
X114093556Y-74739386D01*
X114181946Y-74750000D01*
X114450000Y-74750000D01*
X114450000Y-72975000D01*
X114181946Y-72975000D01*
X114093556Y-72985613D01*
X113952904Y-73041079D01*
X113832435Y-73132435D01*
X113741079Y-73252904D01*
X113685613Y-73393556D01*
X113675000Y-73481946D01*
X113675000Y-73729582D01*
X113655315Y-73796621D01*
X113602511Y-73842376D01*
X113533353Y-73852320D01*
X113469797Y-73823295D01*
X113432615Y-73766473D01*
X113395054Y-73645937D01*
X113395053Y-73645935D01*
X113310256Y-73505662D01*
X113310252Y-73505657D01*
X113194342Y-73389747D01*
X113194337Y-73389743D01*
X113054065Y-73304947D01*
X112897562Y-73256179D01*
X112829556Y-73250000D01*
X112400000Y-73250000D01*
X111900000Y-73250000D01*
X111470433Y-73250000D01*
X111402438Y-73256178D01*
X111402427Y-73256181D01*
X111245939Y-73304944D01*
X111245935Y-73304946D01*
X111105662Y-73389743D01*
X111105657Y-73389747D01*
X110989747Y-73505657D01*
X110989743Y-73505662D01*
X110904947Y-73645934D01*
X110856179Y-73802437D01*
X110850000Y-73870443D01*
X107150000Y-73870443D01*
X107150000Y-72855070D01*
X107149999Y-72855069D01*
X107134877Y-72720858D01*
X107075336Y-72550698D01*
X106979422Y-72398051D01*
X106851948Y-72270577D01*
X106699301Y-72174663D01*
X106529141Y-72115122D01*
X106394930Y-72100000D01*
X106100000Y-72100000D01*
X106100000Y-74050000D01*
X105600000Y-74050000D01*
X105600000Y-72100000D01*
X105305070Y-72100000D01*
X105170858Y-72115122D01*
X105000698Y-72174663D01*
X104848051Y-72270577D01*
X104720577Y-72398051D01*
X104624663Y-72550698D01*
X104565122Y-72720858D01*
X104550000Y-72855069D01*
X103553700Y-72855069D01*
X103553700Y-69831597D01*
X103573385Y-69764558D01*
X103626189Y-69718803D01*
X103634368Y-69715415D01*
X103692326Y-69693798D01*
X103692326Y-69693797D01*
X103692331Y-69693796D01*
X103807546Y-69607546D01*
X103893796Y-69492331D01*
X103944091Y-69357483D01*
X103950500Y-69297873D01*
X103950499Y-68302135D01*
X104249500Y-68302135D01*
X104249500Y-69297870D01*
X104249501Y-69297876D01*
X104255908Y-69357483D01*
X104306202Y-69492328D01*
X104306206Y-69492335D01*
X104392452Y-69607544D01*
X104392455Y-69607547D01*
X104507664Y-69693793D01*
X104507671Y-69693797D01*
X104642517Y-69744091D01*
X104642516Y-69744091D01*
X104646293Y-69744497D01*
X104702127Y-69750500D01*
X105497872Y-69750499D01*
X105557483Y-69744091D01*
X105692331Y-69693796D01*
X105807546Y-69607546D01*
X105893796Y-69492331D01*
X105944091Y-69357483D01*
X105944091Y-69357482D01*
X105945253Y-69354367D01*
X105987124Y-69298434D01*
X106052588Y-69274016D01*
X106061435Y-69273700D01*
X106358576Y-69273700D01*
X106425615Y-69293385D01*
X106471370Y-69346189D01*
X106476507Y-69359381D01*
X106490898Y-69403674D01*
X106536072Y-69492331D01*
X106594778Y-69607547D01*
X106599554Y-69616919D01*
X106740221Y-69810532D01*
X106740225Y-69810537D01*
X106909462Y-69979774D01*
X106909467Y-69979778D01*
X107078347Y-70102476D01*
X107103084Y-70120448D01*
X107238961Y-70189681D01*
X107316325Y-70229101D01*
X107316327Y-70229101D01*
X107316330Y-70229103D01*
X107543949Y-70303061D01*
X107665735Y-70322349D01*
X107780329Y-70340500D01*
X107780334Y-70340500D01*
X108019671Y-70340500D01*
X108124135Y-70323953D01*
X108256051Y-70303061D01*
X108483670Y-70229103D01*
X108696916Y-70120448D01*
X108890539Y-69979773D01*
X109059773Y-69810539D01*
X109200448Y-69616916D01*
X109309103Y-69403670D01*
X109383061Y-69176051D01*
X109414885Y-68975120D01*
X109420500Y-68939671D01*
X109420500Y-68700328D01*
X109400644Y-68574970D01*
X109383061Y-68463949D01*
X109309103Y-68236330D01*
X109309101Y-68236327D01*
X109309101Y-68236325D01*
X109269681Y-68158961D01*
X109200448Y-68023084D01*
X109178193Y-67992452D01*
X109059778Y-67829467D01*
X109059774Y-67829462D01*
X108890537Y-67660225D01*
X108890532Y-67660221D01*
X108696919Y-67519554D01*
X108696918Y-67519553D01*
X108696916Y-67519552D01*
X108630324Y-67485621D01*
X108483674Y-67410898D01*
X108256051Y-67336939D01*
X108019671Y-67299500D01*
X108019666Y-67299500D01*
X107780334Y-67299500D01*
X107780329Y-67299500D01*
X107543948Y-67336939D01*
X107316325Y-67410898D01*
X107103080Y-67519554D01*
X106909467Y-67660221D01*
X106909462Y-67660225D01*
X106740225Y-67829462D01*
X106740221Y-67829467D01*
X106599554Y-68023080D01*
X106490898Y-68236325D01*
X106476507Y-68280619D01*
X106437069Y-68338294D01*
X106372710Y-68365492D01*
X106358576Y-68366300D01*
X106068782Y-68366300D01*
X106001743Y-68346615D01*
X105955988Y-68293811D01*
X105945492Y-68255551D01*
X105944091Y-68242516D01*
X105893797Y-68107671D01*
X105893793Y-68107664D01*
X105807547Y-67992455D01*
X105807544Y-67992452D01*
X105692335Y-67906206D01*
X105692328Y-67906202D01*
X105557482Y-67855908D01*
X105557483Y-67855908D01*
X105497883Y-67849501D01*
X105497881Y-67849500D01*
X105497873Y-67849500D01*
X105497864Y-67849500D01*
X104702129Y-67849500D01*
X104702123Y-67849501D01*
X104642516Y-67855908D01*
X104507671Y-67906202D01*
X104507664Y-67906206D01*
X104392455Y-67992452D01*
X104392452Y-67992455D01*
X104306206Y-68107664D01*
X104306202Y-68107671D01*
X104255908Y-68242517D01*
X104249501Y-68302116D01*
X104249500Y-68302135D01*
X103950499Y-68302135D01*
X103950499Y-68302128D01*
X103944091Y-68242517D01*
X103941783Y-68236330D01*
X103893797Y-68107671D01*
X103893793Y-68107664D01*
X103807547Y-67992455D01*
X103807544Y-67992452D01*
X103692335Y-67906206D01*
X103692328Y-67906202D01*
X103557482Y-67855908D01*
X103557483Y-67855908D01*
X103497883Y-67849501D01*
X103497881Y-67849500D01*
X103497873Y-67849500D01*
X103497864Y-67849500D01*
X102702129Y-67849500D01*
X102702123Y-67849501D01*
X102642516Y-67855908D01*
X102507671Y-67906202D01*
X102507664Y-67906206D01*
X102392455Y-67992452D01*
X102392452Y-67992455D01*
X102306206Y-68107664D01*
X102306202Y-68107671D01*
X102255908Y-68242517D01*
X102249501Y-68302116D01*
X102249500Y-68302135D01*
X102249500Y-69297870D01*
X102249501Y-69297876D01*
X102255908Y-69357483D01*
X102306202Y-69492328D01*
X102306206Y-69492335D01*
X102392452Y-69607544D01*
X102392455Y-69607547D01*
X102507664Y-69693793D01*
X102507673Y-69693798D01*
X102565632Y-69715415D01*
X102621566Y-69757285D01*
X102645984Y-69822749D01*
X102646300Y-69831597D01*
X102646300Y-73837051D01*
X102626615Y-73904090D01*
X102573811Y-73949845D01*
X102565638Y-73953231D01*
X102557672Y-73956202D01*
X102557663Y-73956207D01*
X102442455Y-74042452D01*
X102442452Y-74042455D01*
X102356206Y-74157664D01*
X102356202Y-74157671D01*
X102305908Y-74292517D01*
X102299501Y-74352116D01*
X102299501Y-74352123D01*
X102299500Y-74352135D01*
X102299500Y-74807508D01*
X102279815Y-74874547D01*
X102263181Y-74895189D01*
X101136951Y-76021419D01*
X101136944Y-76021428D01*
X101099080Y-76087008D01*
X101099081Y-76087009D01*
X101077221Y-76124872D01*
X101077219Y-76124876D01*
X101077219Y-76124878D01*
X101046300Y-76240269D01*
X101046300Y-84959731D01*
X101077219Y-85075122D01*
X101099081Y-85112989D01*
X101136949Y-85178578D01*
X101136950Y-85178579D01*
X101136951Y-85178580D01*
X102747481Y-86789109D01*
X102780966Y-86850432D01*
X102783800Y-86876790D01*
X102783800Y-87748064D01*
X102764115Y-87815103D01*
X102711311Y-87860858D01*
X102703134Y-87864246D01*
X102657670Y-87881203D01*
X102657664Y-87881206D01*
X102542455Y-87967452D01*
X102542452Y-87967455D01*
X102456206Y-88082664D01*
X102456202Y-88082671D01*
X102405908Y-88217517D01*
X102399501Y-88277116D01*
X102399500Y-88277135D01*
X102399500Y-89322870D01*
X102399501Y-89322876D01*
X102405908Y-89382483D01*
X102456202Y-89517328D01*
X102456206Y-89517335D01*
X102542452Y-89632544D01*
X102542455Y-89632547D01*
X102657664Y-89718793D01*
X102657671Y-89718797D01*
X102702618Y-89735561D01*
X102792517Y-89769091D01*
X102852127Y-89775500D01*
X103520007Y-89775499D01*
X103549449Y-89784143D01*
X103579433Y-89790666D01*
X103584448Y-89794420D01*
X103587046Y-89795183D01*
X103607673Y-89811806D01*
X103607688Y-89811817D01*
X103709450Y-89913578D01*
X103793922Y-89998050D01*
X103897378Y-90057781D01*
X104012769Y-90088700D01*
X104218441Y-90088700D01*
X104285480Y-90108385D01*
X104296037Y-90115979D01*
X104310931Y-90127928D01*
X104319399Y-90140601D01*
X104363244Y-90169897D01*
X104367460Y-90173279D01*
X104384482Y-90197682D01*
X104403559Y-90220509D01*
X104404251Y-90226024D01*
X104407433Y-90230585D01*
X104408559Y-90260322D01*
X104412267Y-90289834D01*
X104409868Y-90294847D01*
X104410079Y-90300404D01*
X104394951Y-90326026D01*
X104382113Y-90352862D01*
X104375961Y-90358192D01*
X104374557Y-90360571D01*
X104371359Y-90362180D01*
X104358754Y-90373103D01*
X104319401Y-90399397D01*
X104310766Y-90408033D01*
X104309220Y-90406488D01*
X104267933Y-90440995D01*
X104218441Y-90451300D01*
X103635269Y-90451300D01*
X103519878Y-90482219D01*
X103519876Y-90482219D01*
X103519872Y-90482221D01*
X103482011Y-90504079D01*
X103482012Y-90504080D01*
X103432118Y-90532887D01*
X103370117Y-90549500D01*
X102702129Y-90549500D01*
X102702123Y-90549501D01*
X102642516Y-90555908D01*
X102507671Y-90606202D01*
X102507664Y-90606206D01*
X102392455Y-90692452D01*
X102392452Y-90692455D01*
X102300888Y-90814769D01*
X102298618Y-90813070D01*
X102259420Y-90852264D01*
X102191146Y-90867111D01*
X102125683Y-90842690D01*
X102100554Y-90813689D01*
X102099112Y-90814769D01*
X102007547Y-90692455D01*
X102007544Y-90692452D01*
X101892335Y-90606206D01*
X101892328Y-90606202D01*
X101757482Y-90555908D01*
X101757483Y-90555908D01*
X101697883Y-90549501D01*
X101697881Y-90549500D01*
X101697873Y-90549500D01*
X101697864Y-90549500D01*
X100702129Y-90549500D01*
X100702120Y-90549501D01*
X100637752Y-90556420D01*
X100568992Y-90544012D01*
X100517856Y-90496400D01*
X100500500Y-90433130D01*
X100500500Y-89920447D01*
X100520185Y-89853408D01*
X100572989Y-89807653D01*
X100642147Y-89797709D01*
X100669992Y-89805093D01*
X100693556Y-89814386D01*
X100781946Y-89825000D01*
X100912500Y-89825000D01*
X101412500Y-89825000D01*
X101543054Y-89825000D01*
X101631443Y-89814386D01*
X101772095Y-89758920D01*
X101892564Y-89667564D01*
X101983920Y-89547095D01*
X102039386Y-89406443D01*
X102050000Y-89318053D01*
X102050000Y-89050000D01*
X101412500Y-89050000D01*
X101412500Y-89825000D01*
X100912500Y-89825000D01*
X100912500Y-88550000D01*
X101412500Y-88550000D01*
X102050000Y-88550000D01*
X102050000Y-88281946D01*
X102039386Y-88193556D01*
X101983920Y-88052904D01*
X101892564Y-87932435D01*
X101772095Y-87841079D01*
X101631443Y-87785613D01*
X101543054Y-87775000D01*
X101412500Y-87775000D01*
X101412500Y-88550000D01*
X100912500Y-88550000D01*
X100912500Y-87775000D01*
X100781946Y-87775000D01*
X100693555Y-87785614D01*
X100669989Y-87794907D01*
X100600402Y-87801188D01*
X100538466Y-87768850D01*
X100503845Y-87708161D01*
X100500500Y-87679552D01*
X100500500Y-54413389D01*
X101819500Y-54413389D01*
X101819500Y-54586611D01*
X101846598Y-54757701D01*
X101900127Y-54922445D01*
X101978768Y-55076788D01*
X102080586Y-55216928D01*
X102203072Y-55339414D01*
X102343212Y-55441232D01*
X102497555Y-55519873D01*
X102662299Y-55573402D01*
X102833389Y-55600500D01*
X102833390Y-55600500D01*
X103006610Y-55600500D01*
X103006611Y-55600500D01*
X103177701Y-55573402D01*
X103342445Y-55519873D01*
X103496788Y-55441232D01*
X103636928Y-55339414D01*
X103759414Y-55216928D01*
X103861232Y-55076788D01*
X103939873Y-54922445D01*
X103993402Y-54757701D01*
X104020500Y-54586611D01*
X104020500Y-54413389D01*
X103993402Y-54242299D01*
X103939873Y-54077555D01*
X103861232Y-53923212D01*
X103759414Y-53783072D01*
X103636928Y-53660586D01*
X103496788Y-53558768D01*
X103342445Y-53480127D01*
X103177701Y-53426598D01*
X103177699Y-53426597D01*
X103177698Y-53426597D01*
X103046271Y-53405781D01*
X103006611Y-53399500D01*
X102833389Y-53399500D01*
X102793728Y-53405781D01*
X102662302Y-53426597D01*
X102497552Y-53480128D01*
X102343211Y-53558768D01*
X102263256Y-53616859D01*
X102203072Y-53660586D01*
X102203070Y-53660588D01*
X102203069Y-53660588D01*
X102080588Y-53783069D01*
X102080588Y-53783070D01*
X102080586Y-53783072D01*
X102036859Y-53843256D01*
X101978768Y-53923211D01*
X101900128Y-54077552D01*
X101846597Y-54242302D01*
X101836349Y-54307007D01*
X101819500Y-54413389D01*
X100500500Y-54413389D01*
X100500500Y-51085321D01*
X101819500Y-51085321D01*
X101819500Y-52834678D01*
X101834032Y-52907735D01*
X101834033Y-52907739D01*
X101850301Y-52932086D01*
X101889399Y-52990601D01*
X101972260Y-53045966D01*
X101972264Y-53045967D01*
X102045321Y-53060499D01*
X102045324Y-53060500D01*
X102045326Y-53060500D01*
X103794676Y-53060500D01*
X103794677Y-53060499D01*
X103867740Y-53045966D01*
X103950601Y-52990601D01*
X104005966Y-52907740D01*
X104020500Y-52834674D01*
X104020500Y-51869493D01*
X104310000Y-51869493D01*
X104310000Y-52050506D01*
X104338317Y-52229293D01*
X104394251Y-52401444D01*
X104394252Y-52401447D01*
X104476431Y-52562730D01*
X104487913Y-52578532D01*
X104487913Y-52578533D01*
X104977037Y-52089409D01*
X104994075Y-52152993D01*
X105059901Y-52267007D01*
X105152993Y-52360099D01*
X105267007Y-52425925D01*
X105330590Y-52442962D01*
X104841466Y-52932085D01*
X104841466Y-52932086D01*
X104857267Y-52943566D01*
X104857275Y-52943571D01*
X105018552Y-53025747D01*
X105018555Y-53025748D01*
X105190706Y-53081682D01*
X105353879Y-53107527D01*
X105417014Y-53137456D01*
X105453945Y-53196768D01*
X105452947Y-53266630D01*
X105414337Y-53324863D01*
X105353879Y-53352473D01*
X105190706Y-53378317D01*
X105018555Y-53434251D01*
X105018547Y-53434254D01*
X104857269Y-53516432D01*
X104841466Y-53527912D01*
X104841466Y-53527913D01*
X105330591Y-54017037D01*
X105267007Y-54034075D01*
X105152993Y-54099901D01*
X105059901Y-54192993D01*
X104994075Y-54307007D01*
X104977037Y-54370590D01*
X104487912Y-53881466D01*
X104476432Y-53897269D01*
X104394254Y-54058547D01*
X104394251Y-54058555D01*
X104338317Y-54230706D01*
X104310000Y-54409493D01*
X104310000Y-54590506D01*
X104338317Y-54769293D01*
X104394251Y-54941444D01*
X104394252Y-54941447D01*
X104476431Y-55102730D01*
X104487913Y-55118532D01*
X104487913Y-55118533D01*
X104977037Y-54629409D01*
X104994075Y-54692993D01*
X105059901Y-54807007D01*
X105152993Y-54900099D01*
X105267007Y-54965925D01*
X105330590Y-54982962D01*
X104841466Y-55472085D01*
X104841466Y-55472086D01*
X104857267Y-55483566D01*
X104857275Y-55483571D01*
X105018552Y-55565747D01*
X105018555Y-55565748D01*
X105190706Y-55621682D01*
X105369494Y-55650000D01*
X105550506Y-55650000D01*
X105729293Y-55621682D01*
X105901444Y-55565748D01*
X105901452Y-55565745D01*
X106062730Y-55483568D01*
X106078532Y-55472085D01*
X106078533Y-55472085D01*
X105589410Y-54982962D01*
X105652993Y-54965925D01*
X105767007Y-54900099D01*
X105860099Y-54807007D01*
X105925925Y-54692993D01*
X105942962Y-54629410D01*
X106432085Y-55118533D01*
X106432085Y-55118532D01*
X106443568Y-55102730D01*
X106525745Y-54941452D01*
X106525748Y-54941444D01*
X106581682Y-54769293D01*
X106607527Y-54606120D01*
X106637456Y-54542985D01*
X106696768Y-54506054D01*
X106766630Y-54507052D01*
X106824863Y-54545662D01*
X106852473Y-54606120D01*
X106878317Y-54769293D01*
X106934251Y-54941444D01*
X106934252Y-54941447D01*
X107016431Y-55102730D01*
X107027913Y-55118532D01*
X107027913Y-55118533D01*
X107517037Y-54629408D01*
X107534075Y-54692993D01*
X107599901Y-54807007D01*
X107692993Y-54900099D01*
X107807007Y-54965925D01*
X107870590Y-54982962D01*
X107381466Y-55472085D01*
X107381466Y-55472086D01*
X107397267Y-55483566D01*
X107397275Y-55483571D01*
X107558552Y-55565747D01*
X107558558Y-55565749D01*
X107726882Y-55620440D01*
X107784558Y-55659877D01*
X107811757Y-55724235D01*
X107799843Y-55793082D01*
X107752599Y-55844558D01*
X107707963Y-55860844D01*
X107532360Y-55888657D01*
X107297326Y-55965025D01*
X107077142Y-56077214D01*
X106980779Y-56147225D01*
X107575975Y-56742421D01*
X107544742Y-56755359D01*
X107421903Y-56837437D01*
X107317437Y-56941903D01*
X107235359Y-57064742D01*
X107222421Y-57095975D01*
X106627225Y-56500779D01*
X106557214Y-56597142D01*
X106445025Y-56817326D01*
X106368657Y-57052360D01*
X106330000Y-57296432D01*
X106330000Y-57543567D01*
X106368657Y-57787639D01*
X106445025Y-58022673D01*
X106557217Y-58242863D01*
X106627224Y-58339219D01*
X106627225Y-58339220D01*
X107222421Y-57744024D01*
X107235359Y-57775258D01*
X107317437Y-57898097D01*
X107421903Y-58002563D01*
X107544742Y-58084641D01*
X107575974Y-58097577D01*
X106980778Y-58692773D01*
X106980779Y-58692775D01*
X107077137Y-58762782D01*
X107266984Y-58859515D01*
X107317780Y-58907490D01*
X107334575Y-58975311D01*
X107312038Y-59041446D01*
X107266984Y-59080485D01*
X107077142Y-59177214D01*
X106980779Y-59247225D01*
X107575975Y-59842421D01*
X107544742Y-59855359D01*
X107421903Y-59937437D01*
X107317437Y-60041903D01*
X107235359Y-60164742D01*
X107222421Y-60195975D01*
X106627225Y-59600779D01*
X106557214Y-59697142D01*
X106445025Y-59917326D01*
X106368657Y-60152360D01*
X106330000Y-60396432D01*
X106330000Y-60643567D01*
X106368657Y-60887639D01*
X106445025Y-61122673D01*
X106557217Y-61342863D01*
X106627224Y-61439219D01*
X106627225Y-61439220D01*
X107222421Y-60844024D01*
X107235359Y-60875258D01*
X107317437Y-60998097D01*
X107421903Y-61102563D01*
X107544742Y-61184641D01*
X107575974Y-61197577D01*
X106980778Y-61792773D01*
X106980779Y-61792775D01*
X107077137Y-61862782D01*
X107297326Y-61974974D01*
X107361796Y-61995922D01*
X107419471Y-62035359D01*
X107446670Y-62099718D01*
X107434756Y-62168564D01*
X107387512Y-62220040D01*
X107355575Y-62233627D01*
X107336113Y-62238842D01*
X107336112Y-62238842D01*
X107124123Y-62326650D01*
X107124109Y-62326657D01*
X106925382Y-62441392D01*
X106743338Y-62581081D01*
X106581081Y-62743338D01*
X106441392Y-62925382D01*
X106326657Y-63124109D01*
X106326650Y-63124123D01*
X106238842Y-63336112D01*
X106179453Y-63557759D01*
X106179451Y-63557770D01*
X106149500Y-63785258D01*
X106149500Y-64014741D01*
X106174446Y-64204215D01*
X106179452Y-64242238D01*
X106179453Y-64242240D01*
X106238842Y-64463887D01*
X106326650Y-64675876D01*
X106326657Y-64675890D01*
X106441392Y-64874617D01*
X106581081Y-65056661D01*
X106581089Y-65056670D01*
X106743330Y-65218911D01*
X106743338Y-65218918D01*
X106925382Y-65358607D01*
X106925385Y-65358608D01*
X106925388Y-65358611D01*
X107124112Y-65473344D01*
X107124117Y-65473346D01*
X107124123Y-65473349D01*
X107215480Y-65511190D01*
X107336113Y-65561158D01*
X107557762Y-65620548D01*
X107785266Y-65650500D01*
X107785273Y-65650500D01*
X108014727Y-65650500D01*
X108014734Y-65650500D01*
X108242238Y-65620548D01*
X108463887Y-65561158D01*
X108675888Y-65473344D01*
X108874612Y-65358611D01*
X109056661Y-65218919D01*
X109056665Y-65218914D01*
X109056670Y-65218911D01*
X109218911Y-65056670D01*
X109218914Y-65056665D01*
X109218919Y-65056661D01*
X109358611Y-64874612D01*
X109473344Y-64675888D01*
X109561158Y-64463887D01*
X109620548Y-64242238D01*
X109650500Y-64014734D01*
X109650500Y-63785266D01*
X109620548Y-63557762D01*
X109561158Y-63336113D01*
X109511190Y-63215480D01*
X109473349Y-63124123D01*
X109473346Y-63124117D01*
X109473344Y-63124112D01*
X109358611Y-62925388D01*
X109358608Y-62925385D01*
X109358607Y-62925382D01*
X109218918Y-62743338D01*
X109218911Y-62743330D01*
X109056670Y-62581089D01*
X109056661Y-62581081D01*
X108874617Y-62441392D01*
X108675890Y-62326657D01*
X108675876Y-62326650D01*
X108463887Y-62238842D01*
X108463879Y-62238839D01*
X108444426Y-62233627D01*
X108384766Y-62197262D01*
X108354238Y-62134414D01*
X108362533Y-62065039D01*
X108407019Y-62011162D01*
X108438204Y-61995922D01*
X108502672Y-61974975D01*
X108722859Y-61862784D01*
X108819219Y-61792773D01*
X108819220Y-61792772D01*
X108224025Y-61197577D01*
X108255258Y-61184641D01*
X108378097Y-61102563D01*
X108482563Y-60998097D01*
X108564641Y-60875258D01*
X108577578Y-60844025D01*
X109172772Y-61439220D01*
X109172773Y-61439219D01*
X109242784Y-61342859D01*
X109354974Y-61122673D01*
X109431342Y-60887639D01*
X109470000Y-60643567D01*
X109470000Y-60396432D01*
X109431342Y-60152360D01*
X109354974Y-59917326D01*
X109242782Y-59697137D01*
X109172775Y-59600779D01*
X109172773Y-59600778D01*
X108577577Y-60195973D01*
X108564641Y-60164742D01*
X108482563Y-60041903D01*
X108378097Y-59937437D01*
X108255258Y-59855359D01*
X108224024Y-59842421D01*
X108819220Y-59247225D01*
X108819219Y-59247224D01*
X108722863Y-59177217D01*
X108533015Y-59080485D01*
X108482219Y-59032511D01*
X108465424Y-58964690D01*
X108487961Y-58898555D01*
X108533015Y-58859515D01*
X108722859Y-58762784D01*
X108819219Y-58692773D01*
X108819220Y-58692772D01*
X108224025Y-58097577D01*
X108255258Y-58084641D01*
X108378097Y-58002563D01*
X108482563Y-57898097D01*
X108564641Y-57775258D01*
X108577578Y-57744025D01*
X109172772Y-58339220D01*
X109172773Y-58339219D01*
X109242784Y-58242859D01*
X109354974Y-58022673D01*
X109356475Y-58018053D01*
X110037500Y-58018053D01*
X110048113Y-58106443D01*
X110103579Y-58247095D01*
X110194935Y-58367564D01*
X110315404Y-58458920D01*
X110456056Y-58514386D01*
X110544446Y-58525000D01*
X110675000Y-58525000D01*
X111175000Y-58525000D01*
X111305554Y-58525000D01*
X111393943Y-58514386D01*
X111534595Y-58458920D01*
X111655064Y-58367564D01*
X111746420Y-58247095D01*
X111801886Y-58106443D01*
X111812500Y-58018053D01*
X111812500Y-57750000D01*
X111175000Y-57750000D01*
X111175000Y-58525000D01*
X110675000Y-58525000D01*
X110675000Y-57750000D01*
X110037500Y-57750000D01*
X110037500Y-58018053D01*
X109356475Y-58018053D01*
X109431342Y-57787639D01*
X109448512Y-57679240D01*
X109470000Y-57543567D01*
X109470000Y-57296432D01*
X109431342Y-57052360D01*
X109431342Y-57052359D01*
X109419708Y-57016552D01*
X109408464Y-56981946D01*
X110037500Y-56981946D01*
X110037500Y-57250000D01*
X110675000Y-57250000D01*
X111175000Y-57250000D01*
X111812500Y-57250000D01*
X111812500Y-56981946D01*
X111801886Y-56893556D01*
X111746420Y-56752904D01*
X111655064Y-56632435D01*
X111534595Y-56541079D01*
X111393943Y-56485613D01*
X111305554Y-56475000D01*
X111175000Y-56475000D01*
X111175000Y-57250000D01*
X110675000Y-57250000D01*
X110675000Y-56475000D01*
X110544446Y-56475000D01*
X110456056Y-56485613D01*
X110315404Y-56541079D01*
X110194935Y-56632435D01*
X110103579Y-56752904D01*
X110048113Y-56893556D01*
X110037500Y-56981946D01*
X109408464Y-56981946D01*
X109354974Y-56817324D01*
X109242782Y-56597137D01*
X109172775Y-56500779D01*
X109172773Y-56500778D01*
X108577577Y-57095973D01*
X108564641Y-57064742D01*
X108482563Y-56941903D01*
X108378097Y-56837437D01*
X108255258Y-56755359D01*
X108224024Y-56742421D01*
X108819220Y-56147225D01*
X108819219Y-56147224D01*
X108722863Y-56077217D01*
X108502673Y-55965025D01*
X108267639Y-55888657D01*
X108198925Y-55877774D01*
X108135790Y-55847845D01*
X108098859Y-55788533D01*
X108099857Y-55718671D01*
X108138467Y-55660438D01*
X108198925Y-55632828D01*
X108269293Y-55621682D01*
X108441444Y-55565748D01*
X108441452Y-55565745D01*
X108602730Y-55483568D01*
X108618532Y-55472085D01*
X108618533Y-55472085D01*
X108129410Y-54982962D01*
X108192993Y-54965925D01*
X108307007Y-54900099D01*
X108400099Y-54807007D01*
X108465925Y-54692993D01*
X108482962Y-54629410D01*
X108972085Y-55118533D01*
X108972085Y-55118532D01*
X108983568Y-55102730D01*
X109065745Y-54941452D01*
X109065748Y-54941444D01*
X109121682Y-54769293D01*
X109147527Y-54606120D01*
X109177456Y-54542985D01*
X109236768Y-54506054D01*
X109306630Y-54507052D01*
X109364863Y-54545662D01*
X109392473Y-54606120D01*
X109418317Y-54769293D01*
X109474251Y-54941444D01*
X109474252Y-54941447D01*
X109556431Y-55102730D01*
X109567913Y-55118532D01*
X109567913Y-55118533D01*
X110057037Y-54629409D01*
X110074075Y-54692993D01*
X110139901Y-54807007D01*
X110232993Y-54900099D01*
X110347007Y-54965925D01*
X110410590Y-54982962D01*
X109921466Y-55472085D01*
X109921466Y-55472086D01*
X109937267Y-55483566D01*
X109937275Y-55483571D01*
X110098552Y-55565747D01*
X110098555Y-55565748D01*
X110270706Y-55621682D01*
X110449494Y-55650000D01*
X110630506Y-55650000D01*
X110809293Y-55621682D01*
X110981444Y-55565748D01*
X110981452Y-55565745D01*
X111142730Y-55483568D01*
X111158532Y-55472085D01*
X111158533Y-55472085D01*
X110669410Y-54982962D01*
X110732993Y-54965925D01*
X110847007Y-54900099D01*
X110940099Y-54807007D01*
X111005925Y-54692993D01*
X111022962Y-54629410D01*
X111512085Y-55118533D01*
X111512085Y-55118532D01*
X111523568Y-55102730D01*
X111605745Y-54941452D01*
X111605748Y-54941444D01*
X111661682Y-54769293D01*
X111690000Y-54590506D01*
X111690000Y-54409493D01*
X111661682Y-54230706D01*
X111605748Y-54058555D01*
X111605747Y-54058552D01*
X111523571Y-53897275D01*
X111523566Y-53897267D01*
X111512085Y-53881466D01*
X111022962Y-54370589D01*
X111005925Y-54307007D01*
X110940099Y-54192993D01*
X110847007Y-54099901D01*
X110732993Y-54034075D01*
X110669409Y-54017037D01*
X111158533Y-53527913D01*
X111142730Y-53516431D01*
X110981447Y-53434252D01*
X110981444Y-53434251D01*
X110809293Y-53378317D01*
X110646120Y-53352473D01*
X110582985Y-53322544D01*
X110546054Y-53263232D01*
X110547052Y-53193370D01*
X110585662Y-53135137D01*
X110646120Y-53107527D01*
X110809293Y-53081682D01*
X110981444Y-53025748D01*
X110981452Y-53025745D01*
X111142730Y-52943568D01*
X111158532Y-52932085D01*
X111158533Y-52932085D01*
X110669410Y-52442962D01*
X110732993Y-52425925D01*
X110847007Y-52360099D01*
X110940099Y-52267007D01*
X111005925Y-52152993D01*
X111022962Y-52089410D01*
X111512085Y-52578533D01*
X111512085Y-52578532D01*
X111523568Y-52562730D01*
X111605745Y-52401452D01*
X111605748Y-52401444D01*
X111661682Y-52229293D01*
X111690000Y-52050506D01*
X111690000Y-51869493D01*
X111661682Y-51690706D01*
X111605748Y-51518555D01*
X111605747Y-51518552D01*
X111523571Y-51357275D01*
X111523566Y-51357267D01*
X111512085Y-51341466D01*
X111022962Y-51830589D01*
X111005925Y-51767007D01*
X110940099Y-51652993D01*
X110847007Y-51559901D01*
X110732993Y-51494075D01*
X110669409Y-51477037D01*
X111158533Y-50987913D01*
X111142730Y-50976431D01*
X110981447Y-50894252D01*
X110981444Y-50894251D01*
X110809293Y-50838317D01*
X110630506Y-50810000D01*
X110449494Y-50810000D01*
X110270706Y-50838317D01*
X110098555Y-50894251D01*
X110098547Y-50894254D01*
X109937269Y-50976432D01*
X109921466Y-50987912D01*
X109921466Y-50987913D01*
X110410591Y-51477037D01*
X110347007Y-51494075D01*
X110232993Y-51559901D01*
X110139901Y-51652993D01*
X110074075Y-51767007D01*
X110057037Y-51830590D01*
X109567913Y-51341466D01*
X109567912Y-51341466D01*
X109556432Y-51357269D01*
X109474254Y-51518547D01*
X109474251Y-51518555D01*
X109418317Y-51690706D01*
X109392473Y-51853879D01*
X109362544Y-51917014D01*
X109303232Y-51953945D01*
X109233370Y-51952947D01*
X109175137Y-51914337D01*
X109147527Y-51853879D01*
X109121682Y-51690706D01*
X109065748Y-51518555D01*
X109065747Y-51518552D01*
X108983571Y-51357275D01*
X108983566Y-51357267D01*
X108972085Y-51341466D01*
X108482962Y-51830589D01*
X108465925Y-51767007D01*
X108400099Y-51652993D01*
X108307007Y-51559901D01*
X108192993Y-51494075D01*
X108129409Y-51477037D01*
X108618533Y-50987913D01*
X108602730Y-50976431D01*
X108441447Y-50894252D01*
X108441444Y-50894251D01*
X108269293Y-50838317D01*
X108090506Y-50810000D01*
X107909494Y-50810000D01*
X107730706Y-50838317D01*
X107558555Y-50894251D01*
X107558547Y-50894254D01*
X107397269Y-50976432D01*
X107381466Y-50987912D01*
X107381466Y-50987913D01*
X107870591Y-51477037D01*
X107807007Y-51494075D01*
X107692993Y-51559901D01*
X107599901Y-51652993D01*
X107534075Y-51767007D01*
X107517037Y-51830590D01*
X107027912Y-51341466D01*
X107016432Y-51357269D01*
X106934254Y-51518547D01*
X106934251Y-51518555D01*
X106878317Y-51690706D01*
X106852473Y-51853879D01*
X106822544Y-51917014D01*
X106763232Y-51953945D01*
X106693370Y-51952947D01*
X106635137Y-51914337D01*
X106607527Y-51853879D01*
X106581682Y-51690706D01*
X106525748Y-51518555D01*
X106525747Y-51518552D01*
X106443571Y-51357275D01*
X106443566Y-51357267D01*
X106432085Y-51341466D01*
X105942962Y-51830589D01*
X105925925Y-51767007D01*
X105860099Y-51652993D01*
X105767007Y-51559901D01*
X105652993Y-51494075D01*
X105589409Y-51477037D01*
X106078533Y-50987913D01*
X106062730Y-50976431D01*
X105901447Y-50894252D01*
X105901444Y-50894251D01*
X105729293Y-50838317D01*
X105550506Y-50810000D01*
X105369494Y-50810000D01*
X105190706Y-50838317D01*
X105018555Y-50894251D01*
X105018547Y-50894254D01*
X104857269Y-50976432D01*
X104841466Y-50987912D01*
X104841466Y-50987913D01*
X105330591Y-51477037D01*
X105267007Y-51494075D01*
X105152993Y-51559901D01*
X105059901Y-51652993D01*
X104994075Y-51767007D01*
X104977037Y-51830590D01*
X104487912Y-51341466D01*
X104476432Y-51357269D01*
X104394254Y-51518547D01*
X104394251Y-51518555D01*
X104338317Y-51690706D01*
X104310000Y-51869493D01*
X104020500Y-51869493D01*
X104020500Y-51085326D01*
X104020500Y-51085323D01*
X104015336Y-51059364D01*
X104015336Y-51059363D01*
X104005967Y-51012264D01*
X104005966Y-51012260D01*
X103989697Y-50987912D01*
X103950601Y-50929399D01*
X103867740Y-50874034D01*
X103867739Y-50874033D01*
X103867735Y-50874032D01*
X103794677Y-50859500D01*
X103794674Y-50859500D01*
X102045326Y-50859500D01*
X102045323Y-50859500D01*
X101972264Y-50874032D01*
X101972260Y-50874033D01*
X101889399Y-50929399D01*
X101834033Y-51012260D01*
X101834032Y-51012264D01*
X101819500Y-51085321D01*
X100500500Y-51085321D01*
X100500500Y-50624500D01*
X100520185Y-50557461D01*
X100572989Y-50511706D01*
X100624500Y-50500500D01*
X115375500Y-50500500D01*
X115442539Y-50520185D01*
G37*
%TD.AperFunction*%
%TA.AperFunction,Conductor*%
G36*
X115418833Y-81216908D02*
G01*
X115474767Y-81258779D01*
X115499184Y-81324244D01*
X115499500Y-81333090D01*
X115499500Y-83858510D01*
X115479815Y-83925549D01*
X115427011Y-83971304D01*
X115357853Y-83981248D01*
X115294297Y-83952223D01*
X115287819Y-83946191D01*
X114686818Y-83345190D01*
X114653333Y-83283867D01*
X114650499Y-83257509D01*
X114650499Y-82602129D01*
X114650498Y-82602123D01*
X114650497Y-82602116D01*
X114644091Y-82542517D01*
X114606770Y-82442455D01*
X114593797Y-82407671D01*
X114593793Y-82407664D01*
X114507547Y-82292455D01*
X114507544Y-82292452D01*
X114392335Y-82206206D01*
X114392328Y-82206202D01*
X114331041Y-82183344D01*
X114275107Y-82141473D01*
X114250690Y-82076009D01*
X114265541Y-82007736D01*
X114314946Y-81958330D01*
X114331041Y-81950980D01*
X114417328Y-81918797D01*
X114417327Y-81918797D01*
X114417331Y-81918796D01*
X114532546Y-81832546D01*
X114618796Y-81717331D01*
X114635753Y-81671868D01*
X114677623Y-81615934D01*
X114743088Y-81591516D01*
X114751935Y-81591200D01*
X114813828Y-81591200D01*
X114813831Y-81591200D01*
X114929222Y-81560281D01*
X114967089Y-81538418D01*
X115032678Y-81500551D01*
X115287819Y-81245408D01*
X115349142Y-81211924D01*
X115418833Y-81216908D01*
G37*
%TD.AperFunction*%
%TD*%
M02*
