%TF.GenerationSoftware,KiCad,Pcbnew,9.0.6*%
%TF.CreationDate,2026-01-01T17:20:02-06:00*%
%TF.ProjectId,gatekeeper,67617465-6b65-4657-9065-722e6b696361,rev?*%
%TF.SameCoordinates,Original*%
%TF.FileFunction,Copper,L1,Top*%
%TF.FilePolarity,Positive*%
%FSLAX46Y46*%
G04 Gerber Fmt 4.6, Leading zero omitted, Abs format (unit mm)*
G04 Created by KiCad (PCBNEW 9.0.6) date 2026-01-01 17:20:02*
%MOMM*%
%LPD*%
G01*
G04 APERTURE LIST*
%TA.AperFunction,ComponentPad*%
%ADD10R,1.070000X1.800000*%
%TD*%
%TA.AperFunction,ComponentPad*%
%ADD11O,1.070000X1.800000*%
%TD*%
%TA.AperFunction,ComponentPad*%
%ADD12C,2.540000*%
%TD*%
%TA.AperFunction,ComponentPad*%
%ADD13C,2.000000*%
%TD*%
%TA.AperFunction,ComponentPad*%
%ADD14R,1.700000X1.700000*%
%TD*%
%TA.AperFunction,ComponentPad*%
%ADD15O,1.700000X1.700000*%
%TD*%
%TA.AperFunction,ComponentPad*%
%ADD16C,1.700000*%
%TD*%
%TA.AperFunction,ViaPad*%
%ADD17C,0.600000*%
%TD*%
%TA.AperFunction,ViaPad*%
%ADD18C,0.812800*%
%TD*%
%TA.AperFunction,ViaPad*%
%ADD19C,1.016000*%
%TD*%
%TA.AperFunction,Conductor*%
%ADD20C,0.406400*%
%TD*%
G04 APERTURE END LIST*
D10*
%TO.P,LED1,1,DIN*%
%TO.N,Net-(LED1-DIN)*%
X106095000Y-120000000D03*
D11*
%TO.P,LED1,2,VDD*%
%TO.N,+5V*%
X107365000Y-120000000D03*
%TO.P,LED1,3,VSS*%
%TO.N,GND*%
X108635000Y-120000000D03*
%TO.P,LED1,4,DOUT*%
%TO.N,/NEOPXLD_LED2*%
X109905000Y-120000000D03*
%TD*%
D12*
%TO.P,J1,1,TIP*%
%TO.N,Net-(J1-TIP)*%
X107900000Y-68820000D03*
%TO.P,J1,2,NC*%
%TO.N,GND*%
X107900000Y-60520000D03*
%TO.P,J1,3,SLV*%
X107900000Y-57420000D03*
%TD*%
D13*
%TO.P,SW2,1,1*%
%TO.N,GND*%
X104750000Y-79750000D03*
X111250000Y-79750000D03*
%TO.P,SW2,2,2*%
%TO.N,/PB4_BTNB*%
X104750000Y-84250000D03*
X111250000Y-84250000D03*
%TD*%
%TO.P,SW1,1,1*%
%TO.N,GND*%
X105750000Y-109250000D03*
X105750000Y-102750000D03*
%TO.P,SW1,2,2*%
%TO.N,/PB2_SPI_SCK_BTNA*%
X110250000Y-109250000D03*
X110250000Y-102750000D03*
%TD*%
D12*
%TO.P,J2,1,TIP*%
%TO.N,Net-(J2-TIP)*%
X108000000Y-145080000D03*
%TO.P,J2,2,NC*%
%TO.N,GND*%
X108000000Y-153380000D03*
%TO.P,J2,3,SLV*%
X108000000Y-156480000D03*
%TD*%
D10*
%TO.P,LED2,1,DIN*%
%TO.N,/NEOPXLD_LED2*%
X109905000Y-135000000D03*
D11*
%TO.P,LED2,2,VDD*%
%TO.N,+5V*%
X108635000Y-135000000D03*
%TO.P,LED2,3,VSS*%
%TO.N,GND*%
X107365000Y-135000000D03*
%TO.P,LED2,4,DOUT*%
%TO.N,unconnected-(LED2-DOUT-Pad4)*%
X106095000Y-135000000D03*
%TD*%
D14*
%TO.P,J4,1,Pin_1*%
%TO.N,/PB1_SPI_MISO_GATEOUT*%
X104675000Y-96725000D03*
D15*
%TO.P,J4,2,Pin_2*%
%TO.N,+5V*%
X104675000Y-99265000D03*
%TO.P,J4,3,Pin_3*%
%TO.N,/PB2_SPI_SCK_BTNA*%
X107215000Y-96725000D03*
%TO.P,J4,4,Pin_4*%
%TO.N,/PB0_SPI_MOSI_NEOPXLD*%
X107215000Y-99265000D03*
%TO.P,J4,5,Pin_5*%
%TO.N,Net-(J4-Pin_5)*%
X109755000Y-96725000D03*
%TO.P,J4,6,Pin_6*%
%TO.N,GND*%
X109755000Y-99265000D03*
%TD*%
D14*
%TO.P,J3,1,Pin_1*%
%TO.N,unconnected-(J3-Pin_1-Pad1)*%
X102920000Y-51960000D03*
D16*
%TO.P,J3,2,Pin_2*%
%TO.N,unconnected-(J3-Pin_2-Pad2)*%
X102920000Y-54500000D03*
%TO.P,J3,3,Pin_3*%
%TO.N,GND*%
X105460000Y-51960000D03*
%TO.P,J3,4,Pin_4*%
X105460000Y-54500000D03*
%TO.P,J3,5,Pin_5*%
X108000000Y-51960000D03*
%TO.P,J3,6,Pin_6*%
X108000000Y-54500000D03*
%TO.P,J3,7,Pin_7*%
X110540000Y-51960000D03*
%TO.P,J3,8,Pin_8*%
X110540000Y-54500000D03*
%TO.P,J3,9,Pin_9*%
%TO.N,/+12V_RAW*%
X113080000Y-51960000D03*
%TO.P,J3,10,Pin_10*%
X113080000Y-54500000D03*
%TD*%
D17*
%TO.N,GND*%
X100900000Y-110600000D03*
X100900000Y-97300000D03*
X109900000Y-75400000D03*
D18*
X111500000Y-93600000D03*
D19*
X114900000Y-53300000D03*
D17*
X109200000Y-66300000D03*
X112300000Y-99100000D03*
D18*
X113900000Y-91900000D03*
D17*
X114600000Y-64900000D03*
X102100000Y-62100000D03*
X110200000Y-61500000D03*
X108700000Y-72200000D03*
X102100000Y-59000000D03*
D19*
X108000000Y-93300000D03*
X103800000Y-111900000D03*
D17*
X105300000Y-57500000D03*
X101900000Y-72600000D03*
X115100000Y-82800000D03*
X110400000Y-148900000D03*
X112100000Y-113700000D03*
D19*
X102000000Y-65900000D03*
X110100000Y-86200000D03*
X103900000Y-117900000D03*
X108600000Y-125000000D03*
D17*
X109600000Y-106200000D03*
X103100000Y-128200000D03*
X101700000Y-86900000D03*
D19*
X114700000Y-57300000D03*
D17*
X112900000Y-128700000D03*
D19*
X113200000Y-102200000D03*
D17*
X102900000Y-82300000D03*
X114000000Y-144900000D03*
X104900000Y-101100000D03*
X114000000Y-77600000D03*
X104200000Y-71600000D03*
D18*
X103100000Y-95400000D03*
D17*
X102700000Y-137700000D03*
X102100000Y-144400000D03*
X104700000Y-64700000D03*
X113000000Y-120200000D03*
X103600000Y-156500000D03*
D18*
%TO.N,+5V*%
X109700000Y-77600000D03*
X101800000Y-95200000D03*
D17*
%TO.N,/PB2_SPI_SCK_BTNA*%
X113100000Y-99400000D03*
X110950000Y-91250000D03*
%TO.N,/PB0_SPI_MOSI_NEOPXLD*%
X107400000Y-111200000D03*
%TO.N,/PB1_SPI_MISO_GATEOUT*%
X111000000Y-88500000D03*
X112100000Y-132300000D03*
%TD*%
D20*
%TO.N,+5V*%
X108000000Y-88800000D02*
X108000000Y-79300000D01*
X101800000Y-95000000D02*
X108000000Y-88800000D01*
X108000000Y-79300000D02*
X109700000Y-77600000D01*
X101800000Y-95200000D02*
X101800000Y-95000000D01*
%TO.N,/PB2_SPI_SCK_BTNA*%
X110950000Y-91250000D02*
X113100000Y-93400000D01*
X113100000Y-93400000D02*
X113100000Y-99400000D01*
X110600000Y-91600000D02*
X110600000Y-93340000D01*
X110950000Y-91250000D02*
X110600000Y-91600000D01*
X110600000Y-93340000D02*
X107215000Y-96725000D01*
%TO.N,/PB0_SPI_MOSI_NEOPXLD*%
X107700000Y-99750000D02*
X107215000Y-99265000D01*
X107700000Y-110900000D02*
X107700000Y-99750000D01*
X107400000Y-111200000D02*
X107700000Y-110900000D01*
%TO.N,/PB1_SPI_MISO_GATEOUT*%
X112100000Y-132300000D02*
X101900000Y-122100000D01*
X104675000Y-94825000D02*
X104675000Y-96725000D01*
X101900000Y-122100000D02*
X101900000Y-98200000D01*
X101900000Y-98200000D02*
X103375000Y-96725000D01*
X103375000Y-96725000D02*
X104675000Y-96725000D01*
X111000000Y-88500000D02*
X104675000Y-94825000D01*
%TD*%
%TA.AperFunction,Conductor*%
%TO.N,GND*%
G36*
X101743503Y-50520185D02*
G01*
X101789258Y-50572989D01*
X101799202Y-50642147D01*
X101770177Y-50705703D01*
X101750776Y-50723766D01*
X101712452Y-50752455D01*
X101626206Y-50867664D01*
X101626202Y-50867671D01*
X101575908Y-51002517D01*
X101569501Y-51062116D01*
X101569501Y-51062123D01*
X101569500Y-51062135D01*
X101569500Y-52857870D01*
X101569501Y-52857876D01*
X101575908Y-52917483D01*
X101626202Y-53052328D01*
X101626206Y-53052335D01*
X101712452Y-53167544D01*
X101712455Y-53167547D01*
X101827664Y-53253793D01*
X101827671Y-53253797D01*
X101959082Y-53302810D01*
X102015016Y-53344681D01*
X102039433Y-53410145D01*
X102024582Y-53478418D01*
X102003431Y-53506673D01*
X101889889Y-53620215D01*
X101764951Y-53792179D01*
X101668444Y-53981585D01*
X101602753Y-54183760D01*
X101569500Y-54393713D01*
X101569500Y-54606286D01*
X101602753Y-54816239D01*
X101668444Y-55018414D01*
X101764951Y-55207820D01*
X101889890Y-55379786D01*
X102040213Y-55530109D01*
X102212179Y-55655048D01*
X102212181Y-55655049D01*
X102212184Y-55655051D01*
X102401588Y-55751557D01*
X102603757Y-55817246D01*
X102813713Y-55850500D01*
X102813714Y-55850500D01*
X103026286Y-55850500D01*
X103026287Y-55850500D01*
X103236243Y-55817246D01*
X103438412Y-55751557D01*
X103627816Y-55655051D01*
X103717685Y-55589758D01*
X103799786Y-55530109D01*
X103799788Y-55530106D01*
X103799792Y-55530104D01*
X103950104Y-55379792D01*
X103950106Y-55379788D01*
X103950109Y-55379786D01*
X104035890Y-55261717D01*
X104075051Y-55207816D01*
X104079793Y-55198508D01*
X104127763Y-55147711D01*
X104195583Y-55130911D01*
X104261719Y-55153445D01*
X104300763Y-55198500D01*
X104305373Y-55207547D01*
X104344728Y-55261716D01*
X104977037Y-54629408D01*
X104994075Y-54692993D01*
X105059901Y-54807007D01*
X105152993Y-54900099D01*
X105267007Y-54965925D01*
X105330590Y-54982962D01*
X104698282Y-55615269D01*
X104698282Y-55615270D01*
X104752449Y-55654624D01*
X104941782Y-55751095D01*
X105143870Y-55816757D01*
X105353754Y-55850000D01*
X105566246Y-55850000D01*
X105776127Y-55816757D01*
X105776130Y-55816757D01*
X105978217Y-55751095D01*
X106167554Y-55654622D01*
X106221716Y-55615270D01*
X106221717Y-55615270D01*
X105589408Y-54982962D01*
X105652993Y-54965925D01*
X105767007Y-54900099D01*
X105860099Y-54807007D01*
X105925925Y-54692993D01*
X105942962Y-54629409D01*
X106575270Y-55261717D01*
X106575270Y-55261716D01*
X106614622Y-55207554D01*
X106619514Y-55197954D01*
X106667488Y-55147157D01*
X106735308Y-55130361D01*
X106801444Y-55152897D01*
X106840486Y-55197954D01*
X106845375Y-55207550D01*
X106884728Y-55261716D01*
X107517037Y-54629408D01*
X107534075Y-54692993D01*
X107599901Y-54807007D01*
X107692993Y-54900099D01*
X107807007Y-54965925D01*
X107870590Y-54982962D01*
X107238282Y-55615269D01*
X107240094Y-55638295D01*
X107244691Y-55644255D01*
X107250673Y-55713868D01*
X107218070Y-55775665D01*
X107176595Y-55803809D01*
X107115473Y-55829126D01*
X107115461Y-55829132D01*
X106914541Y-55945134D01*
X106914533Y-55945140D01*
X106837671Y-56004116D01*
X106837671Y-56004117D01*
X107575975Y-56742421D01*
X107544742Y-56755359D01*
X107421903Y-56837437D01*
X107317437Y-56941903D01*
X107235359Y-57064742D01*
X107222421Y-57095975D01*
X106484117Y-56357671D01*
X106484116Y-56357671D01*
X106425140Y-56434533D01*
X106425134Y-56434541D01*
X106309132Y-56635461D01*
X106309124Y-56635478D01*
X106220336Y-56849832D01*
X106160286Y-57073946D01*
X106160283Y-57073959D01*
X106130001Y-57303977D01*
X106130000Y-57303994D01*
X106130000Y-57536005D01*
X106130001Y-57536022D01*
X106160283Y-57766040D01*
X106160286Y-57766053D01*
X106220336Y-57990167D01*
X106309124Y-58204521D01*
X106309132Y-58204538D01*
X106425136Y-58405461D01*
X106425142Y-58405469D01*
X106484117Y-58482327D01*
X107222421Y-57744024D01*
X107235359Y-57775258D01*
X107317437Y-57898097D01*
X107421903Y-58002563D01*
X107544742Y-58084641D01*
X107575975Y-58097578D01*
X106863315Y-58810237D01*
X106917826Y-58910995D01*
X106919820Y-58920336D01*
X106925453Y-58928051D01*
X106926995Y-58953949D01*
X106932413Y-58979325D01*
X106929039Y-58988262D01*
X106929608Y-58997797D01*
X106916903Y-59020419D01*
X106907742Y-59044694D01*
X106900073Y-59050388D01*
X106895396Y-59058717D01*
X106884250Y-59068375D01*
X106837671Y-59104115D01*
X106837671Y-59104117D01*
X107575975Y-59842421D01*
X107544742Y-59855359D01*
X107421903Y-59937437D01*
X107317437Y-60041903D01*
X107235359Y-60164742D01*
X107222421Y-60195975D01*
X106484117Y-59457671D01*
X106484116Y-59457671D01*
X106425140Y-59534533D01*
X106425134Y-59534541D01*
X106309132Y-59735461D01*
X106309124Y-59735478D01*
X106220336Y-59949832D01*
X106160286Y-60173946D01*
X106160283Y-60173959D01*
X106130001Y-60403977D01*
X106130000Y-60403994D01*
X106130000Y-60636005D01*
X106130001Y-60636022D01*
X106160283Y-60866040D01*
X106160286Y-60866053D01*
X106220336Y-61090167D01*
X106309124Y-61304521D01*
X106309132Y-61304538D01*
X106425136Y-61505461D01*
X106425142Y-61505469D01*
X106484117Y-61582327D01*
X107222421Y-60844024D01*
X107235359Y-60875258D01*
X107317437Y-60998097D01*
X107421903Y-61102563D01*
X107544742Y-61184641D01*
X107575975Y-61197578D01*
X106837671Y-61935881D01*
X106914530Y-61994857D01*
X106914538Y-61994863D01*
X107118984Y-62112901D01*
X107118235Y-62114198D01*
X107165058Y-62157272D01*
X107182742Y-62224866D01*
X107161074Y-62291291D01*
X107120797Y-62328569D01*
X106925382Y-62441392D01*
X106743338Y-62581081D01*
X106581081Y-62743338D01*
X106441392Y-62925382D01*
X106326657Y-63124109D01*
X106326650Y-63124123D01*
X106238842Y-63336112D01*
X106179453Y-63557759D01*
X106179451Y-63557770D01*
X106149500Y-63785258D01*
X106149500Y-64014741D01*
X106174446Y-64204215D01*
X106179452Y-64242238D01*
X106179453Y-64242240D01*
X106238842Y-64463887D01*
X106326650Y-64675876D01*
X106326657Y-64675890D01*
X106441392Y-64874617D01*
X106581081Y-65056661D01*
X106581089Y-65056670D01*
X106743330Y-65218911D01*
X106743338Y-65218918D01*
X106925382Y-65358607D01*
X106925385Y-65358608D01*
X106925388Y-65358611D01*
X107124112Y-65473344D01*
X107124117Y-65473346D01*
X107124123Y-65473349D01*
X107215480Y-65511190D01*
X107336113Y-65561158D01*
X107557762Y-65620548D01*
X107785266Y-65650500D01*
X107785273Y-65650500D01*
X108014727Y-65650500D01*
X108014734Y-65650500D01*
X108242238Y-65620548D01*
X108463887Y-65561158D01*
X108675888Y-65473344D01*
X108874612Y-65358611D01*
X109056661Y-65218919D01*
X109056665Y-65218914D01*
X109056670Y-65218911D01*
X109218911Y-65056670D01*
X109218914Y-65056665D01*
X109218919Y-65056661D01*
X109358611Y-64874612D01*
X109473344Y-64675888D01*
X109561158Y-64463887D01*
X109620548Y-64242238D01*
X109650500Y-64014734D01*
X109650500Y-63785266D01*
X109620548Y-63557762D01*
X109561158Y-63336113D01*
X109473344Y-63124112D01*
X109358611Y-62925388D01*
X109358608Y-62925385D01*
X109358607Y-62925382D01*
X109218918Y-62743338D01*
X109218911Y-62743330D01*
X109056670Y-62581089D01*
X109056661Y-62581081D01*
X108874617Y-62441392D01*
X108679202Y-62328569D01*
X108630986Y-62278002D01*
X108617764Y-62209395D01*
X108643732Y-62144530D01*
X108681569Y-62113859D01*
X108681016Y-62112901D01*
X108885475Y-61994855D01*
X108962327Y-61935883D01*
X108962327Y-61935880D01*
X108224024Y-61197578D01*
X108255258Y-61184641D01*
X108378097Y-61102563D01*
X108482563Y-60998097D01*
X108564641Y-60875258D01*
X108577578Y-60844025D01*
X109315880Y-61582327D01*
X109315883Y-61582327D01*
X109374855Y-61505475D01*
X109490867Y-61304538D01*
X109490875Y-61304521D01*
X109579663Y-61090167D01*
X109639713Y-60866053D01*
X109639716Y-60866040D01*
X109669998Y-60636022D01*
X109670000Y-60636005D01*
X109670000Y-60403994D01*
X109669998Y-60403977D01*
X109639716Y-60173959D01*
X109639713Y-60173946D01*
X109579663Y-59949832D01*
X109490875Y-59735478D01*
X109490867Y-59735461D01*
X109374863Y-59534538D01*
X109374857Y-59534530D01*
X109315881Y-59457671D01*
X108577578Y-60195974D01*
X108564641Y-60164742D01*
X108482563Y-60041903D01*
X108378097Y-59937437D01*
X108255258Y-59855359D01*
X108224024Y-59842421D01*
X108962327Y-59104117D01*
X108962327Y-59104116D01*
X108915749Y-59068376D01*
X108874546Y-59011948D01*
X108870391Y-58942202D01*
X108904603Y-58881282D01*
X108915748Y-58871625D01*
X108962327Y-58835882D01*
X108962327Y-58835880D01*
X108224024Y-58097578D01*
X108255258Y-58084641D01*
X108378097Y-58002563D01*
X108482563Y-57898097D01*
X108564641Y-57775258D01*
X108577578Y-57744025D01*
X109315880Y-58482327D01*
X109315883Y-58482327D01*
X109374855Y-58405475D01*
X109490867Y-58204538D01*
X109490875Y-58204521D01*
X109579663Y-57990167D01*
X109639713Y-57766053D01*
X109639716Y-57766040D01*
X109669998Y-57536022D01*
X109670000Y-57536005D01*
X109670000Y-57303994D01*
X109669998Y-57303977D01*
X109639716Y-57073959D01*
X109639713Y-57073946D01*
X109579663Y-56849832D01*
X109490875Y-56635478D01*
X109490867Y-56635461D01*
X109374863Y-56434538D01*
X109374857Y-56434530D01*
X109315881Y-56357671D01*
X108577578Y-57095974D01*
X108564641Y-57064742D01*
X108482563Y-56941903D01*
X108378097Y-56837437D01*
X108255258Y-56755359D01*
X108224024Y-56742421D01*
X108962327Y-56004117D01*
X108885469Y-55945142D01*
X108885468Y-55945141D01*
X108728886Y-55854737D01*
X108680671Y-55804169D01*
X108667449Y-55735562D01*
X108682312Y-55687454D01*
X108736205Y-55589758D01*
X108129408Y-54982962D01*
X108192993Y-54965925D01*
X108307007Y-54900099D01*
X108400099Y-54807007D01*
X108465925Y-54692993D01*
X108482962Y-54629409D01*
X109115270Y-55261717D01*
X109115270Y-55261716D01*
X109154622Y-55207554D01*
X109159514Y-55197954D01*
X109207488Y-55147157D01*
X109275308Y-55130361D01*
X109341444Y-55152897D01*
X109380486Y-55197954D01*
X109385375Y-55207550D01*
X109424728Y-55261716D01*
X110057037Y-54629408D01*
X110074075Y-54692993D01*
X110139901Y-54807007D01*
X110232993Y-54900099D01*
X110347007Y-54965925D01*
X110410590Y-54982962D01*
X109778282Y-55615269D01*
X109778282Y-55615270D01*
X109832449Y-55654624D01*
X110021782Y-55751095D01*
X110223870Y-55816757D01*
X110433754Y-55850000D01*
X110646246Y-55850000D01*
X110856127Y-55816757D01*
X110856130Y-55816757D01*
X111058217Y-55751095D01*
X111247554Y-55654622D01*
X111301716Y-55615270D01*
X111301717Y-55615270D01*
X110669408Y-54982962D01*
X110732993Y-54965925D01*
X110847007Y-54900099D01*
X110940099Y-54807007D01*
X111005925Y-54692993D01*
X111022962Y-54629408D01*
X111655270Y-55261717D01*
X111655270Y-55261716D01*
X111694622Y-55207555D01*
X111699232Y-55198507D01*
X111747205Y-55147709D01*
X111815025Y-55130912D01*
X111881161Y-55153447D01*
X111920204Y-55198504D01*
X111924949Y-55207817D01*
X112049890Y-55379786D01*
X112200213Y-55530109D01*
X112372179Y-55655048D01*
X112372181Y-55655049D01*
X112372184Y-55655051D01*
X112561588Y-55751557D01*
X112763757Y-55817246D01*
X112973713Y-55850500D01*
X112973714Y-55850500D01*
X113186286Y-55850500D01*
X113186287Y-55850500D01*
X113396243Y-55817246D01*
X113598412Y-55751557D01*
X113787816Y-55655051D01*
X113877685Y-55589758D01*
X113959786Y-55530109D01*
X113959788Y-55530106D01*
X113959792Y-55530104D01*
X114110104Y-55379792D01*
X114110106Y-55379788D01*
X114110109Y-55379786D01*
X114235048Y-55207820D01*
X114235047Y-55207820D01*
X114235051Y-55207816D01*
X114331557Y-55018412D01*
X114397246Y-54816243D01*
X114430500Y-54606287D01*
X114430500Y-54393713D01*
X114397246Y-54183757D01*
X114331557Y-53981588D01*
X114235051Y-53792184D01*
X114235049Y-53792181D01*
X114235048Y-53792179D01*
X114110109Y-53620213D01*
X113959786Y-53469890D01*
X113787820Y-53344951D01*
X113787115Y-53344591D01*
X113779054Y-53340485D01*
X113728259Y-53292512D01*
X113711463Y-53224692D01*
X113733999Y-53158556D01*
X113779054Y-53119515D01*
X113787816Y-53115051D01*
X113874138Y-53052335D01*
X113959786Y-52990109D01*
X113959788Y-52990106D01*
X113959792Y-52990104D01*
X114110104Y-52839792D01*
X114110106Y-52839788D01*
X114110109Y-52839786D01*
X114235048Y-52667820D01*
X114235050Y-52667817D01*
X114235051Y-52667816D01*
X114331557Y-52478412D01*
X114397246Y-52276243D01*
X114430500Y-52066287D01*
X114430500Y-51853713D01*
X114397246Y-51643757D01*
X114331557Y-51441588D01*
X114235051Y-51252184D01*
X114235049Y-51252181D01*
X114235048Y-51252179D01*
X114110109Y-51080213D01*
X113959786Y-50929890D01*
X113787819Y-50804951D01*
X113787818Y-50804950D01*
X113787816Y-50804949D01*
X113650504Y-50734985D01*
X113599708Y-50687010D01*
X113582913Y-50619189D01*
X113605450Y-50553054D01*
X113660166Y-50509603D01*
X113706799Y-50500500D01*
X115375500Y-50500500D01*
X115442539Y-50520185D01*
X115488294Y-50572989D01*
X115499500Y-50624500D01*
X115499500Y-159375500D01*
X115479815Y-159442539D01*
X115427011Y-159488294D01*
X115375500Y-159499500D01*
X100624500Y-159499500D01*
X100557461Y-159479815D01*
X100511706Y-159427011D01*
X100500500Y-159375500D01*
X100500500Y-153263994D01*
X106230000Y-153263994D01*
X106230000Y-153496005D01*
X106230001Y-153496022D01*
X106260283Y-153726040D01*
X106260286Y-153726053D01*
X106320336Y-153950167D01*
X106409124Y-154164521D01*
X106409132Y-154164538D01*
X106525136Y-154365461D01*
X106525142Y-154365469D01*
X106584117Y-154442327D01*
X107322421Y-153704024D01*
X107335359Y-153735258D01*
X107417437Y-153858097D01*
X107521903Y-153962563D01*
X107644742Y-154044641D01*
X107675975Y-154057578D01*
X106963315Y-154770237D01*
X107017826Y-154870995D01*
X107019820Y-154880336D01*
X107025453Y-154888051D01*
X107026995Y-154913949D01*
X107032413Y-154939325D01*
X107029039Y-154948262D01*
X107029608Y-154957797D01*
X107016903Y-154980419D01*
X107007742Y-155004694D01*
X107000073Y-155010388D01*
X106995396Y-155018717D01*
X106984250Y-155028375D01*
X106937671Y-155064115D01*
X106937671Y-155064117D01*
X107675975Y-155802421D01*
X107644742Y-155815359D01*
X107521903Y-155897437D01*
X107417437Y-156001903D01*
X107335359Y-156124742D01*
X107322421Y-156155975D01*
X106584117Y-155417671D01*
X106584116Y-155417671D01*
X106525140Y-155494533D01*
X106525134Y-155494541D01*
X106409132Y-155695461D01*
X106409124Y-155695478D01*
X106320336Y-155909832D01*
X106260286Y-156133946D01*
X106260283Y-156133959D01*
X106230001Y-156363977D01*
X106230000Y-156363994D01*
X106230000Y-156596005D01*
X106230001Y-156596022D01*
X106260283Y-156826040D01*
X106260286Y-156826053D01*
X106320336Y-157050167D01*
X106409124Y-157264521D01*
X106409132Y-157264538D01*
X106525136Y-157465461D01*
X106525142Y-157465469D01*
X106584117Y-157542327D01*
X107322421Y-156804024D01*
X107335359Y-156835258D01*
X107417437Y-156958097D01*
X107521903Y-157062563D01*
X107644742Y-157144641D01*
X107675975Y-157157578D01*
X106937671Y-157895881D01*
X107014530Y-157954857D01*
X107014538Y-157954863D01*
X107215461Y-158070867D01*
X107215478Y-158070875D01*
X107429832Y-158159663D01*
X107653946Y-158219713D01*
X107653959Y-158219716D01*
X107883977Y-158249998D01*
X107883995Y-158250000D01*
X108116005Y-158250000D01*
X108116022Y-158249998D01*
X108346040Y-158219716D01*
X108346053Y-158219713D01*
X108570167Y-158159663D01*
X108784521Y-158070875D01*
X108784538Y-158070867D01*
X108985475Y-157954855D01*
X109062327Y-157895883D01*
X109062327Y-157895880D01*
X108324024Y-157157578D01*
X108355258Y-157144641D01*
X108478097Y-157062563D01*
X108582563Y-156958097D01*
X108664641Y-156835258D01*
X108677578Y-156804025D01*
X109415880Y-157542327D01*
X109415883Y-157542327D01*
X109474855Y-157465475D01*
X109590867Y-157264538D01*
X109590875Y-157264521D01*
X109679663Y-157050167D01*
X109739713Y-156826053D01*
X109739716Y-156826040D01*
X109769998Y-156596022D01*
X109770000Y-156596005D01*
X109770000Y-156363994D01*
X109769998Y-156363977D01*
X109739716Y-156133959D01*
X109739713Y-156133946D01*
X109679663Y-155909832D01*
X109590875Y-155695478D01*
X109590867Y-155695461D01*
X109474863Y-155494538D01*
X109474857Y-155494530D01*
X109415881Y-155417671D01*
X108677578Y-156155974D01*
X108664641Y-156124742D01*
X108582563Y-156001903D01*
X108478097Y-155897437D01*
X108355258Y-155815359D01*
X108324024Y-155802421D01*
X109062327Y-155064117D01*
X109062327Y-155064116D01*
X109015749Y-155028376D01*
X108974546Y-154971948D01*
X108970391Y-154902202D01*
X109004603Y-154841282D01*
X109015748Y-154831625D01*
X109062327Y-154795882D01*
X109062327Y-154795880D01*
X108324024Y-154057578D01*
X108355258Y-154044641D01*
X108478097Y-153962563D01*
X108582563Y-153858097D01*
X108664641Y-153735258D01*
X108677578Y-153704025D01*
X109415880Y-154442327D01*
X109415883Y-154442327D01*
X109474855Y-154365475D01*
X109590867Y-154164538D01*
X109590875Y-154164521D01*
X109679663Y-153950167D01*
X109739713Y-153726053D01*
X109739716Y-153726040D01*
X109769998Y-153496022D01*
X109770000Y-153496005D01*
X109770000Y-153263994D01*
X109769998Y-153263977D01*
X109739716Y-153033959D01*
X109739713Y-153033946D01*
X109679663Y-152809832D01*
X109590875Y-152595478D01*
X109590867Y-152595461D01*
X109474863Y-152394538D01*
X109474857Y-152394530D01*
X109415881Y-152317671D01*
X108677578Y-153055974D01*
X108664641Y-153024742D01*
X108582563Y-152901903D01*
X108478097Y-152797437D01*
X108355258Y-152715359D01*
X108324024Y-152702421D01*
X109062327Y-151964117D01*
X108985469Y-151905142D01*
X108985461Y-151905136D01*
X108781016Y-151787099D01*
X108781761Y-151785807D01*
X108734926Y-151742703D01*
X108717258Y-151675105D01*
X108738940Y-151608685D01*
X108779200Y-151571431D01*
X108974612Y-151458611D01*
X109156661Y-151318919D01*
X109156665Y-151318914D01*
X109156670Y-151318911D01*
X109318911Y-151156670D01*
X109318914Y-151156665D01*
X109318919Y-151156661D01*
X109458611Y-150974612D01*
X109573344Y-150775888D01*
X109661158Y-150563887D01*
X109720548Y-150342238D01*
X109750500Y-150114734D01*
X109750500Y-149885266D01*
X109720548Y-149657762D01*
X109661158Y-149436113D01*
X109573344Y-149224112D01*
X109458611Y-149025388D01*
X109458608Y-149025385D01*
X109458607Y-149025382D01*
X109318918Y-148843338D01*
X109318911Y-148843330D01*
X109156670Y-148681089D01*
X109156661Y-148681081D01*
X108974617Y-148541392D01*
X108775890Y-148426657D01*
X108775876Y-148426650D01*
X108563887Y-148338842D01*
X108342238Y-148279452D01*
X108304215Y-148274446D01*
X108114741Y-148249500D01*
X108114734Y-148249500D01*
X107885266Y-148249500D01*
X107885258Y-148249500D01*
X107668715Y-148278009D01*
X107657762Y-148279452D01*
X107564076Y-148304554D01*
X107436112Y-148338842D01*
X107224123Y-148426650D01*
X107224109Y-148426657D01*
X107025382Y-148541392D01*
X106843338Y-148681081D01*
X106681081Y-148843338D01*
X106541392Y-149025382D01*
X106426657Y-149224109D01*
X106426650Y-149224123D01*
X106338842Y-149436112D01*
X106279453Y-149657759D01*
X106279451Y-149657770D01*
X106249500Y-149885258D01*
X106249500Y-150114741D01*
X106274446Y-150304215D01*
X106279452Y-150342238D01*
X106279453Y-150342240D01*
X106338842Y-150563887D01*
X106426650Y-150775876D01*
X106426657Y-150775890D01*
X106541392Y-150974617D01*
X106681081Y-151156661D01*
X106681089Y-151156670D01*
X106843330Y-151318911D01*
X106843338Y-151318918D01*
X107025382Y-151458607D01*
X107025385Y-151458608D01*
X107025388Y-151458611D01*
X107220797Y-151571430D01*
X107269013Y-151621997D01*
X107282236Y-151690604D01*
X107256268Y-151755469D01*
X107218438Y-151786153D01*
X107218984Y-151787099D01*
X107014541Y-151905134D01*
X107014533Y-151905140D01*
X106937671Y-151964116D01*
X106937671Y-151964117D01*
X107675975Y-152702421D01*
X107644742Y-152715359D01*
X107521903Y-152797437D01*
X107417437Y-152901903D01*
X107335359Y-153024742D01*
X107322421Y-153055975D01*
X106584117Y-152317671D01*
X106584116Y-152317671D01*
X106525140Y-152394533D01*
X106525134Y-152394541D01*
X106409132Y-152595461D01*
X106409124Y-152595478D01*
X106320336Y-152809832D01*
X106260286Y-153033946D01*
X106260283Y-153033959D01*
X106230001Y-153263977D01*
X106230000Y-153263994D01*
X100500500Y-153263994D01*
X100500500Y-144963947D01*
X106229500Y-144963947D01*
X106229500Y-145196052D01*
X106259794Y-145426148D01*
X106319862Y-145650328D01*
X106408677Y-145864745D01*
X106408685Y-145864762D01*
X106524720Y-146065743D01*
X106524721Y-146065745D01*
X106666009Y-146249875D01*
X106666015Y-146249882D01*
X106830117Y-146413984D01*
X106830124Y-146413990D01*
X107014254Y-146555278D01*
X107014256Y-146555279D01*
X107215237Y-146671314D01*
X107215240Y-146671315D01*
X107215248Y-146671320D01*
X107429670Y-146760137D01*
X107653851Y-146820206D01*
X107883955Y-146850500D01*
X107883962Y-146850500D01*
X108116038Y-146850500D01*
X108116045Y-146850500D01*
X108346149Y-146820206D01*
X108570330Y-146760137D01*
X108784752Y-146671320D01*
X108985748Y-146555276D01*
X109169877Y-146413989D01*
X109333989Y-146249877D01*
X109475276Y-146065748D01*
X109591320Y-145864752D01*
X109680137Y-145650330D01*
X109740206Y-145426149D01*
X109770500Y-145196045D01*
X109770500Y-144963955D01*
X109740206Y-144733851D01*
X109680137Y-144509670D01*
X109591320Y-144295248D01*
X109591314Y-144295237D01*
X109475279Y-144094256D01*
X109475278Y-144094254D01*
X109333990Y-143910124D01*
X109333984Y-143910117D01*
X109169882Y-143746015D01*
X109169875Y-143746009D01*
X108985745Y-143604721D01*
X108985743Y-143604720D01*
X108784762Y-143488685D01*
X108784754Y-143488681D01*
X108784752Y-143488680D01*
X108570330Y-143399863D01*
X108570331Y-143399863D01*
X108570328Y-143399862D01*
X108428203Y-143361780D01*
X108346149Y-143339794D01*
X108317386Y-143336007D01*
X108116052Y-143309500D01*
X108116045Y-143309500D01*
X107883955Y-143309500D01*
X107883947Y-143309500D01*
X107653851Y-143339794D01*
X107429671Y-143399862D01*
X107215254Y-143488677D01*
X107215237Y-143488685D01*
X107014256Y-143604720D01*
X107014254Y-143604721D01*
X106830124Y-143746009D01*
X106830117Y-143746015D01*
X106666015Y-143910117D01*
X106666009Y-143910124D01*
X106524721Y-144094254D01*
X106524720Y-144094256D01*
X106408685Y-144295237D01*
X106408677Y-144295254D01*
X106319862Y-144509671D01*
X106259794Y-144733851D01*
X106229500Y-144963947D01*
X100500500Y-144963947D01*
X100500500Y-135466990D01*
X105059499Y-135466990D01*
X105099292Y-135667038D01*
X105099295Y-135667048D01*
X105177348Y-135855486D01*
X105177355Y-135855499D01*
X105290674Y-136025092D01*
X105290677Y-136025096D01*
X105434903Y-136169322D01*
X105434907Y-136169325D01*
X105604500Y-136282644D01*
X105604513Y-136282651D01*
X105792951Y-136360704D01*
X105792956Y-136360706D01*
X105792960Y-136360706D01*
X105792961Y-136360707D01*
X105993009Y-136400500D01*
X105993012Y-136400500D01*
X106196990Y-136400500D01*
X106347560Y-136370549D01*
X106397044Y-136360706D01*
X106585493Y-136282648D01*
X106661558Y-136231822D01*
X106728234Y-136210944D01*
X106795614Y-136229428D01*
X106799339Y-136231822D01*
X106874742Y-136282204D01*
X107063101Y-136360225D01*
X107063109Y-136360227D01*
X107114999Y-136370549D01*
X107115000Y-136370549D01*
X107115000Y-135557122D01*
X107117383Y-135532929D01*
X107130500Y-135466989D01*
X107130500Y-135384226D01*
X107191306Y-135419333D01*
X107305756Y-135450000D01*
X107424244Y-135450000D01*
X107538694Y-135419333D01*
X107599500Y-135384226D01*
X107599500Y-135466989D01*
X107612617Y-135532929D01*
X107615000Y-135557122D01*
X107615000Y-136370549D01*
X107666890Y-136360227D01*
X107666898Y-136360225D01*
X107855252Y-136282206D01*
X107855256Y-136282204D01*
X107930658Y-136231822D01*
X107997336Y-136210944D01*
X108064716Y-136229428D01*
X108068401Y-136231796D01*
X108144507Y-136282648D01*
X108144509Y-136282649D01*
X108144513Y-136282651D01*
X108332951Y-136360704D01*
X108332956Y-136360706D01*
X108332960Y-136360706D01*
X108332961Y-136360707D01*
X108533009Y-136400500D01*
X108533012Y-136400500D01*
X108736990Y-136400500D01*
X108887560Y-136370549D01*
X108937044Y-136360706D01*
X109009071Y-136330870D01*
X109078539Y-136323402D01*
X109119067Y-136341044D01*
X109119886Y-136339546D01*
X109127671Y-136343797D01*
X109262517Y-136394091D01*
X109262516Y-136394091D01*
X109269444Y-136394835D01*
X109322127Y-136400500D01*
X110487872Y-136400499D01*
X110547483Y-136394091D01*
X110682331Y-136343796D01*
X110797546Y-136257546D01*
X110883796Y-136142331D01*
X110934091Y-136007483D01*
X110940500Y-135947873D01*
X110940499Y-134052128D01*
X110934091Y-133992517D01*
X110927521Y-133974903D01*
X110883797Y-133857671D01*
X110883793Y-133857664D01*
X110797547Y-133742455D01*
X110797544Y-133742452D01*
X110682335Y-133656206D01*
X110682328Y-133656202D01*
X110547482Y-133605908D01*
X110547483Y-133605908D01*
X110487883Y-133599501D01*
X110487881Y-133599500D01*
X110487873Y-133599500D01*
X110487864Y-133599500D01*
X109322129Y-133599500D01*
X109322123Y-133599501D01*
X109262516Y-133605908D01*
X109127671Y-133656202D01*
X109119890Y-133660452D01*
X109118740Y-133658347D01*
X109065356Y-133678252D01*
X109009072Y-133669128D01*
X108937048Y-133639295D01*
X108937038Y-133639292D01*
X108736990Y-133599500D01*
X108736988Y-133599500D01*
X108533012Y-133599500D01*
X108533010Y-133599500D01*
X108332961Y-133639292D01*
X108332951Y-133639295D01*
X108144511Y-133717349D01*
X108068438Y-133768178D01*
X108001760Y-133789054D01*
X107934380Y-133770568D01*
X107930659Y-133768177D01*
X107855254Y-133717794D01*
X107666896Y-133639773D01*
X107666893Y-133639772D01*
X107615000Y-133629449D01*
X107615000Y-134442876D01*
X107612943Y-134465366D01*
X107612780Y-134466246D01*
X107599500Y-134533012D01*
X107599500Y-134538256D01*
X107599500Y-134615773D01*
X107538694Y-134580667D01*
X107424244Y-134550000D01*
X107305756Y-134550000D01*
X107191306Y-134580667D01*
X107130500Y-134615773D01*
X107130500Y-134538256D01*
X107130500Y-134533012D01*
X107117219Y-134466246D01*
X107117057Y-134465366D01*
X107117138Y-134464582D01*
X107115000Y-134442876D01*
X107115000Y-133629450D01*
X107114999Y-133629449D01*
X107063106Y-133639772D01*
X107063103Y-133639773D01*
X106874745Y-133717794D01*
X106799339Y-133768178D01*
X106732661Y-133789055D01*
X106665281Y-133770570D01*
X106661558Y-133768177D01*
X106586154Y-133717794D01*
X106585493Y-133717352D01*
X106585492Y-133717351D01*
X106585490Y-133717350D01*
X106397048Y-133639295D01*
X106397038Y-133639292D01*
X106196990Y-133599500D01*
X106196988Y-133599500D01*
X105993012Y-133599500D01*
X105993010Y-133599500D01*
X105792961Y-133639292D01*
X105792951Y-133639295D01*
X105604513Y-133717348D01*
X105604500Y-133717355D01*
X105434907Y-133830674D01*
X105434903Y-133830677D01*
X105290677Y-133974903D01*
X105290674Y-133974907D01*
X105177355Y-134144500D01*
X105177348Y-134144513D01*
X105099295Y-134332951D01*
X105099292Y-134332961D01*
X105059500Y-134533009D01*
X105059500Y-134533012D01*
X105059500Y-135466988D01*
X105059500Y-135466990D01*
X105059499Y-135466990D01*
X100500500Y-135466990D01*
X100500500Y-122169310D01*
X101196298Y-122169310D01*
X101223341Y-122305256D01*
X101223343Y-122305264D01*
X101276386Y-122433323D01*
X101353401Y-122548585D01*
X101455736Y-122650920D01*
X101455758Y-122650940D01*
X111307127Y-132502309D01*
X111334007Y-132542537D01*
X111390604Y-132679176D01*
X111390609Y-132679185D01*
X111478210Y-132810288D01*
X111478213Y-132810292D01*
X111589707Y-132921786D01*
X111589711Y-132921789D01*
X111720814Y-133009390D01*
X111720827Y-133009397D01*
X111866498Y-133069735D01*
X111866503Y-133069737D01*
X112021153Y-133100499D01*
X112021156Y-133100500D01*
X112021158Y-133100500D01*
X112178844Y-133100500D01*
X112178845Y-133100499D01*
X112333497Y-133069737D01*
X112479179Y-133009394D01*
X112610289Y-132921789D01*
X112721789Y-132810289D01*
X112809394Y-132679179D01*
X112869737Y-132533497D01*
X112900500Y-132378842D01*
X112900500Y-132221158D01*
X112900500Y-132221155D01*
X112900499Y-132221153D01*
X112869738Y-132066510D01*
X112869737Y-132066503D01*
X112869735Y-132066498D01*
X112809397Y-131920827D01*
X112809390Y-131920814D01*
X112721789Y-131789711D01*
X112721786Y-131789707D01*
X112610292Y-131678213D01*
X112610288Y-131678210D01*
X112479185Y-131590609D01*
X112479176Y-131590604D01*
X112342537Y-131534007D01*
X112302309Y-131507127D01*
X102640019Y-121844837D01*
X102606534Y-121783514D01*
X102603700Y-121757156D01*
X102603700Y-119052135D01*
X105059500Y-119052135D01*
X105059500Y-120947870D01*
X105059501Y-120947876D01*
X105065908Y-121007483D01*
X105116202Y-121142328D01*
X105116206Y-121142335D01*
X105202452Y-121257544D01*
X105202455Y-121257547D01*
X105317664Y-121343793D01*
X105317671Y-121343797D01*
X105452517Y-121394091D01*
X105452516Y-121394091D01*
X105459444Y-121394835D01*
X105512127Y-121400500D01*
X106677872Y-121400499D01*
X106737483Y-121394091D01*
X106872331Y-121343796D01*
X106872335Y-121343792D01*
X106880118Y-121339544D01*
X106881269Y-121341653D01*
X106934614Y-121321749D01*
X106990928Y-121330870D01*
X107062956Y-121360706D01*
X107062960Y-121360706D01*
X107062961Y-121360707D01*
X107263009Y-121400500D01*
X107263012Y-121400500D01*
X107466990Y-121400500D01*
X107617560Y-121370549D01*
X107667044Y-121360706D01*
X107855493Y-121282648D01*
X107931558Y-121231822D01*
X107998234Y-121210944D01*
X108065614Y-121229428D01*
X108069339Y-121231822D01*
X108144742Y-121282204D01*
X108333101Y-121360225D01*
X108333109Y-121360227D01*
X108384999Y-121370549D01*
X108385000Y-121370549D01*
X108385000Y-120557122D01*
X108387383Y-120532929D01*
X108400500Y-120466989D01*
X108400500Y-120384226D01*
X108461306Y-120419333D01*
X108575756Y-120450000D01*
X108694244Y-120450000D01*
X108808694Y-120419333D01*
X108869500Y-120384226D01*
X108869500Y-120466989D01*
X108882617Y-120532929D01*
X108885000Y-120557122D01*
X108885000Y-121370549D01*
X108936890Y-121360227D01*
X108936898Y-121360225D01*
X109125252Y-121282206D01*
X109125256Y-121282204D01*
X109200658Y-121231822D01*
X109267336Y-121210944D01*
X109334716Y-121229428D01*
X109338401Y-121231796D01*
X109414507Y-121282648D01*
X109414509Y-121282649D01*
X109414513Y-121282651D01*
X109602951Y-121360704D01*
X109602956Y-121360706D01*
X109602960Y-121360706D01*
X109602961Y-121360707D01*
X109803009Y-121400500D01*
X109803012Y-121400500D01*
X110006990Y-121400500D01*
X110157560Y-121370549D01*
X110207044Y-121360706D01*
X110395493Y-121282648D01*
X110396158Y-121282204D01*
X110471558Y-121231823D01*
X110565093Y-121169325D01*
X110709325Y-121025093D01*
X110822648Y-120855493D01*
X110900706Y-120667044D01*
X110922571Y-120557122D01*
X110940500Y-120466990D01*
X110940500Y-119533009D01*
X110900707Y-119332961D01*
X110900706Y-119332960D01*
X110900706Y-119332956D01*
X110900704Y-119332951D01*
X110822651Y-119144513D01*
X110822644Y-119144500D01*
X110709325Y-118974907D01*
X110709322Y-118974903D01*
X110565096Y-118830677D01*
X110565092Y-118830674D01*
X110395499Y-118717355D01*
X110395486Y-118717348D01*
X110207048Y-118639295D01*
X110207038Y-118639292D01*
X110006990Y-118599500D01*
X110006988Y-118599500D01*
X109803012Y-118599500D01*
X109803010Y-118599500D01*
X109602961Y-118639292D01*
X109602951Y-118639295D01*
X109414511Y-118717349D01*
X109338438Y-118768178D01*
X109271760Y-118789054D01*
X109204380Y-118770568D01*
X109200659Y-118768177D01*
X109125254Y-118717794D01*
X108936896Y-118639773D01*
X108936893Y-118639772D01*
X108885000Y-118629449D01*
X108885000Y-119442876D01*
X108882617Y-119467068D01*
X108869500Y-119533010D01*
X108869500Y-119615773D01*
X108808694Y-119580667D01*
X108694244Y-119550000D01*
X108575756Y-119550000D01*
X108461306Y-119580667D01*
X108400500Y-119615773D01*
X108400500Y-119538256D01*
X108400500Y-119533012D01*
X108387219Y-119466246D01*
X108387057Y-119465366D01*
X108387138Y-119464582D01*
X108385000Y-119442876D01*
X108385000Y-118629450D01*
X108384999Y-118629449D01*
X108333106Y-118639772D01*
X108333103Y-118639773D01*
X108144745Y-118717794D01*
X108069339Y-118768178D01*
X108002661Y-118789055D01*
X107935281Y-118770570D01*
X107931558Y-118768177D01*
X107856154Y-118717794D01*
X107855493Y-118717352D01*
X107855492Y-118717351D01*
X107855490Y-118717350D01*
X107667048Y-118639295D01*
X107667038Y-118639292D01*
X107466990Y-118599500D01*
X107466988Y-118599500D01*
X107263012Y-118599500D01*
X107263010Y-118599500D01*
X107062962Y-118639292D01*
X107062959Y-118639293D01*
X107062957Y-118639293D01*
X107062956Y-118639294D01*
X107015487Y-118658956D01*
X106990927Y-118669129D01*
X106921458Y-118676597D01*
X106880931Y-118658956D01*
X106880114Y-118660454D01*
X106872328Y-118656202D01*
X106737482Y-118605908D01*
X106737483Y-118605908D01*
X106677883Y-118599501D01*
X106677881Y-118599500D01*
X106677873Y-118599500D01*
X106677864Y-118599500D01*
X105512129Y-118599500D01*
X105512123Y-118599501D01*
X105452516Y-118605908D01*
X105317671Y-118656202D01*
X105317664Y-118656206D01*
X105202455Y-118742452D01*
X105202452Y-118742455D01*
X105116206Y-118857664D01*
X105116202Y-118857671D01*
X105065908Y-118992517D01*
X105059501Y-119052116D01*
X105059500Y-119052135D01*
X102603700Y-119052135D01*
X102603700Y-98542843D01*
X102623385Y-98475804D01*
X102640015Y-98455166D01*
X103235769Y-97859411D01*
X103297090Y-97825928D01*
X103366781Y-97830912D01*
X103422714Y-97872782D01*
X103467455Y-97932547D01*
X103582664Y-98018793D01*
X103582671Y-98018797D01*
X103714082Y-98067810D01*
X103770016Y-98109681D01*
X103794433Y-98175145D01*
X103779582Y-98243418D01*
X103758431Y-98271673D01*
X103644889Y-98385215D01*
X103519951Y-98557179D01*
X103423444Y-98746585D01*
X103357753Y-98948760D01*
X103347262Y-99015000D01*
X103324500Y-99158713D01*
X103324500Y-99371287D01*
X103357754Y-99581243D01*
X103422065Y-99779172D01*
X103423444Y-99783414D01*
X103519951Y-99972820D01*
X103644890Y-100144786D01*
X103795213Y-100295109D01*
X103967179Y-100420048D01*
X103967181Y-100420049D01*
X103967184Y-100420051D01*
X104156588Y-100516557D01*
X104358757Y-100582246D01*
X104568713Y-100615500D01*
X104568714Y-100615500D01*
X104781286Y-100615500D01*
X104781287Y-100615500D01*
X104991243Y-100582246D01*
X105193412Y-100516557D01*
X105382816Y-100420051D01*
X105404789Y-100404086D01*
X105554786Y-100295109D01*
X105554788Y-100295106D01*
X105554792Y-100295104D01*
X105705104Y-100144792D01*
X105705106Y-100144788D01*
X105705109Y-100144786D01*
X105830048Y-99972820D01*
X105830047Y-99972820D01*
X105830051Y-99972816D01*
X105834514Y-99964054D01*
X105882488Y-99913259D01*
X105950308Y-99896463D01*
X106016444Y-99918999D01*
X106055486Y-99964056D01*
X106059951Y-99972820D01*
X106184890Y-100144786D01*
X106335213Y-100295109D01*
X106507179Y-100420048D01*
X106507181Y-100420049D01*
X106507184Y-100420051D01*
X106592861Y-100463705D01*
X106696583Y-100516555D01*
X106696585Y-100516555D01*
X106696588Y-100516557D01*
X106818085Y-100556034D01*
X106898747Y-100582243D01*
X106898749Y-100582243D01*
X106898757Y-100582246D01*
X106898764Y-100582247D01*
X106901227Y-100582838D01*
X106902073Y-100583323D01*
X106903391Y-100583752D01*
X106903301Y-100584028D01*
X106961825Y-100617619D01*
X106993999Y-100679640D01*
X106996300Y-100703417D01*
X106996300Y-101805891D01*
X106976615Y-101872930D01*
X106959981Y-101893572D01*
X106273787Y-102579765D01*
X106262518Y-102537708D01*
X106190110Y-102412292D01*
X106087708Y-102309890D01*
X105962292Y-102237482D01*
X105920234Y-102226212D01*
X106619105Y-101527340D01*
X106619104Y-101527338D01*
X106536174Y-101467087D01*
X106325802Y-101359897D01*
X106101247Y-101286934D01*
X106101248Y-101286934D01*
X105868052Y-101250000D01*
X105631948Y-101250000D01*
X105398752Y-101286934D01*
X105174197Y-101359897D01*
X104963830Y-101467084D01*
X104880894Y-101527340D01*
X105579766Y-102226212D01*
X105537708Y-102237482D01*
X105412292Y-102309890D01*
X105309890Y-102412292D01*
X105237482Y-102537708D01*
X105226212Y-102579766D01*
X104527340Y-101880894D01*
X104467084Y-101963830D01*
X104359897Y-102174197D01*
X104286934Y-102398752D01*
X104250000Y-102631947D01*
X104250000Y-102868052D01*
X104286934Y-103101247D01*
X104359897Y-103325802D01*
X104467087Y-103536174D01*
X104527338Y-103619104D01*
X104527340Y-103619105D01*
X105226212Y-102920233D01*
X105237482Y-102962292D01*
X105309890Y-103087708D01*
X105412292Y-103190110D01*
X105537708Y-103262518D01*
X105579765Y-103273787D01*
X104880893Y-103972658D01*
X104963828Y-104032914D01*
X105174197Y-104140102D01*
X105398752Y-104213065D01*
X105398751Y-104213065D01*
X105631948Y-104250000D01*
X105868052Y-104250000D01*
X106101247Y-104213065D01*
X106325802Y-104140102D01*
X106536163Y-104032918D01*
X106536169Y-104032914D01*
X106619104Y-103972658D01*
X106619105Y-103972658D01*
X105920233Y-103273787D01*
X105962292Y-103262518D01*
X106087708Y-103190110D01*
X106190110Y-103087708D01*
X106262518Y-102962292D01*
X106273787Y-102920233D01*
X106959981Y-103606427D01*
X106993466Y-103667750D01*
X106996300Y-103694108D01*
X106996300Y-108305891D01*
X106976615Y-108372930D01*
X106959981Y-108393572D01*
X106273787Y-109079765D01*
X106262518Y-109037708D01*
X106190110Y-108912292D01*
X106087708Y-108809890D01*
X105962292Y-108737482D01*
X105920234Y-108726212D01*
X106619105Y-108027340D01*
X106619104Y-108027338D01*
X106536174Y-107967087D01*
X106325802Y-107859897D01*
X106101247Y-107786934D01*
X106101248Y-107786934D01*
X105868052Y-107750000D01*
X105631948Y-107750000D01*
X105398752Y-107786934D01*
X105174197Y-107859897D01*
X104963830Y-107967084D01*
X104880894Y-108027340D01*
X105579766Y-108726212D01*
X105537708Y-108737482D01*
X105412292Y-108809890D01*
X105309890Y-108912292D01*
X105237482Y-109037708D01*
X105226212Y-109079766D01*
X104527340Y-108380894D01*
X104467084Y-108463830D01*
X104359897Y-108674197D01*
X104286934Y-108898752D01*
X104250000Y-109131947D01*
X104250000Y-109368052D01*
X104286934Y-109601247D01*
X104359897Y-109825802D01*
X104467087Y-110036174D01*
X104527338Y-110119104D01*
X104527340Y-110119105D01*
X105226212Y-109420233D01*
X105237482Y-109462292D01*
X105309890Y-109587708D01*
X105412292Y-109690110D01*
X105537708Y-109762518D01*
X105579765Y-109773787D01*
X104880893Y-110472658D01*
X104963828Y-110532914D01*
X105174197Y-110640102D01*
X105398752Y-110713065D01*
X105398751Y-110713065D01*
X105631948Y-110750000D01*
X105868052Y-110750000D01*
X106101247Y-110713065D01*
X106325802Y-110640102D01*
X106536163Y-110532918D01*
X106536169Y-110532914D01*
X106619104Y-110472658D01*
X106619105Y-110472658D01*
X105920233Y-109773787D01*
X105962292Y-109762518D01*
X106087708Y-109690110D01*
X106190110Y-109587708D01*
X106262518Y-109462292D01*
X106273787Y-109420233D01*
X106959981Y-110106427D01*
X106974684Y-110133354D01*
X106991277Y-110159173D01*
X106992168Y-110165373D01*
X106993466Y-110167750D01*
X106996300Y-110194108D01*
X106996300Y-110440710D01*
X106976615Y-110507749D01*
X106941192Y-110543812D01*
X106889707Y-110578213D01*
X106778213Y-110689707D01*
X106778210Y-110689711D01*
X106690609Y-110820814D01*
X106690602Y-110820827D01*
X106630264Y-110966498D01*
X106630261Y-110966510D01*
X106599500Y-111121153D01*
X106599500Y-111278846D01*
X106630261Y-111433489D01*
X106630264Y-111433501D01*
X106690602Y-111579172D01*
X106690609Y-111579185D01*
X106778210Y-111710288D01*
X106778213Y-111710292D01*
X106889707Y-111821786D01*
X106889711Y-111821789D01*
X107020814Y-111909390D01*
X107020827Y-111909397D01*
X107166498Y-111969735D01*
X107166503Y-111969737D01*
X107321153Y-112000499D01*
X107321156Y-112000500D01*
X107321158Y-112000500D01*
X107478844Y-112000500D01*
X107478845Y-112000499D01*
X107633497Y-111969737D01*
X107779179Y-111909394D01*
X107910289Y-111821789D01*
X108021789Y-111710289D01*
X108109394Y-111579179D01*
X108165992Y-111442539D01*
X108192873Y-111402309D01*
X108246600Y-111348583D01*
X108323611Y-111233327D01*
X108376657Y-111105262D01*
X108403701Y-110969309D01*
X108403701Y-110830692D01*
X108403701Y-110825582D01*
X108403700Y-110825556D01*
X108403700Y-109131902D01*
X108749500Y-109131902D01*
X108749500Y-109368097D01*
X108786446Y-109601368D01*
X108859433Y-109825996D01*
X108966525Y-110036174D01*
X108966657Y-110036433D01*
X109105483Y-110227510D01*
X109272490Y-110394517D01*
X109463567Y-110533343D01*
X109551629Y-110578213D01*
X109674003Y-110640566D01*
X109674005Y-110640566D01*
X109674008Y-110640568D01*
X109794412Y-110679689D01*
X109898631Y-110713553D01*
X110131903Y-110750500D01*
X110131908Y-110750500D01*
X110368097Y-110750500D01*
X110601368Y-110713553D01*
X110602870Y-110713065D01*
X110825992Y-110640568D01*
X111036433Y-110533343D01*
X111227510Y-110394517D01*
X111394517Y-110227510D01*
X111533343Y-110036433D01*
X111640568Y-109825992D01*
X111713553Y-109601368D01*
X111715717Y-109587708D01*
X111750500Y-109368097D01*
X111750500Y-109131902D01*
X111713553Y-108898631D01*
X111640566Y-108674003D01*
X111533342Y-108463566D01*
X111473277Y-108380894D01*
X111394517Y-108272490D01*
X111227510Y-108105483D01*
X111036433Y-107966657D01*
X110825996Y-107859433D01*
X110601368Y-107786446D01*
X110368097Y-107749500D01*
X110368092Y-107749500D01*
X110131908Y-107749500D01*
X110131903Y-107749500D01*
X109898631Y-107786446D01*
X109674003Y-107859433D01*
X109463566Y-107966657D01*
X109380047Y-108027338D01*
X109272490Y-108105483D01*
X109272488Y-108105485D01*
X109272487Y-108105485D01*
X109105485Y-108272487D01*
X109105485Y-108272488D01*
X109105483Y-108272490D01*
X109081216Y-108305891D01*
X108966657Y-108463566D01*
X108859433Y-108674003D01*
X108786446Y-108898631D01*
X108749500Y-109131902D01*
X108403700Y-109131902D01*
X108403700Y-102631902D01*
X108749500Y-102631902D01*
X108749500Y-102868097D01*
X108786446Y-103101368D01*
X108859433Y-103325996D01*
X108966525Y-103536174D01*
X108966657Y-103536433D01*
X109105483Y-103727510D01*
X109272490Y-103894517D01*
X109463567Y-104033343D01*
X109562991Y-104084002D01*
X109674003Y-104140566D01*
X109674005Y-104140566D01*
X109674008Y-104140568D01*
X109794412Y-104179689D01*
X109898631Y-104213553D01*
X110131903Y-104250500D01*
X110131908Y-104250500D01*
X110368097Y-104250500D01*
X110601368Y-104213553D01*
X110602870Y-104213065D01*
X110825992Y-104140568D01*
X111036433Y-104033343D01*
X111227510Y-103894517D01*
X111394517Y-103727510D01*
X111533343Y-103536433D01*
X111640568Y-103325992D01*
X111713553Y-103101368D01*
X111715717Y-103087708D01*
X111750500Y-102868097D01*
X111750500Y-102631902D01*
X111713553Y-102398631D01*
X111640566Y-102174003D01*
X111533342Y-101963566D01*
X111473277Y-101880894D01*
X111394517Y-101772490D01*
X111227510Y-101605483D01*
X111036433Y-101466657D01*
X110825996Y-101359433D01*
X110601368Y-101286446D01*
X110368097Y-101249500D01*
X110368092Y-101249500D01*
X110131908Y-101249500D01*
X110131903Y-101249500D01*
X109898631Y-101286446D01*
X109674003Y-101359433D01*
X109463566Y-101466657D01*
X109380047Y-101527338D01*
X109272490Y-101605483D01*
X109272488Y-101605485D01*
X109272487Y-101605485D01*
X109105485Y-101772487D01*
X109105485Y-101772488D01*
X109105483Y-101772490D01*
X109081216Y-101805891D01*
X108966657Y-101963566D01*
X108859433Y-102174003D01*
X108786446Y-102398631D01*
X108749500Y-102631902D01*
X108403700Y-102631902D01*
X108403700Y-100083484D01*
X108423385Y-100016445D01*
X108476189Y-99970690D01*
X108545347Y-99960746D01*
X108608903Y-99989771D01*
X108628018Y-100010599D01*
X108725272Y-100144460D01*
X108875535Y-100294723D01*
X108875540Y-100294727D01*
X109047442Y-100419620D01*
X109236782Y-100516095D01*
X109438871Y-100581757D01*
X109505000Y-100592231D01*
X109505000Y-99698012D01*
X109562007Y-99730925D01*
X109689174Y-99765000D01*
X109820826Y-99765000D01*
X109947993Y-99730925D01*
X110005000Y-99698012D01*
X110005000Y-100592230D01*
X110071126Y-100581757D01*
X110071129Y-100581757D01*
X110273217Y-100516095D01*
X110462557Y-100419620D01*
X110634459Y-100294727D01*
X110634464Y-100294723D01*
X110784723Y-100144464D01*
X110784727Y-100144459D01*
X110909620Y-99972557D01*
X111006095Y-99783217D01*
X111071757Y-99581129D01*
X111071757Y-99581126D01*
X111082231Y-99515000D01*
X110188012Y-99515000D01*
X110220925Y-99457993D01*
X110255000Y-99330826D01*
X110255000Y-99199174D01*
X110220925Y-99072007D01*
X110188012Y-99015000D01*
X111082231Y-99015000D01*
X111071757Y-98948873D01*
X111071757Y-98948870D01*
X111006095Y-98746782D01*
X110909620Y-98557442D01*
X110784727Y-98385540D01*
X110784723Y-98385535D01*
X110634464Y-98235276D01*
X110634459Y-98235272D01*
X110462555Y-98110377D01*
X110453500Y-98105763D01*
X110402706Y-98057788D01*
X110385912Y-97989966D01*
X110408451Y-97923832D01*
X110453508Y-97884793D01*
X110462816Y-97880051D01*
X110549147Y-97817328D01*
X110634786Y-97755109D01*
X110634788Y-97755106D01*
X110634792Y-97755104D01*
X110785104Y-97604792D01*
X110785106Y-97604788D01*
X110785109Y-97604786D01*
X110910048Y-97432820D01*
X110910047Y-97432820D01*
X110910051Y-97432816D01*
X111006557Y-97243412D01*
X111072246Y-97041243D01*
X111105500Y-96831287D01*
X111105500Y-96618713D01*
X111072246Y-96408757D01*
X111006557Y-96206588D01*
X110910051Y-96017184D01*
X110910049Y-96017181D01*
X110910048Y-96017179D01*
X110785109Y-95845213D01*
X110634786Y-95694890D01*
X110462820Y-95569951D01*
X110273414Y-95473444D01*
X110273413Y-95473443D01*
X110273412Y-95473443D01*
X110071243Y-95407754D01*
X110071241Y-95407753D01*
X110071240Y-95407753D01*
X109909957Y-95382208D01*
X109861287Y-95374500D01*
X109860043Y-95374500D01*
X109859586Y-95374366D01*
X109856424Y-95374117D01*
X109856476Y-95373452D01*
X109793004Y-95354815D01*
X109747249Y-95302011D01*
X109737305Y-95232853D01*
X109766330Y-95169297D01*
X109772362Y-95162819D01*
X110315446Y-94619735D01*
X111048579Y-93886602D01*
X111048583Y-93886600D01*
X111146600Y-93788583D01*
X111223611Y-93673327D01*
X111276657Y-93545262D01*
X111303701Y-93409308D01*
X111303701Y-93270691D01*
X111303701Y-93265581D01*
X111303700Y-93265555D01*
X111303700Y-92898244D01*
X111323385Y-92831205D01*
X111376189Y-92785450D01*
X111445347Y-92775506D01*
X111508903Y-92804531D01*
X111515381Y-92810563D01*
X112359981Y-93655163D01*
X112393466Y-93716486D01*
X112396300Y-93742844D01*
X112396300Y-98982409D01*
X112386861Y-99029861D01*
X112330264Y-99166498D01*
X112330261Y-99166510D01*
X112299500Y-99321153D01*
X112299500Y-99478846D01*
X112330261Y-99633489D01*
X112330264Y-99633501D01*
X112390602Y-99779172D01*
X112390609Y-99779185D01*
X112478210Y-99910288D01*
X112478213Y-99910292D01*
X112589707Y-100021786D01*
X112589711Y-100021789D01*
X112720814Y-100109390D01*
X112720827Y-100109397D01*
X112866498Y-100169735D01*
X112866503Y-100169737D01*
X113021153Y-100200499D01*
X113021156Y-100200500D01*
X113021158Y-100200500D01*
X113178844Y-100200500D01*
X113178845Y-100200499D01*
X113333497Y-100169737D01*
X113479179Y-100109394D01*
X113610289Y-100021789D01*
X113721789Y-99910289D01*
X113809394Y-99779179D01*
X113869737Y-99633497D01*
X113900500Y-99478842D01*
X113900500Y-99321158D01*
X113900500Y-99321155D01*
X113900499Y-99321153D01*
X113889329Y-99265000D01*
X113869737Y-99166503D01*
X113830577Y-99071961D01*
X113813139Y-99029861D01*
X113803700Y-98982409D01*
X113803700Y-93475442D01*
X113803701Y-93475421D01*
X113803701Y-93330688D01*
X113776658Y-93194743D01*
X113776656Y-93194735D01*
X113723613Y-93066676D01*
X113646598Y-92951414D01*
X113545487Y-92850303D01*
X113545456Y-92850274D01*
X111742872Y-91047690D01*
X111715992Y-91007461D01*
X111659397Y-90870827D01*
X111659390Y-90870814D01*
X111571789Y-90739711D01*
X111571786Y-90739707D01*
X111460292Y-90628213D01*
X111460288Y-90628210D01*
X111329185Y-90540609D01*
X111329172Y-90540602D01*
X111183501Y-90480264D01*
X111183489Y-90480261D01*
X111028845Y-90449500D01*
X111028842Y-90449500D01*
X110871158Y-90449500D01*
X110871155Y-90449500D01*
X110716510Y-90480261D01*
X110716498Y-90480264D01*
X110570827Y-90540602D01*
X110570814Y-90540609D01*
X110439711Y-90628210D01*
X110439707Y-90628213D01*
X110328213Y-90739707D01*
X110328210Y-90739711D01*
X110240609Y-90870814D01*
X110240604Y-90870824D01*
X110184008Y-91007460D01*
X110179378Y-91014388D01*
X110178284Y-91019424D01*
X110157136Y-91047681D01*
X110151420Y-91053397D01*
X110151417Y-91053400D01*
X110102408Y-91102409D01*
X110053399Y-91151417D01*
X110053398Y-91151418D01*
X110030339Y-91185930D01*
X110030339Y-91185931D01*
X109976392Y-91266666D01*
X109976385Y-91266679D01*
X109923343Y-91394735D01*
X109923341Y-91394743D01*
X109896299Y-91530689D01*
X109896299Y-91675421D01*
X109896300Y-91675442D01*
X109896300Y-92997155D01*
X109876615Y-93064194D01*
X109859981Y-93084836D01*
X107580943Y-95363873D01*
X107519620Y-95397358D01*
X107473865Y-95398665D01*
X107321287Y-95374500D01*
X107108713Y-95374500D01*
X107060042Y-95382208D01*
X106898760Y-95407753D01*
X106797672Y-95440598D01*
X106724029Y-95464527D01*
X106696585Y-95473444D01*
X106507179Y-95569951D01*
X106335215Y-95694889D01*
X106221673Y-95808431D01*
X106160350Y-95841915D01*
X106090658Y-95836931D01*
X106034725Y-95795059D01*
X106017810Y-95764082D01*
X105968797Y-95632671D01*
X105968793Y-95632664D01*
X105882547Y-95517455D01*
X105882544Y-95517452D01*
X105767335Y-95431206D01*
X105767328Y-95431202D01*
X105632482Y-95380908D01*
X105632483Y-95380908D01*
X105572883Y-95374501D01*
X105572881Y-95374500D01*
X105572873Y-95374500D01*
X105572865Y-95374500D01*
X105502700Y-95374500D01*
X105494014Y-95371949D01*
X105485053Y-95373238D01*
X105461012Y-95362259D01*
X105435661Y-95354815D01*
X105429733Y-95347974D01*
X105421497Y-95344213D01*
X105407207Y-95321978D01*
X105389906Y-95302011D01*
X105387618Y-95291496D01*
X105383723Y-95285435D01*
X105378700Y-95250500D01*
X105378700Y-95167843D01*
X105398385Y-95100804D01*
X105415014Y-95080167D01*
X111202311Y-89292869D01*
X111242530Y-89265995D01*
X111379179Y-89209394D01*
X111510289Y-89121789D01*
X111621789Y-89010289D01*
X111709394Y-88879179D01*
X111769737Y-88733497D01*
X111800500Y-88578842D01*
X111800500Y-88421158D01*
X111800500Y-88421155D01*
X111800499Y-88421153D01*
X111769738Y-88266510D01*
X111769737Y-88266503D01*
X111765991Y-88257460D01*
X111709397Y-88120827D01*
X111709390Y-88120814D01*
X111621789Y-87989711D01*
X111621786Y-87989707D01*
X111510292Y-87878213D01*
X111510288Y-87878210D01*
X111379185Y-87790609D01*
X111379172Y-87790602D01*
X111233501Y-87730264D01*
X111233489Y-87730261D01*
X111078845Y-87699500D01*
X111078842Y-87699500D01*
X110921158Y-87699500D01*
X110921155Y-87699500D01*
X110766510Y-87730261D01*
X110766498Y-87730264D01*
X110620827Y-87790602D01*
X110620814Y-87790609D01*
X110489711Y-87878210D01*
X110489707Y-87878213D01*
X110378213Y-87989707D01*
X110378210Y-87989711D01*
X110290609Y-88120814D01*
X110290604Y-88120824D01*
X110234008Y-88257460D01*
X110207128Y-88297688D01*
X107110082Y-91394735D01*
X104226420Y-94278397D01*
X104226417Y-94278400D01*
X104177408Y-94327408D01*
X104128400Y-94376416D01*
X104126790Y-94378826D01*
X104076962Y-94453400D01*
X104064131Y-94472602D01*
X104051387Y-94491675D01*
X103998343Y-94619735D01*
X103998341Y-94619743D01*
X103971299Y-94755689D01*
X103971299Y-94900421D01*
X103971300Y-94900442D01*
X103971300Y-95250500D01*
X103951615Y-95317539D01*
X103898811Y-95363294D01*
X103847302Y-95374500D01*
X103777130Y-95374500D01*
X103777123Y-95374501D01*
X103717516Y-95380908D01*
X103582671Y-95431202D01*
X103582664Y-95431206D01*
X103467455Y-95517452D01*
X103467452Y-95517455D01*
X103381206Y-95632664D01*
X103381202Y-95632671D01*
X103330908Y-95767517D01*
X103324501Y-95827116D01*
X103324500Y-95827135D01*
X103324500Y-95915794D01*
X103304815Y-95982833D01*
X103252011Y-96028588D01*
X103224692Y-96037411D01*
X103169743Y-96048341D01*
X103169735Y-96048343D01*
X103041676Y-96101386D01*
X102926416Y-96178400D01*
X102898232Y-96206585D01*
X102828400Y-96276417D01*
X101454670Y-97650146D01*
X101454663Y-97650153D01*
X101451420Y-97653397D01*
X101451417Y-97653400D01*
X101353400Y-97751417D01*
X101309358Y-97817331D01*
X101305139Y-97823644D01*
X101305139Y-97823645D01*
X101276387Y-97866675D01*
X101223343Y-97994735D01*
X101223341Y-97994743D01*
X101196299Y-98130689D01*
X101196299Y-98130691D01*
X101196299Y-98130692D01*
X101196299Y-98269308D01*
X101196299Y-98269312D01*
X101196300Y-98275432D01*
X101196300Y-122025556D01*
X101196299Y-122025582D01*
X101196299Y-122030692D01*
X101196299Y-122169308D01*
X101196299Y-122169310D01*
X101196298Y-122169310D01*
X100500500Y-122169310D01*
X100500500Y-95289324D01*
X100893099Y-95289324D01*
X100927950Y-95464527D01*
X100927952Y-95464533D01*
X100996314Y-95629575D01*
X100996319Y-95629584D01*
X101095564Y-95778114D01*
X101095567Y-95778118D01*
X101221881Y-95904432D01*
X101221885Y-95904435D01*
X101370415Y-96003680D01*
X101370421Y-96003683D01*
X101370422Y-96003684D01*
X101535467Y-96072048D01*
X101535471Y-96072048D01*
X101535472Y-96072049D01*
X101710675Y-96106900D01*
X101710678Y-96106900D01*
X101889324Y-96106900D01*
X102007198Y-96083452D01*
X102064533Y-96072048D01*
X102229578Y-96003684D01*
X102378115Y-95904435D01*
X102504435Y-95778115D01*
X102603684Y-95629578D01*
X102672048Y-95464533D01*
X102692392Y-95362259D01*
X102706900Y-95289324D01*
X102706900Y-95139643D01*
X102726585Y-95072604D01*
X102743219Y-95051962D01*
X105196299Y-92598882D01*
X108448579Y-89346602D01*
X108448583Y-89346600D01*
X108546600Y-89248583D01*
X108623611Y-89133327D01*
X108628392Y-89121786D01*
X108658975Y-89047950D01*
X108676657Y-89005262D01*
X108685507Y-88960767D01*
X108703701Y-88869311D01*
X108703701Y-88725582D01*
X108703700Y-88725556D01*
X108703700Y-84131902D01*
X109749500Y-84131902D01*
X109749500Y-84368097D01*
X109786446Y-84601368D01*
X109859433Y-84825996D01*
X109966657Y-85036433D01*
X110105483Y-85227510D01*
X110272490Y-85394517D01*
X110463567Y-85533343D01*
X110562991Y-85584002D01*
X110674003Y-85640566D01*
X110674005Y-85640566D01*
X110674008Y-85640568D01*
X110794412Y-85679689D01*
X110898631Y-85713553D01*
X111131903Y-85750500D01*
X111131908Y-85750500D01*
X111368097Y-85750500D01*
X111601368Y-85713553D01*
X111825992Y-85640568D01*
X112036433Y-85533343D01*
X112227510Y-85394517D01*
X112394517Y-85227510D01*
X112533343Y-85036433D01*
X112640568Y-84825992D01*
X112713553Y-84601368D01*
X112750500Y-84368097D01*
X112750500Y-84131902D01*
X112713553Y-83898631D01*
X112640566Y-83674003D01*
X112533342Y-83463566D01*
X112394517Y-83272490D01*
X112227510Y-83105483D01*
X112036433Y-82966657D01*
X111825996Y-82859433D01*
X111601368Y-82786446D01*
X111368097Y-82749500D01*
X111368092Y-82749500D01*
X111131908Y-82749500D01*
X111131903Y-82749500D01*
X110898631Y-82786446D01*
X110674003Y-82859433D01*
X110463566Y-82966657D01*
X110354550Y-83045862D01*
X110272490Y-83105483D01*
X110272488Y-83105485D01*
X110272487Y-83105485D01*
X110105485Y-83272487D01*
X110105485Y-83272488D01*
X110105483Y-83272490D01*
X110045862Y-83354550D01*
X109966657Y-83463566D01*
X109859433Y-83674003D01*
X109786446Y-83898631D01*
X109749500Y-84131902D01*
X108703700Y-84131902D01*
X108703700Y-79642844D01*
X108706899Y-79631947D01*
X109750000Y-79631947D01*
X109750000Y-79868052D01*
X109786934Y-80101247D01*
X109859897Y-80325802D01*
X109967087Y-80536174D01*
X110027338Y-80619104D01*
X110027340Y-80619105D01*
X110726212Y-79920233D01*
X110737482Y-79962292D01*
X110809890Y-80087708D01*
X110912292Y-80190110D01*
X111037708Y-80262518D01*
X111079765Y-80273787D01*
X110380893Y-80972658D01*
X110463828Y-81032914D01*
X110674197Y-81140102D01*
X110898752Y-81213065D01*
X110898751Y-81213065D01*
X111131948Y-81250000D01*
X111368052Y-81250000D01*
X111601247Y-81213065D01*
X111825802Y-81140102D01*
X112036163Y-81032918D01*
X112036169Y-81032914D01*
X112119104Y-80972658D01*
X112119105Y-80972658D01*
X111420233Y-80273787D01*
X111462292Y-80262518D01*
X111587708Y-80190110D01*
X111690110Y-80087708D01*
X111762518Y-79962292D01*
X111773787Y-79920234D01*
X112472658Y-80619105D01*
X112472658Y-80619104D01*
X112532914Y-80536169D01*
X112532918Y-80536163D01*
X112640102Y-80325802D01*
X112713065Y-80101247D01*
X112750000Y-79868052D01*
X112750000Y-79631947D01*
X112713065Y-79398752D01*
X112640102Y-79174197D01*
X112532914Y-78963828D01*
X112472658Y-78880894D01*
X112472658Y-78880893D01*
X111773787Y-79579765D01*
X111762518Y-79537708D01*
X111690110Y-79412292D01*
X111587708Y-79309890D01*
X111462292Y-79237482D01*
X111420234Y-79226212D01*
X112119105Y-78527340D01*
X112119104Y-78527338D01*
X112036174Y-78467087D01*
X111825802Y-78359897D01*
X111601247Y-78286934D01*
X111601248Y-78286934D01*
X111368052Y-78250000D01*
X111131948Y-78250000D01*
X110898752Y-78286934D01*
X110674197Y-78359897D01*
X110464028Y-78466983D01*
X110382320Y-78528766D01*
X111079766Y-79226212D01*
X111037708Y-79237482D01*
X110912292Y-79309890D01*
X110809890Y-79412292D01*
X110737482Y-79537708D01*
X110726212Y-79579766D01*
X110027340Y-78880894D01*
X109967084Y-78963830D01*
X109859897Y-79174197D01*
X109786934Y-79398752D01*
X109750000Y-79631947D01*
X108706899Y-79631947D01*
X108712344Y-79613403D01*
X108718868Y-79583417D01*
X108722622Y-79578401D01*
X108723385Y-79575805D01*
X108740019Y-79555163D01*
X108755788Y-79539394D01*
X109200447Y-79094735D01*
X109761427Y-78533754D01*
X109822748Y-78500271D01*
X109824915Y-78499820D01*
X109964533Y-78472048D01*
X110129578Y-78403684D01*
X110278115Y-78304435D01*
X110404435Y-78178115D01*
X110503684Y-78029578D01*
X110572048Y-77864533D01*
X110606900Y-77689322D01*
X110606900Y-77510678D01*
X110606900Y-77510675D01*
X110572049Y-77335472D01*
X110572048Y-77335471D01*
X110572048Y-77335467D01*
X110503684Y-77170422D01*
X110503683Y-77170421D01*
X110503680Y-77170415D01*
X110404435Y-77021885D01*
X110404432Y-77021881D01*
X110278118Y-76895567D01*
X110278114Y-76895564D01*
X110129584Y-76796319D01*
X110129575Y-76796314D01*
X109964533Y-76727952D01*
X109964527Y-76727950D01*
X109789324Y-76693100D01*
X109789322Y-76693100D01*
X109610678Y-76693100D01*
X109610676Y-76693100D01*
X109435472Y-76727950D01*
X109435466Y-76727952D01*
X109270424Y-76796314D01*
X109270415Y-76796319D01*
X109121885Y-76895564D01*
X109121881Y-76895567D01*
X108995567Y-77021881D01*
X108995564Y-77021885D01*
X108896319Y-77170415D01*
X108896314Y-77170424D01*
X108827952Y-77335466D01*
X108827950Y-77335472D01*
X108800179Y-77475085D01*
X108767794Y-77536996D01*
X108766243Y-77538574D01*
X108126704Y-78178113D01*
X107551420Y-78753397D01*
X107551417Y-78753400D01*
X107502408Y-78802408D01*
X107453400Y-78851416D01*
X107376386Y-78966676D01*
X107323343Y-79094735D01*
X107323341Y-79094743D01*
X107296299Y-79230689D01*
X107296299Y-79375421D01*
X107296300Y-79375442D01*
X107296300Y-88457155D01*
X107276615Y-88524194D01*
X107259981Y-88544836D01*
X101452869Y-94351947D01*
X101412643Y-94378826D01*
X101370427Y-94396313D01*
X101370415Y-94396319D01*
X101221885Y-94495564D01*
X101221881Y-94495567D01*
X101095567Y-94621881D01*
X101095564Y-94621885D01*
X100996319Y-94770415D01*
X100996314Y-94770424D01*
X100927952Y-94935466D01*
X100927950Y-94935472D01*
X100893100Y-95110675D01*
X100893100Y-95110678D01*
X100893100Y-95289322D01*
X100893100Y-95289324D01*
X100893099Y-95289324D01*
X100500500Y-95289324D01*
X100500500Y-84131902D01*
X103249500Y-84131902D01*
X103249500Y-84368097D01*
X103286446Y-84601368D01*
X103359433Y-84825996D01*
X103466657Y-85036433D01*
X103605483Y-85227510D01*
X103772490Y-85394517D01*
X103963567Y-85533343D01*
X104062991Y-85584002D01*
X104174003Y-85640566D01*
X104174005Y-85640566D01*
X104174008Y-85640568D01*
X104294412Y-85679689D01*
X104398631Y-85713553D01*
X104631903Y-85750500D01*
X104631908Y-85750500D01*
X104868097Y-85750500D01*
X105101368Y-85713553D01*
X105325992Y-85640568D01*
X105536433Y-85533343D01*
X105727510Y-85394517D01*
X105894517Y-85227510D01*
X106033343Y-85036433D01*
X106140568Y-84825992D01*
X106213553Y-84601368D01*
X106250500Y-84368097D01*
X106250500Y-84131902D01*
X106213553Y-83898631D01*
X106140566Y-83674003D01*
X106033342Y-83463566D01*
X105894517Y-83272490D01*
X105727510Y-83105483D01*
X105536433Y-82966657D01*
X105325996Y-82859433D01*
X105101368Y-82786446D01*
X104868097Y-82749500D01*
X104868092Y-82749500D01*
X104631908Y-82749500D01*
X104631903Y-82749500D01*
X104398631Y-82786446D01*
X104174003Y-82859433D01*
X103963566Y-82966657D01*
X103854550Y-83045862D01*
X103772490Y-83105483D01*
X103772488Y-83105485D01*
X103772487Y-83105485D01*
X103605485Y-83272487D01*
X103605485Y-83272488D01*
X103605483Y-83272490D01*
X103545862Y-83354550D01*
X103466657Y-83463566D01*
X103359433Y-83674003D01*
X103286446Y-83898631D01*
X103249500Y-84131902D01*
X100500500Y-84131902D01*
X100500500Y-79631947D01*
X103250000Y-79631947D01*
X103250000Y-79868052D01*
X103286934Y-80101247D01*
X103359897Y-80325802D01*
X103467087Y-80536174D01*
X103527338Y-80619104D01*
X103527340Y-80619105D01*
X104226212Y-79920233D01*
X104237482Y-79962292D01*
X104309890Y-80087708D01*
X104412292Y-80190110D01*
X104537708Y-80262518D01*
X104579765Y-80273787D01*
X103880893Y-80972658D01*
X103963828Y-81032914D01*
X104174197Y-81140102D01*
X104398752Y-81213065D01*
X104398751Y-81213065D01*
X104631948Y-81250000D01*
X104868052Y-81250000D01*
X105101247Y-81213065D01*
X105325802Y-81140102D01*
X105536163Y-81032918D01*
X105536169Y-81032914D01*
X105619104Y-80972658D01*
X105619105Y-80972658D01*
X104920233Y-80273787D01*
X104962292Y-80262518D01*
X105087708Y-80190110D01*
X105190110Y-80087708D01*
X105262518Y-79962292D01*
X105273787Y-79920234D01*
X105972658Y-80619105D01*
X105972658Y-80619104D01*
X106032914Y-80536169D01*
X106032918Y-80536163D01*
X106140102Y-80325802D01*
X106213065Y-80101247D01*
X106250000Y-79868052D01*
X106250000Y-79631947D01*
X106213065Y-79398752D01*
X106140102Y-79174197D01*
X106032914Y-78963828D01*
X105972658Y-78880894D01*
X105972658Y-78880893D01*
X105273787Y-79579765D01*
X105262518Y-79537708D01*
X105190110Y-79412292D01*
X105087708Y-79309890D01*
X104962292Y-79237482D01*
X104920234Y-79226212D01*
X105619105Y-78527340D01*
X105619104Y-78527338D01*
X105536174Y-78467087D01*
X105325802Y-78359897D01*
X105101247Y-78286934D01*
X105101248Y-78286934D01*
X104868052Y-78250000D01*
X104631948Y-78250000D01*
X104398752Y-78286934D01*
X104174197Y-78359897D01*
X103963830Y-78467084D01*
X103880894Y-78527340D01*
X104579766Y-79226212D01*
X104537708Y-79237482D01*
X104412292Y-79309890D01*
X104309890Y-79412292D01*
X104237482Y-79537708D01*
X104226212Y-79579766D01*
X103527340Y-78880894D01*
X103467084Y-78963830D01*
X103359897Y-79174197D01*
X103286934Y-79398752D01*
X103250000Y-79631947D01*
X100500500Y-79631947D01*
X100500500Y-68703947D01*
X106129500Y-68703947D01*
X106129500Y-68936052D01*
X106159794Y-69166148D01*
X106219862Y-69390328D01*
X106308677Y-69604745D01*
X106308685Y-69604762D01*
X106424720Y-69805743D01*
X106424721Y-69805745D01*
X106566009Y-69989875D01*
X106566015Y-69989882D01*
X106730117Y-70153984D01*
X106730124Y-70153990D01*
X106914254Y-70295278D01*
X106914256Y-70295279D01*
X107115237Y-70411314D01*
X107115240Y-70411315D01*
X107115248Y-70411320D01*
X107329670Y-70500137D01*
X107553851Y-70560206D01*
X107783955Y-70590500D01*
X107783962Y-70590500D01*
X108016038Y-70590500D01*
X108016045Y-70590500D01*
X108246149Y-70560206D01*
X108470330Y-70500137D01*
X108684752Y-70411320D01*
X108885748Y-70295276D01*
X109069877Y-70153989D01*
X109233989Y-69989877D01*
X109375276Y-69805748D01*
X109491320Y-69604752D01*
X109580137Y-69390330D01*
X109640206Y-69166149D01*
X109670500Y-68936045D01*
X109670500Y-68703955D01*
X109640206Y-68473851D01*
X109580137Y-68249670D01*
X109491320Y-68035248D01*
X109491314Y-68035237D01*
X109375279Y-67834256D01*
X109375278Y-67834254D01*
X109233990Y-67650124D01*
X109233984Y-67650117D01*
X109069882Y-67486015D01*
X109069875Y-67486009D01*
X108885745Y-67344721D01*
X108885743Y-67344720D01*
X108684762Y-67228685D01*
X108684754Y-67228681D01*
X108684752Y-67228680D01*
X108470330Y-67139863D01*
X108470331Y-67139863D01*
X108470328Y-67139862D01*
X108328203Y-67101780D01*
X108246149Y-67079794D01*
X108217386Y-67076007D01*
X108016052Y-67049500D01*
X108016045Y-67049500D01*
X107783955Y-67049500D01*
X107783947Y-67049500D01*
X107553851Y-67079794D01*
X107329671Y-67139862D01*
X107115254Y-67228677D01*
X107115237Y-67228685D01*
X106914256Y-67344720D01*
X106914254Y-67344721D01*
X106730124Y-67486009D01*
X106730117Y-67486015D01*
X106566015Y-67650117D01*
X106566009Y-67650124D01*
X106424721Y-67834254D01*
X106424720Y-67834256D01*
X106308685Y-68035237D01*
X106308677Y-68035254D01*
X106219862Y-68249671D01*
X106159794Y-68473851D01*
X106129500Y-68703947D01*
X100500500Y-68703947D01*
X100500500Y-50624500D01*
X100520185Y-50557461D01*
X100572989Y-50511706D01*
X100624500Y-50500500D01*
X101676464Y-50500500D01*
X101743503Y-50520185D01*
G37*
%TD.AperFunction*%
%TA.AperFunction,Conductor*%
G36*
X104994075Y-52152993D02*
G01*
X105059901Y-52267007D01*
X105152993Y-52360099D01*
X105267007Y-52425925D01*
X105330591Y-52442962D01*
X104729971Y-53043581D01*
X104808711Y-53160895D01*
X104829727Y-53227529D01*
X104811383Y-53294947D01*
X104762051Y-53340483D01*
X104752440Y-53345380D01*
X104698282Y-53384727D01*
X104698282Y-53384728D01*
X105330591Y-54017037D01*
X105267007Y-54034075D01*
X105152993Y-54099901D01*
X105059901Y-54192993D01*
X104994075Y-54307007D01*
X104977037Y-54370591D01*
X104344728Y-53738282D01*
X104344727Y-53738282D01*
X104305380Y-53792440D01*
X104305376Y-53792446D01*
X104300760Y-53801505D01*
X104252781Y-53852297D01*
X104184959Y-53869087D01*
X104118826Y-53846543D01*
X104079794Y-53801493D01*
X104075051Y-53792184D01*
X104075049Y-53792181D01*
X104075048Y-53792179D01*
X103950109Y-53620213D01*
X103836569Y-53506673D01*
X103803084Y-53445350D01*
X103808068Y-53375658D01*
X103849940Y-53319725D01*
X103880915Y-53302810D01*
X104012331Y-53253796D01*
X104127546Y-53167546D01*
X104213796Y-53052331D01*
X104264091Y-52917483D01*
X104270500Y-52857873D01*
X104270499Y-52833979D01*
X104273330Y-52820963D01*
X104283940Y-52801525D01*
X104290179Y-52780275D01*
X104306803Y-52759643D01*
X104306808Y-52759636D01*
X104306811Y-52759634D01*
X104306818Y-52759626D01*
X104977037Y-52089408D01*
X104994075Y-52152993D01*
G37*
%TD.AperFunction*%
%TA.AperFunction,Conductor*%
G36*
X107534075Y-52152993D02*
G01*
X107599901Y-52267007D01*
X107692993Y-52360099D01*
X107807007Y-52425925D01*
X107870590Y-52442962D01*
X107238282Y-53075269D01*
X107238282Y-53075270D01*
X107292452Y-53114626D01*
X107302048Y-53119516D01*
X107352844Y-53167491D01*
X107369638Y-53235312D01*
X107347100Y-53301447D01*
X107302051Y-53340483D01*
X107292440Y-53345380D01*
X107238282Y-53384727D01*
X107238282Y-53384728D01*
X107870591Y-54017037D01*
X107807007Y-54034075D01*
X107692993Y-54099901D01*
X107599901Y-54192993D01*
X107534075Y-54307007D01*
X107517037Y-54370591D01*
X106884728Y-53738282D01*
X106884727Y-53738282D01*
X106845380Y-53792440D01*
X106840483Y-53802051D01*
X106792506Y-53852845D01*
X106724684Y-53869638D01*
X106658550Y-53847098D01*
X106619516Y-53802048D01*
X106614626Y-53792452D01*
X106575270Y-53738282D01*
X106575269Y-53738282D01*
X105942962Y-54370590D01*
X105925925Y-54307007D01*
X105860099Y-54192993D01*
X105767007Y-54099901D01*
X105652993Y-54034075D01*
X105589409Y-54017037D01*
X106221716Y-53384728D01*
X106167550Y-53345375D01*
X106157954Y-53340486D01*
X106107157Y-53292512D01*
X106090361Y-53224692D01*
X106111288Y-53160895D01*
X106190027Y-53043581D01*
X105589408Y-52442962D01*
X105652993Y-52425925D01*
X105767007Y-52360099D01*
X105860099Y-52267007D01*
X105925925Y-52152993D01*
X105942962Y-52089409D01*
X106575270Y-52721717D01*
X106575270Y-52721716D01*
X106614622Y-52667554D01*
X106619514Y-52657954D01*
X106667488Y-52607157D01*
X106735308Y-52590361D01*
X106801444Y-52612897D01*
X106840486Y-52657954D01*
X106845375Y-52667550D01*
X106884728Y-52721716D01*
X107517037Y-52089408D01*
X107534075Y-52152993D01*
G37*
%TD.AperFunction*%
%TA.AperFunction,Conductor*%
G36*
X110074075Y-52152993D02*
G01*
X110139901Y-52267007D01*
X110232993Y-52360099D01*
X110347007Y-52425925D01*
X110410590Y-52442962D01*
X109778282Y-53075269D01*
X109778282Y-53075270D01*
X109832452Y-53114626D01*
X109842048Y-53119516D01*
X109892844Y-53167491D01*
X109909638Y-53235312D01*
X109887100Y-53301447D01*
X109842051Y-53340483D01*
X109832440Y-53345380D01*
X109778282Y-53384727D01*
X109778282Y-53384728D01*
X110410591Y-54017037D01*
X110347007Y-54034075D01*
X110232993Y-54099901D01*
X110139901Y-54192993D01*
X110074075Y-54307007D01*
X110057037Y-54370591D01*
X109424728Y-53738282D01*
X109424727Y-53738282D01*
X109385380Y-53792440D01*
X109380483Y-53802051D01*
X109332506Y-53852845D01*
X109264684Y-53869638D01*
X109198550Y-53847098D01*
X109159516Y-53802048D01*
X109154626Y-53792452D01*
X109115270Y-53738282D01*
X109115269Y-53738282D01*
X108482962Y-54370590D01*
X108465925Y-54307007D01*
X108400099Y-54192993D01*
X108307007Y-54099901D01*
X108192993Y-54034075D01*
X108129409Y-54017037D01*
X108761716Y-53384728D01*
X108707550Y-53345375D01*
X108697954Y-53340486D01*
X108647157Y-53292512D01*
X108630361Y-53224692D01*
X108651288Y-53160895D01*
X108730027Y-53043581D01*
X108129408Y-52442962D01*
X108192993Y-52425925D01*
X108307007Y-52360099D01*
X108400099Y-52267007D01*
X108465925Y-52152993D01*
X108482962Y-52089409D01*
X109115270Y-52721717D01*
X109115270Y-52721716D01*
X109154622Y-52667554D01*
X109159514Y-52657954D01*
X109207488Y-52607157D01*
X109275308Y-52590361D01*
X109341444Y-52612897D01*
X109380486Y-52657954D01*
X109385375Y-52667550D01*
X109424728Y-52721716D01*
X110057037Y-52089408D01*
X110074075Y-52152993D01*
G37*
%TD.AperFunction*%
%TA.AperFunction,Conductor*%
G36*
X111655270Y-52721717D02*
G01*
X111655270Y-52721716D01*
X111694622Y-52667555D01*
X111699232Y-52658507D01*
X111747205Y-52607709D01*
X111815025Y-52590912D01*
X111881161Y-52613447D01*
X111920204Y-52658504D01*
X111924949Y-52667817D01*
X112049890Y-52839786D01*
X112200213Y-52990109D01*
X112372182Y-53115050D01*
X112380946Y-53119516D01*
X112431742Y-53167491D01*
X112448536Y-53235312D01*
X112425998Y-53301447D01*
X112380946Y-53340484D01*
X112372182Y-53344949D01*
X112200213Y-53469890D01*
X112049890Y-53620213D01*
X111924949Y-53792182D01*
X111920202Y-53801499D01*
X111872227Y-53852293D01*
X111804405Y-53869087D01*
X111738271Y-53846548D01*
X111699234Y-53801495D01*
X111694626Y-53792452D01*
X111655270Y-53738282D01*
X111655269Y-53738282D01*
X111022962Y-54370590D01*
X111005925Y-54307007D01*
X110940099Y-54192993D01*
X110847007Y-54099901D01*
X110732993Y-54034075D01*
X110669409Y-54017037D01*
X111301716Y-53384728D01*
X111247550Y-53345375D01*
X111237954Y-53340486D01*
X111187157Y-53292512D01*
X111170361Y-53224692D01*
X111192897Y-53158556D01*
X111237954Y-53119514D01*
X111247554Y-53114622D01*
X111301716Y-53075270D01*
X111301717Y-53075270D01*
X110669408Y-52442962D01*
X110732993Y-52425925D01*
X110847007Y-52360099D01*
X110940099Y-52267007D01*
X111005925Y-52152993D01*
X111022962Y-52089408D01*
X111655270Y-52721717D01*
G37*
%TD.AperFunction*%
%TA.AperFunction,Conductor*%
G36*
X104901342Y-50520185D02*
G01*
X104947097Y-50572989D01*
X104957041Y-50642147D01*
X104928016Y-50705703D01*
X104890598Y-50734985D01*
X104752439Y-50805380D01*
X104698282Y-50844727D01*
X104698282Y-50844728D01*
X105330591Y-51477037D01*
X105267007Y-51494075D01*
X105152993Y-51559901D01*
X105059901Y-51652993D01*
X104994075Y-51767007D01*
X104977037Y-51830591D01*
X104306818Y-51160372D01*
X104273333Y-51099049D01*
X104270499Y-51072691D01*
X104270499Y-51062129D01*
X104270498Y-51062123D01*
X104270497Y-51062116D01*
X104264091Y-51002517D01*
X104213796Y-50867669D01*
X104213795Y-50867668D01*
X104213793Y-50867664D01*
X104127547Y-50752455D01*
X104089224Y-50723766D01*
X104047354Y-50667832D01*
X104042370Y-50598140D01*
X104075856Y-50536818D01*
X104137180Y-50503333D01*
X104163536Y-50500500D01*
X104834303Y-50500500D01*
X104901342Y-50520185D01*
G37*
%TD.AperFunction*%
%TA.AperFunction,Conductor*%
G36*
X107441342Y-50520185D02*
G01*
X107487097Y-50572989D01*
X107497041Y-50642147D01*
X107468016Y-50705703D01*
X107430598Y-50734985D01*
X107292439Y-50805380D01*
X107238282Y-50844727D01*
X107238282Y-50844728D01*
X107870591Y-51477037D01*
X107807007Y-51494075D01*
X107692993Y-51559901D01*
X107599901Y-51652993D01*
X107534075Y-51767007D01*
X107517037Y-51830591D01*
X106884728Y-51198282D01*
X106884727Y-51198282D01*
X106845380Y-51252440D01*
X106840483Y-51262051D01*
X106792506Y-51312845D01*
X106724684Y-51329638D01*
X106658550Y-51307098D01*
X106619516Y-51262048D01*
X106614626Y-51252452D01*
X106575270Y-51198282D01*
X106575269Y-51198282D01*
X105942962Y-51830590D01*
X105925925Y-51767007D01*
X105860099Y-51652993D01*
X105767007Y-51559901D01*
X105652993Y-51494075D01*
X105589409Y-51477037D01*
X106221716Y-50844728D01*
X106167550Y-50805375D01*
X106029403Y-50734985D01*
X105978607Y-50687010D01*
X105961812Y-50619189D01*
X105984350Y-50553054D01*
X106039065Y-50509603D01*
X106085698Y-50500500D01*
X107374303Y-50500500D01*
X107441342Y-50520185D01*
G37*
%TD.AperFunction*%
%TA.AperFunction,Conductor*%
G36*
X109981342Y-50520185D02*
G01*
X110027097Y-50572989D01*
X110037041Y-50642147D01*
X110008016Y-50705703D01*
X109970598Y-50734985D01*
X109832439Y-50805380D01*
X109778282Y-50844727D01*
X109778282Y-50844728D01*
X110410591Y-51477037D01*
X110347007Y-51494075D01*
X110232993Y-51559901D01*
X110139901Y-51652993D01*
X110074075Y-51767007D01*
X110057037Y-51830591D01*
X109424728Y-51198282D01*
X109424727Y-51198282D01*
X109385380Y-51252440D01*
X109380483Y-51262051D01*
X109332506Y-51312845D01*
X109264684Y-51329638D01*
X109198550Y-51307098D01*
X109159516Y-51262048D01*
X109154626Y-51252452D01*
X109115270Y-51198282D01*
X109115269Y-51198282D01*
X108482962Y-51830590D01*
X108465925Y-51767007D01*
X108400099Y-51652993D01*
X108307007Y-51559901D01*
X108192993Y-51494075D01*
X108129409Y-51477037D01*
X108761716Y-50844728D01*
X108707550Y-50805375D01*
X108569403Y-50734985D01*
X108518607Y-50687010D01*
X108501812Y-50619189D01*
X108524350Y-50553054D01*
X108579065Y-50509603D01*
X108625698Y-50500500D01*
X109914303Y-50500500D01*
X109981342Y-50520185D01*
G37*
%TD.AperFunction*%
%TA.AperFunction,Conductor*%
G36*
X112520240Y-50520185D02*
G01*
X112565995Y-50572989D01*
X112575939Y-50642147D01*
X112546914Y-50705703D01*
X112509496Y-50734985D01*
X112372180Y-50804951D01*
X112200213Y-50929890D01*
X112049890Y-51080213D01*
X111924949Y-51252182D01*
X111920202Y-51261499D01*
X111872227Y-51312293D01*
X111804405Y-51329087D01*
X111738271Y-51306548D01*
X111699234Y-51261495D01*
X111694626Y-51252452D01*
X111655270Y-51198282D01*
X111655269Y-51198282D01*
X111022962Y-51830590D01*
X111005925Y-51767007D01*
X110940099Y-51652993D01*
X110847007Y-51559901D01*
X110732993Y-51494075D01*
X110669409Y-51477037D01*
X111301716Y-50844728D01*
X111247550Y-50805375D01*
X111109403Y-50734985D01*
X111058607Y-50687010D01*
X111041812Y-50619189D01*
X111064350Y-50553054D01*
X111119065Y-50509603D01*
X111165698Y-50500500D01*
X112453201Y-50500500D01*
X112520240Y-50520185D01*
G37*
%TD.AperFunction*%
%TD*%
M02*
